<?xml version="1.0" encoding="UTF-8"?>
<!DOCTYPE svg PUBLIC "-//W3C//DTD SVG 1.1//EN" "http://www.w3.org/Graphics/SVG/1.1/DTD/svg11.dtd">
<svg version="1.2" width="297mm" height="210mm" viewBox="0 0 29700 21000" preserveAspectRatio="xMidYMid" fill-rule="evenodd" stroke-width="28.222" stroke-linejoin="round" xmlns="http://www.w3.org/2000/svg" xmlns:ooo="http://xml.openoffice.org/svg/export" xmlns:xlink="http://www.w3.org/1999/xlink" xmlns:presentation="http://sun.com/xmlns/staroffice/presentation" xmlns:smil="http://www.w3.org/2001/SMIL20/" xmlns:anim="urn:oasis:names:tc:opendocument:xmlns:animation:1.0" xml:space="preserve">
 <defs class="ClipPathGroup">
  <clipPath id="presentation_clip_path" clipPathUnits="userSpaceOnUse">
   <rect x="0" y="0" width="29700" height="21000"/>
  </clipPath>
  <clipPath id="presentation_clip_path_shrink" clipPathUnits="userSpaceOnUse">
   <rect x="29" y="21" width="29641" height="20958"/>
  </clipPath>
 </defs>
 <defs class="TextShapeIndex">
  <g ooo:slide="id1" ooo:id-list="id3 id4 id5 id6 id7 id8 id9 id10 id11 id12 id13 id14 id15 id16 id17 id18 id19"/>
 </defs>
 <defs class="EmbeddedBulletChars">
  <g id="bullet-char-template-57356" transform="scale(0.00048828125,-0.00048828125)">
   <path d="M 580,1141 L 1163,571 580,0 -4,571 580,1141 Z"/>
  </g>
  <g id="bullet-char-template-57354" transform="scale(0.00048828125,-0.00048828125)">
   <path d="M 8,1128 L 1137,1128 1137,0 8,0 8,1128 Z"/>
  </g>
  <g id="bullet-char-template-10146" transform="scale(0.00048828125,-0.00048828125)">
   <path d="M 174,0 L 602,739 174,1481 1456,739 174,0 Z M 1358,739 L 309,1346 659,739 1358,739 Z"/>
  </g>
  <g id="bullet-char-template-10132" transform="scale(0.00048828125,-0.00048828125)">
   <path d="M 2015,739 L 1276,0 717,0 1260,543 174,543 174,936 1260,936 717,1481 1274,1481 2015,739 Z"/>
  </g>
  <g id="bullet-char-template-10007" transform="scale(0.00048828125,-0.00048828125)">
   <path d="M 0,-2 C -7,14 -16,27 -25,37 L 356,567 C 262,823 215,952 215,954 215,979 228,992 255,992 264,992 276,990 289,987 310,991 331,999 354,1012 L 381,999 492,748 772,1049 836,1024 860,1049 C 881,1039 901,1025 922,1006 886,937 835,863 770,784 769,783 710,716 594,584 L 774,223 C 774,196 753,168 711,139 L 727,119 C 717,90 699,76 672,76 641,76 570,178 457,381 L 164,-76 C 142,-110 111,-127 72,-127 30,-127 9,-110 8,-76 1,-67 -2,-52 -2,-32 -2,-23 -1,-13 0,-2 Z"/>
  </g>
  <g id="bullet-char-template-10004" transform="scale(0.00048828125,-0.00048828125)">
   <path d="M 285,-33 C 182,-33 111,30 74,156 52,228 41,333 41,471 41,549 55,616 82,672 116,743 169,778 240,778 293,778 328,747 346,684 L 369,508 C 377,444 397,411 428,410 L 1163,1116 C 1174,1127 1196,1133 1229,1133 1271,1133 1292,1118 1292,1087 L 1292,965 C 1292,929 1282,901 1262,881 L 442,47 C 390,-6 338,-33 285,-33 Z"/>
  </g>
  <g id="bullet-char-template-9679" transform="scale(0.00048828125,-0.00048828125)">
   <path d="M 813,0 C 632,0 489,54 383,161 276,268 223,411 223,592 223,773 276,916 383,1023 489,1130 632,1184 813,1184 992,1184 1136,1130 1245,1023 1353,916 1407,772 1407,592 1407,412 1353,268 1245,161 1136,54 992,0 813,0 Z"/>
  </g>
  <g id="bullet-char-template-8226" transform="scale(0.00048828125,-0.00048828125)">
   <path d="M 346,457 C 273,457 209,483 155,535 101,586 74,649 74,723 74,796 101,859 155,911 209,963 273,989 346,989 419,989 480,963 531,910 582,859 608,796 608,723 608,648 583,586 532,535 482,483 420,457 346,457 Z"/>
  </g>
  <g id="bullet-char-template-8211" transform="scale(0.00048828125,-0.00048828125)">
   <path d="M -4,459 L 1135,459 1135,606 -4,606 -4,459 Z"/>
  </g>
  <g id="bullet-char-template-61548" transform="scale(0.00048828125,-0.00048828125)">
   <path d="M 173,740 C 173,903 231,1043 346,1159 462,1274 601,1332 765,1332 928,1332 1067,1274 1183,1159 1299,1043 1357,903 1357,740 1357,577 1299,437 1183,322 1067,206 928,148 765,148 601,148 462,206 346,322 231,437 173,577 173,740 Z"/>
  </g>
 </defs>
 <g>
  <g id="id2" class="Master_Slide">
   <g id="bg-id2" class="Background"/>
   <g id="bo-id2" class="BackgroundObjects"/>
  </g>
 </g>
 <g class="SlideGroup">
  <g>
   <g id="container-id1">
    <g id="id1" class="Slide" clip-path="url(#presentation_clip_path)">
     <g class="Page">
      <g class="Group">
       <g class="Group">
        <g class="Group">
         <g class="com.sun.star.drawing.CustomShape">
          <g id="id3">
           <rect class="BoundingBox" stroke="none" fill="none" x="9087" y="13847" width="1803" height="2603"/>
           <path fill="rgb(255,255,0)" stroke="none" d="M 9988,16448 L 9088,16448 9088,13848 10888,13848 10888,16448 9988,16448 Z"/>
           <path fill="none" stroke="rgb(52,101,164)" d="M 9988,16448 L 9088,16448 9088,13848 10888,13848 10888,16448 9988,16448 Z"/>
          </g>
         </g>
         <g class="com.sun.star.drawing.CustomShape">
          <g id="id4">
           <rect class="BoundingBox" stroke="none" fill="none" x="8798" y="13516" width="1839" height="1634"/>
           <path fill="rgb(0,0,0)" stroke="none" d="M 9845,14486 L 9056,15148 8799,14842 10377,13517 10635,13823 9845,14486 Z"/>
           <path fill="none" stroke="rgb(52,101,164)" d="M 9845,14486 L 9056,15148 8799,14842 10377,13517 10635,13823 9845,14486 Z"/>
          </g>
         </g>
         <g class="com.sun.star.drawing.CustomShape">
          <g id="id5">
           <rect class="BoundingBox" stroke="none" fill="none" x="9087" y="13447" width="1803" height="403"/>
           <path fill="rgb(255,255,255)" stroke="none" d="M 9988,13848 L 9088,13848 9088,13448 10888,13448 10888,13848 9988,13848 Z"/>
           <path fill="none" stroke="rgb(255,255,255)" d="M 9988,13848 L 9088,13848 9088,13448 10888,13448 10888,13848 9988,13848 Z"/>
          </g>
         </g>
        </g>
        <g class="com.sun.star.drawing.CustomShape">
         <g id="id6">
          <rect class="BoundingBox" stroke="none" fill="none" x="9057" y="14765" width="2079" height="1836"/>
          <path fill="rgb(0,0,0)" stroke="none" d="M 10225,15836 L 9315,16599 9058,16293 10877,14766 11134,15072 10225,15836 Z"/>
          <path fill="none" stroke="rgb(52,101,164)" d="M 10225,15836 L 9315,16599 9058,16293 10877,14766 11134,15072 10225,15836 Z"/>
         </g>
        </g>
        <g class="com.sun.star.drawing.CustomShape">
         <g id="id7">
          <rect class="BoundingBox" stroke="none" fill="none" x="9087" y="16247" width="1803" height="403"/>
          <path fill="rgb(255,255,255)" stroke="none" d="M 9988,16648 L 9088,16648 9088,16248 10888,16248 10888,16648 9988,16648 Z"/>
          <path fill="none" stroke="rgb(255,255,255)" d="M 9988,16648 L 9088,16648 9088,16248 10888,16248 10888,16648 9988,16648 Z"/>
         </g>
        </g>
        <g class="com.sun.star.drawing.CustomShape">
         <g id="id8">
          <rect class="BoundingBox" stroke="none" fill="none" x="8687" y="13745" width="411" height="2604"/>
          <path fill="rgb(255,255,255)" stroke="none" d="M 8692,15047 L 8688,13747 9088,13746 9096,16346 8696,16347 8692,15047 Z"/>
          <path fill="none" stroke="rgb(255,255,255)" d="M 8692,15047 L 8688,13747 9088,13746 9096,16346 8696,16347 8692,15047 Z"/>
         </g>
        </g>
        <g class="com.sun.star.drawing.CustomShape">
         <g id="id9">
          <rect class="BoundingBox" stroke="none" fill="none" x="10887" y="13745" width="411" height="2604"/>
          <path fill="rgb(255,255,255)" stroke="none" d="M 10892,15047 L 10888,13747 11288,13746 11296,16346 10896,16347 10892,15047 Z"/>
          <path fill="none" stroke="rgb(255,255,255)" d="M 10892,15047 L 10888,13747 11288,13746 11296,16346 10896,16347 10892,15047 Z"/>
         </g>
        </g>
       </g>
       <g class="Group">
        <g class="Group">
         <g class="com.sun.star.drawing.CustomShape">
          <g id="id10">
           <rect class="BoundingBox" stroke="none" fill="none" x="8937" y="14778" width="14104" height="442"/>
           <path fill="rgb(17,17,17)" stroke="none" d="M 23038,14979 L 23039,15179 8939,15218 8938,14818 23038,14779 23038,14979 Z"/>
           <path fill="none" stroke="rgb(52,101,164)" d="M 23038,14979 L 23039,15179 8939,15218 8938,14818 23038,14779 23038,14979 Z"/>
          </g>
         </g>
         <g class="com.sun.star.drawing.CustomShape">
          <g id="id11">
           <rect class="BoundingBox" stroke="none" fill="none" x="14637" y="14797" width="1004" height="406"/>
           <path fill="rgb(248,248,0)" stroke="none" d="M 15638,14998 L 15639,15198 14639,15201 14638,14801 15638,14798 15638,14998 Z"/>
           <path fill="none" stroke="rgb(52,101,164)" d="M 15638,14998 L 15639,15198 14639,15201 14638,14801 15638,14798 15638,14998 Z"/>
          </g>
         </g>
         <g class="com.sun.star.drawing.CustomShape">
          <g id="id12">
           <rect class="BoundingBox" stroke="none" fill="none" x="14637" y="14797" width="1004" height="406"/>
           <path fill="rgb(248,248,0)" stroke="none" d="M 15638,14998 L 15639,15198 14639,15201 14638,14801 15638,14798 15638,14998 Z"/>
           <path fill="none" stroke="rgb(52,101,164)" d="M 15638,14998 L 15639,15198 14639,15201 14638,14801 15638,14798 15638,14998 Z"/>
          </g>
         </g>
         <g class="com.sun.star.drawing.CustomShape">
          <g id="id13">
           <rect class="BoundingBox" stroke="none" fill="none" x="18537" y="14785" width="1004" height="406"/>
           <path fill="rgb(248,248,0)" stroke="none" d="M 19538,14986 L 19539,15186 18539,15189 18538,14789 19538,14786 19538,14986 Z"/>
           <path fill="none" stroke="rgb(52,101,164)" d="M 19538,14986 L 19539,15186 18539,15189 18538,14789 19538,14786 19538,14986 Z"/>
          </g>
         </g>
         <g class="com.sun.star.drawing.CustomShape">
          <g id="id14">
           <rect class="BoundingBox" stroke="none" fill="none" x="16537" y="14791" width="1004" height="406"/>
           <path fill="rgb(248,248,0)" stroke="none" d="M 17538,14992 L 17539,15192 16539,15195 16538,14795 17538,14792 17538,14992 Z"/>
           <path fill="none" stroke="rgb(52,101,164)" d="M 17538,14992 L 17539,15192 16539,15195 16538,14795 17538,14792 17538,14992 Z"/>
          </g>
         </g>
         <g class="com.sun.star.drawing.CustomShape">
          <g id="id15">
           <rect class="BoundingBox" stroke="none" fill="none" x="10637" y="14809" width="1004" height="406"/>
           <path fill="rgb(248,248,0)" stroke="none" d="M 11638,15010 L 11639,15210 10639,15213 10638,14813 11638,14810 11638,15010 Z"/>
           <path fill="none" stroke="rgb(52,101,164)" d="M 11638,15010 L 11639,15210 10639,15213 10638,14813 11638,14810 11638,15010 Z"/>
          </g>
         </g>
         <g class="com.sun.star.drawing.CustomShape">
          <g id="id16">
           <rect class="BoundingBox" stroke="none" fill="none" x="12637" y="14803" width="1004" height="406"/>
           <path fill="rgb(248,248,0)" stroke="none" d="M 13638,15004 L 13639,15204 12639,15207 12638,14807 13638,14804 13638,15004 Z"/>
           <path fill="none" stroke="rgb(52,101,164)" d="M 13638,15004 L 13639,15204 12639,15207 12638,14807 13638,14804 13638,15004 Z"/>
          </g>
         </g>
         <g class="com.sun.star.drawing.CustomShape">
          <g id="id17">
           <rect class="BoundingBox" stroke="none" fill="none" x="20637" y="14779" width="1004" height="406"/>
           <path fill="rgb(248,248,0)" stroke="none" d="M 21638,14980 L 21639,15180 20639,15183 20638,14783 21638,14780 21638,14980 Z"/>
           <path fill="none" stroke="rgb(52,101,164)" d="M 21638,14980 L 21639,15180 20639,15183 20638,14783 21638,14780 21638,14980 Z"/>
          </g>
         </g>
        </g>
        <g class="com.sun.star.drawing.CustomShape">
         <g id="id18">
          <rect class="BoundingBox" stroke="none" fill="none" x="10886" y="14808" width="804" height="405"/>
          <path fill="rgb(248,248,0)" stroke="none" d="M 11688,15011 L 11687,15211 10887,15209 10888,14809 11688,14811 11688,15011 Z"/>
          <path fill="none" stroke="rgb(52,101,164)" d="M 11688,15011 L 11687,15211 10887,15209 10888,14809 11688,14811 11688,15011 Z"/>
         </g>
        </g>
        <g class="com.sun.star.drawing.CustomShape">
         <g id="id19">
          <rect class="BoundingBox" stroke="none" fill="none" x="8294" y="14808" width="804" height="405"/>
          <path fill="rgb(248,248,0)" stroke="none" d="M 9096,15011 L 9095,15211 8295,15209 8296,14809 9096,14811 9096,15011 Z"/>
          <path fill="none" stroke="rgb(52,101,164)" d="M 9096,15011 L 9095,15211 8295,15209 8296,14809 9096,14811 9096,15011 Z"/>
         </g>
        </g>
       </g>
      </g>
     </g>
    </g>
   </g>
  </g>
 </g>
</svg>