<?xml version="1.0" encoding="UTF-8"?>
<!DOCTYPE svg PUBLIC "-//W3C//DTD SVG 1.1//EN" "http://www.w3.org/Graphics/SVG/1.1/DTD/svg11.dtd">
<svg version="1.2" width="297mm" height="210mm" viewBox="0 0 29700 21000" preserveAspectRatio="xMidYMid" fill-rule="evenodd" stroke-width="28.222" stroke-linejoin="round" xmlns="http://www.w3.org/2000/svg" xmlns:ooo="http://xml.openoffice.org/svg/export" xmlns:xlink="http://www.w3.org/1999/xlink" xmlns:presentation="http://sun.com/xmlns/staroffice/presentation" xmlns:smil="http://www.w3.org/2001/SMIL20/" xmlns:anim="urn:oasis:names:tc:opendocument:xmlns:animation:1.0" xml:space="preserve">
 <defs class="ClipPathGroup">
  <clipPath id="presentation_clip_path" clipPathUnits="userSpaceOnUse">
   <rect x="0" y="0" width="29700" height="21000"/>
  </clipPath>
  <clipPath id="presentation_clip_path_shrink" clipPathUnits="userSpaceOnUse">
   <rect x="29" y="21" width="29641" height="20958"/>
  </clipPath>
 </defs>
 <defs class="TextShapeIndex">
  <g ooo:slide="id1" ooo:id-list="id3 id4 id5 id6 id7 id8 id9 id10 id11 id12 id13 id14 id15 id16 id17 id18 id19"/>
 </defs>
 <defs class="EmbeddedBulletChars">
  <g id="bullet-char-template-57356" transform="scale(0.00048828125,-0.00048828125)">
   <path d="M 580,1141 L 1163,571 580,0 -4,571 580,1141 Z"/>
  </g>
  <g id="bullet-char-template-57354" transform="scale(0.00048828125,-0.00048828125)">
   <path d="M 8,1128 L 1137,1128 1137,0 8,0 8,1128 Z"/>
  </g>
  <g id="bullet-char-template-10146" transform="scale(0.00048828125,-0.00048828125)">
   <path d="M 174,0 L 602,739 174,1481 1456,739 174,0 Z M 1358,739 L 309,1346 659,739 1358,739 Z"/>
  </g>
  <g id="bullet-char-template-10132" transform="scale(0.00048828125,-0.00048828125)">
   <path d="M 2015,739 L 1276,0 717,0 1260,543 174,543 174,936 1260,936 717,1481 1274,1481 2015,739 Z"/>
  </g>
  <g id="bullet-char-template-10007" transform="scale(0.00048828125,-0.00048828125)">
   <path d="M 0,-2 C -7,14 -16,27 -25,37 L 356,567 C 262,823 215,952 215,954 215,979 228,992 255,992 264,992 276,990 289,987 310,991 331,999 354,1012 L 381,999 492,748 772,1049 836,1024 860,1049 C 881,1039 901,1025 922,1006 886,937 835,863 770,784 769,783 710,716 594,584 L 774,223 C 774,196 753,168 711,139 L 727,119 C 717,90 699,76 672,76 641,76 570,178 457,381 L 164,-76 C 142,-110 111,-127 72,-127 30,-127 9,-110 8,-76 1,-67 -2,-52 -2,-32 -2,-23 -1,-13 0,-2 Z"/>
  </g>
  <g id="bullet-char-template-10004" transform="scale(0.00048828125,-0.00048828125)">
   <path d="M 285,-33 C 182,-33 111,30 74,156 52,228 41,333 41,471 41,549 55,616 82,672 116,743 169,778 240,778 293,778 328,747 346,684 L 369,508 C 377,444 397,411 428,410 L 1163,1116 C 1174,1127 1196,1133 1229,1133 1271,1133 1292,1118 1292,1087 L 1292,965 C 1292,929 1282,901 1262,881 L 442,47 C 390,-6 338,-33 285,-33 Z"/>
  </g>
  <g id="bullet-char-template-9679" transform="scale(0.00048828125,-0.00048828125)">
   <path d="M 813,0 C 632,0 489,54 383,161 276,268 223,411 223,592 223,773 276,916 383,1023 489,1130 632,1184 813,1184 992,1184 1136,1130 1245,1023 1353,916 1407,772 1407,592 1407,412 1353,268 1245,161 1136,54 992,0 813,0 Z"/>
  </g>
  <g id="bullet-char-template-8226" transform="scale(0.00048828125,-0.00048828125)">
   <path d="M 346,457 C 273,457 209,483 155,535 101,586 74,649 74,723 74,796 101,859 155,911 209,963 273,989 346,989 419,989 480,963 531,910 582,859 608,796 608,723 608,648 583,586 532,535 482,483 420,457 346,457 Z"/>
  </g>
  <g id="bullet-char-template-8211" transform="scale(0.00048828125,-0.00048828125)">
   <path d="M -4,459 L 1135,459 1135,606 -4,606 -4,459 Z"/>
  </g>
  <g id="bullet-char-template-61548" transform="scale(0.00048828125,-0.00048828125)">
   <path d="M 173,740 C 173,903 231,1043 346,1159 462,1274 601,1332 765,1332 928,1332 1067,1274 1183,1159 1299,1043 1357,903 1357,740 1357,577 1299,437 1183,322 1067,206 928,148 765,148 601,148 462,206 346,322 231,437 173,577 173,740 Z"/>
  </g>
 </defs>
 <g>
  <g id="id2" class="Master_Slide">
   <g id="bg-id2" class="Background"/>
   <g id="bo-id2" class="BackgroundObjects"/>
  </g>
 </g>
 <g class="SlideGroup">
  <g>
   <g id="container-id1">
    <g id="id1" class="Slide" clip-path="url(#presentation_clip_path)">
     <g class="Page">
      <g class="Group">
       <g class="Group">
        <g class="Group">
         <g class="com.sun.star.drawing.CustomShape">
          <g id="id3">
           <rect class="BoundingBox" stroke="none" fill="none" x="8952" y="13804" width="2023" height="2750"/>
           <path fill="rgb(255,255,0)" stroke="none" d="M 10076,16474 L 9180,16552 8953,13962 10746,13805 10973,16395 10076,16474 Z"/>
           <path fill="none" stroke="rgb(52,101,164)" d="M 10076,16474 L 9180,16552 8953,13962 10746,13805 10973,16395 10076,16474 Z"/>
          </g>
         </g>
         <g class="com.sun.star.drawing.CustomShape">
          <g id="id4">
           <rect class="BoundingBox" stroke="none" fill="none" x="8750" y="13519" width="1743" height="1744"/>
           <path fill="rgb(0,0,0)" stroke="none" d="M 9762,14532 L 9034,15261 8751,14978 10208,13520 10491,13803 9762,14532 Z"/>
           <path fill="none" stroke="rgb(52,101,164)" d="M 9762,14532 L 9034,15261 8751,14978 10208,13520 10491,13803 9762,14532 Z"/>
          </g>
         </g>
         <g class="com.sun.star.drawing.CustomShape">
          <g id="id5">
           <rect class="BoundingBox" stroke="none" fill="none" x="8917" y="13405" width="1831" height="558"/>
           <path fill="rgb(255,255,255)" stroke="none" d="M 9849,13883 L 8953,13961 8918,13563 10711,13406 10746,13805 9849,13883 Z"/>
           <path fill="none" stroke="rgb(255,255,255)" d="M 9849,13883 L 8953,13961 8918,13563 10711,13406 10746,13805 9849,13883 Z"/>
          </g>
         </g>
        </g>
        <g class="com.sun.star.drawing.CustomShape">
         <g id="id6">
          <rect class="BoundingBox" stroke="none" fill="none" x="9135" y="14720" width="1965" height="1966"/>
          <path fill="rgb(0,0,0)" stroke="none" d="M 10258,15844 L 9419,16684 9136,16401 10815,14721 11098,15004 10258,15844 Z"/>
          <path fill="none" stroke="rgb(52,101,164)" d="M 10258,15844 L 9419,16684 9136,16401 10815,14721 11098,15004 10258,15844 Z"/>
         </g>
        </g>
        <g class="com.sun.star.drawing.CustomShape">
         <g id="id7">
          <rect class="BoundingBox" stroke="none" fill="none" x="9161" y="16195" width="1831" height="558"/>
          <path fill="rgb(255,255,255)" stroke="none" d="M 10093,16673 L 9197,16751 9162,16353 10955,16196 10990,16595 10093,16673 Z"/>
          <path fill="none" stroke="rgb(255,255,255)" d="M 10093,16673 L 9197,16751 9162,16353 10955,16196 10990,16595 10093,16673 Z"/>
         </g>
        </g>
        <g class="com.sun.star.drawing.CustomShape">
         <g id="id8">
          <rect class="BoundingBox" stroke="none" fill="none" x="8545" y="13860" width="635" height="2628"/>
          <path fill="rgb(255,255,255)" stroke="none" d="M 8663,15192 L 8546,13897 8944,13861 9178,16450 8780,16486 8663,15192 Z"/>
          <path fill="none" stroke="rgb(255,255,255)" d="M 8663,15192 L 8546,13897 8944,13861 9178,16450 8780,16486 8663,15192 Z"/>
         </g>
        </g>
        <g class="com.sun.star.drawing.CustomShape">
         <g id="id9">
          <rect class="BoundingBox" stroke="none" fill="none" x="10737" y="13669" width="635" height="2628"/>
          <path fill="rgb(255,255,255)" stroke="none" d="M 10855,15001 L 10738,13706 11136,13670 11370,16259 10972,16295 10855,15001 Z"/>
          <path fill="none" stroke="rgb(255,255,255)" d="M 10855,15001 L 10738,13706 11136,13670 11370,16259 10972,16295 10855,15001 Z"/>
         </g>
        </g>
       </g>
       <g class="Group">
        <g class="Group">
         <g class="com.sun.star.drawing.CustomShape">
          <g id="id10">
           <rect class="BoundingBox" stroke="none" fill="none" x="8887" y="13673" width="14082" height="1669"/>
           <path fill="rgb(17,17,17)" stroke="none" d="M 22949,13873 L 22967,14072 8924,15340 8888,14942 22931,13674 22949,13873 Z"/>
           <path fill="none" stroke="rgb(52,101,164)" d="M 22949,13873 L 22967,14072 8924,15340 8888,14942 22931,13674 22949,13873 Z"/>
          </g>
         </g>
         <g class="com.sun.star.drawing.CustomShape">
          <g id="id11">
           <rect class="BoundingBox" stroke="none" fill="none" x="14564" y="14339" width="1035" height="491"/>
           <path fill="rgb(248,248,0)" stroke="none" d="M 15579,14539 L 15597,14738 14601,14828 14565,14430 15561,14340 15579,14539 Z"/>
           <path fill="none" stroke="rgb(52,101,164)" d="M 15579,14539 L 15597,14738 14601,14828 14565,14430 15561,14340 15579,14539 Z"/>
          </g>
         </g>
         <g class="com.sun.star.drawing.CustomShape">
          <g id="id12">
           <rect class="BoundingBox" stroke="none" fill="none" x="14564" y="14339" width="1035" height="491"/>
           <path fill="rgb(248,248,0)" stroke="none" d="M 15579,14539 L 15597,14738 14601,14828 14565,14430 15561,14340 15579,14539 Z"/>
           <path fill="none" stroke="rgb(52,101,164)" d="M 15579,14539 L 15597,14738 14601,14828 14565,14430 15561,14340 15579,14539 Z"/>
          </g>
         </g>
         <g class="com.sun.star.drawing.CustomShape">
          <g id="id13">
           <rect class="BoundingBox" stroke="none" fill="none" x="18448" y="13987" width="1035" height="491"/>
           <path fill="rgb(248,248,0)" stroke="none" d="M 19463,14187 L 19481,14386 18485,14476 18449,14078 19445,13988 19463,14187 Z"/>
           <path fill="none" stroke="rgb(52,101,164)" d="M 19463,14187 L 19481,14386 18485,14476 18449,14078 19445,13988 19463,14187 Z"/>
          </g>
         </g>
         <g class="com.sun.star.drawing.CustomShape">
          <g id="id14">
           <rect class="BoundingBox" stroke="none" fill="none" x="16456" y="14167" width="1035" height="491"/>
           <path fill="rgb(248,248,0)" stroke="none" d="M 17471,14367 L 17489,14566 16493,14656 16457,14258 17453,14168 17471,14367 Z"/>
           <path fill="none" stroke="rgb(52,101,164)" d="M 17471,14367 L 17489,14566 16493,14656 16457,14258 17453,14168 17471,14367 Z"/>
          </g>
         </g>
         <g class="com.sun.star.drawing.CustomShape">
          <g id="id15">
           <rect class="BoundingBox" stroke="none" fill="none" x="10580" y="14700" width="1035" height="491"/>
           <path fill="rgb(248,248,0)" stroke="none" d="M 11595,14900 L 11613,15099 10617,15189 10581,14791 11577,14701 11595,14900 Z"/>
           <path fill="none" stroke="rgb(52,101,164)" d="M 11595,14900 L 11613,15099 10617,15189 10581,14791 11577,14701 11595,14900 Z"/>
          </g>
         </g>
         <g class="com.sun.star.drawing.CustomShape">
          <g id="id16">
           <rect class="BoundingBox" stroke="none" fill="none" x="12572" y="14519" width="1035" height="491"/>
           <path fill="rgb(248,248,0)" stroke="none" d="M 13587,14719 L 13605,14918 12609,15008 12573,14610 13569,14520 13587,14719 Z"/>
           <path fill="none" stroke="rgb(52,101,164)" d="M 13587,14719 L 13605,14918 12609,15008 12573,14610 13569,14520 13587,14719 Z"/>
          </g>
         </g>
         <g class="com.sun.star.drawing.CustomShape">
          <g id="id17">
           <rect class="BoundingBox" stroke="none" fill="none" x="20539" y="13798" width="1035" height="491"/>
           <path fill="rgb(248,248,0)" stroke="none" d="M 21554,13998 L 21572,14197 20576,14287 20540,13889 21536,13799 21554,13998 Z"/>
           <path fill="none" stroke="rgb(52,101,164)" d="M 21554,13998 L 21572,14197 20576,14287 20540,13889 21536,13799 21554,13998 Z"/>
          </g>
         </g>
        </g>
        <g class="com.sun.star.drawing.CustomShape">
         <g id="id18">
          <rect class="BoundingBox" stroke="none" fill="none" x="10828" y="14695" width="834" height="469"/>
          <path fill="rgb(248,248,0)" stroke="none" d="M 11643,14895 L 11660,15095 10863,15162 10829,14763 11626,14696 11643,14895 Z"/>
          <path fill="none" stroke="rgb(52,101,164)" d="M 11643,14895 L 11660,15095 10863,15162 10829,14763 11626,14696 11643,14895 Z"/>
         </g>
        </g>
        <g class="com.sun.star.drawing.CustomShape">
         <g id="id19">
          <rect class="BoundingBox" stroke="none" fill="none" x="8246" y="14921" width="834" height="469"/>
          <path fill="rgb(248,248,0)" stroke="none" d="M 9061,15121 L 9078,15321 8281,15388 8247,14989 9044,14922 9061,15121 Z"/>
          <path fill="none" stroke="rgb(52,101,164)" d="M 9061,15121 L 9078,15321 8281,15388 8247,14989 9044,14922 9061,15121 Z"/>
         </g>
        </g>
       </g>
      </g>
     </g>
    </g>
   </g>
  </g>
 </g>
</svg>