<?xml version="1.0" encoding="UTF-8"?>
<!DOCTYPE svg PUBLIC "-//W3C//DTD SVG 1.1//EN" "http://www.w3.org/Graphics/SVG/1.1/DTD/svg11.dtd">
<svg version="1.2" width="297mm" height="210mm" viewBox="0 0 29700 21000" preserveAspectRatio="xMidYMid" fill-rule="evenodd" stroke-width="28.222" stroke-linejoin="round" xmlns="http://www.w3.org/2000/svg" xmlns:ooo="http://xml.openoffice.org/svg/export" xmlns:xlink="http://www.w3.org/1999/xlink" xmlns:presentation="http://sun.com/xmlns/staroffice/presentation" xmlns:smil="http://www.w3.org/2001/SMIL20/" xmlns:anim="urn:oasis:names:tc:opendocument:xmlns:animation:1.0" xml:space="preserve">
 <defs class="ClipPathGroup">
  <clipPath id="presentation_clip_path" clipPathUnits="userSpaceOnUse">
   <rect x="0" y="0" width="29700" height="21000"/>
  </clipPath>
  <clipPath id="presentation_clip_path_shrink" clipPathUnits="userSpaceOnUse">
   <rect x="29" y="21" width="29641" height="20958"/>
  </clipPath>
 </defs>
 <defs class="TextShapeIndex">
  <g ooo:slide="id1" ooo:id-list="id3 id4 id5 id6 id7 id8 id9 id10 id11 id12 id13 id14 id15 id16 id17 id18 id19"/>
 </defs>
 <defs class="EmbeddedBulletChars">
  <g id="bullet-char-template-57356" transform="scale(0.00048828125,-0.00048828125)">
   <path d="M 580,1141 L 1163,571 580,0 -4,571 580,1141 Z"/>
  </g>
  <g id="bullet-char-template-57354" transform="scale(0.00048828125,-0.00048828125)">
   <path d="M 8,1128 L 1137,1128 1137,0 8,0 8,1128 Z"/>
  </g>
  <g id="bullet-char-template-10146" transform="scale(0.00048828125,-0.00048828125)">
   <path d="M 174,0 L 602,739 174,1481 1456,739 174,0 Z M 1358,739 L 309,1346 659,739 1358,739 Z"/>
  </g>
  <g id="bullet-char-template-10132" transform="scale(0.00048828125,-0.00048828125)">
   <path d="M 2015,739 L 1276,0 717,0 1260,543 174,543 174,936 1260,936 717,1481 1274,1481 2015,739 Z"/>
  </g>
  <g id="bullet-char-template-10007" transform="scale(0.00048828125,-0.00048828125)">
   <path d="M 0,-2 C -7,14 -16,27 -25,37 L 356,567 C 262,823 215,952 215,954 215,979 228,992 255,992 264,992 276,990 289,987 310,991 331,999 354,1012 L 381,999 492,748 772,1049 836,1024 860,1049 C 881,1039 901,1025 922,1006 886,937 835,863 770,784 769,783 710,716 594,584 L 774,223 C 774,196 753,168 711,139 L 727,119 C 717,90 699,76 672,76 641,76 570,178 457,381 L 164,-76 C 142,-110 111,-127 72,-127 30,-127 9,-110 8,-76 1,-67 -2,-52 -2,-32 -2,-23 -1,-13 0,-2 Z"/>
  </g>
  <g id="bullet-char-template-10004" transform="scale(0.00048828125,-0.00048828125)">
   <path d="M 285,-33 C 182,-33 111,30 74,156 52,228 41,333 41,471 41,549 55,616 82,672 116,743 169,778 240,778 293,778 328,747 346,684 L 369,508 C 377,444 397,411 428,410 L 1163,1116 C 1174,1127 1196,1133 1229,1133 1271,1133 1292,1118 1292,1087 L 1292,965 C 1292,929 1282,901 1262,881 L 442,47 C 390,-6 338,-33 285,-33 Z"/>
  </g>
  <g id="bullet-char-template-9679" transform="scale(0.00048828125,-0.00048828125)">
   <path d="M 813,0 C 632,0 489,54 383,161 276,268 223,411 223,592 223,773 276,916 383,1023 489,1130 632,1184 813,1184 992,1184 1136,1130 1245,1023 1353,916 1407,772 1407,592 1407,412 1353,268 1245,161 1136,54 992,0 813,0 Z"/>
  </g>
  <g id="bullet-char-template-8226" transform="scale(0.00048828125,-0.00048828125)">
   <path d="M 346,457 C 273,457 209,483 155,535 101,586 74,649 74,723 74,796 101,859 155,911 209,963 273,989 346,989 419,989 480,963 531,910 582,859 608,796 608,723 608,648 583,586 532,535 482,483 420,457 346,457 Z"/>
  </g>
  <g id="bullet-char-template-8211" transform="scale(0.00048828125,-0.00048828125)">
   <path d="M -4,459 L 1135,459 1135,606 -4,606 -4,459 Z"/>
  </g>
  <g id="bullet-char-template-61548" transform="scale(0.00048828125,-0.00048828125)">
   <path d="M 173,740 C 173,903 231,1043 346,1159 462,1274 601,1332 765,1332 928,1332 1067,1274 1183,1159 1299,1043 1357,903 1357,740 1357,577 1299,437 1183,322 1067,206 928,148 765,148 601,148 462,206 346,322 231,437 173,577 173,740 Z"/>
  </g>
 </defs>
 <g>
  <g id="id2" class="Master_Slide">
   <g id="bg-id2" class="Background"/>
   <g id="bo-id2" class="BackgroundObjects"/>
  </g>
 </g>
 <g class="SlideGroup">
  <g>
   <g id="container-id1">
    <g id="id1" class="Slide" clip-path="url(#presentation_clip_path)">
     <g class="Page">
      <g class="Group">
       <g class="Group">
        <g class="Group">
         <g class="com.sun.star.drawing.CustomShape">
          <g id="id3">
           <rect class="BoundingBox" stroke="none" fill="none" x="15974" y="13821" width="2023" height="2750"/>
           <path fill="rgb(255,255,0)" stroke="none" d="M 16872,16491 L 15975,16412 16202,13822 17995,13979 17769,16569 16872,16491 Z"/>
           <path fill="none" stroke="rgb(52,101,164)" d="M 16872,16491 L 15975,16412 16202,13822 17995,13979 17769,16569 16872,16491 Z"/>
          </g>
         </g>
         <g class="com.sun.star.drawing.CustomShape">
          <g id="id4">
           <rect class="BoundingBox" stroke="none" fill="none" x="16456" y="13536" width="1743" height="1744"/>
           <path fill="rgb(0,0,0)" stroke="none" d="M 17185,14549 L 16457,13820 16740,13537 18197,14995 17914,15278 17185,14549 Z"/>
           <path fill="none" stroke="rgb(52,101,164)" d="M 17185,14549 L 16457,13820 16740,13537 18197,14995 17914,15278 17185,14549 Z"/>
          </g>
         </g>
         <g class="com.sun.star.drawing.CustomShape">
          <g id="id5">
           <rect class="BoundingBox" stroke="none" fill="none" x="16201" y="13422" width="1831" height="560"/>
           <path fill="rgb(255,255,255)" stroke="none" d="M 17099,13902 L 16202,13823 16237,13423 18030,13580 17995,13980 17099,13902 Z"/>
           <path fill="none" stroke="rgb(255,255,255)" d="M 17099,13902 L 16202,13823 16237,13423 18030,13580 17995,13980 17099,13902 Z"/>
          </g>
         </g>
        </g>
        <g class="com.sun.star.drawing.CustomShape">
         <g id="id6">
          <rect class="BoundingBox" stroke="none" fill="none" x="15849" y="14737" width="1965" height="1966"/>
          <path fill="rgb(0,0,0)" stroke="none" d="M 16689,15861 L 15850,15021 16133,14738 17812,16418 17529,16701 16689,15861 Z"/>
          <path fill="none" stroke="rgb(52,101,164)" d="M 16689,15861 L 15850,15021 16133,14738 17812,16418 17529,16701 16689,15861 Z"/>
         </g>
        </g>
        <g class="com.sun.star.drawing.CustomShape">
         <g id="id7">
          <rect class="BoundingBox" stroke="none" fill="none" x="15957" y="16212" width="1831" height="560"/>
          <path fill="rgb(255,255,255)" stroke="none" d="M 16855,16692 L 15958,16613 15993,16213 17786,16370 17751,16770 16855,16692 Z"/>
          <path fill="none" stroke="rgb(255,255,255)" d="M 16855,16692 L 15958,16613 15993,16213 17786,16370 17751,16770 16855,16692 Z"/>
         </g>
        </g>
        <g class="com.sun.star.drawing.CustomShape">
         <g id="id8">
          <rect class="BoundingBox" stroke="none" fill="none" x="17769" y="13877" width="635" height="2628"/>
          <path fill="rgb(255,255,255)" stroke="none" d="M 18285,15208 L 18168,16503 17770,16467 18004,13878 18402,13914 18285,15208 Z"/>
          <path fill="none" stroke="rgb(255,255,255)" d="M 18285,15208 L 18168,16503 17770,16467 18004,13878 18402,13914 18285,15208 Z"/>
         </g>
        </g>
        <g class="com.sun.star.drawing.CustomShape">
         <g id="id9">
          <rect class="BoundingBox" stroke="none" fill="none" x="15577" y="13686" width="635" height="2628"/>
          <path fill="rgb(255,255,255)" stroke="none" d="M 16093,15017 L 15976,16312 15578,16276 15812,13687 16210,13723 16093,15017 Z"/>
          <path fill="none" stroke="rgb(255,255,255)" d="M 16093,15017 L 15976,16312 15578,16276 15812,13687 16210,13723 16093,15017 Z"/>
         </g>
        </g>
       </g>
       <g class="Group">
        <g class="Group">
         <g class="com.sun.star.drawing.CustomShape">
          <g id="id10">
           <rect class="BoundingBox" stroke="none" fill="none" x="3979" y="13687" width="14082" height="1672"/>
           <path fill="rgb(17,17,17)" stroke="none" d="M 3998,13888 L 4016,13688 18059,14959 18023,15357 3980,14087 3998,13888 Z"/>
           <path fill="none" stroke="rgb(52,101,164)" d="M 3998,13888 L 4016,13688 18059,14959 18023,15357 3980,14087 3998,13888 Z"/>
          </g>
         </g>
         <g class="com.sun.star.drawing.CustomShape">
          <g id="id11">
           <rect class="BoundingBox" stroke="none" fill="none" x="11350" y="14356" width="1035" height="491"/>
           <path fill="rgb(248,248,0)" stroke="none" d="M 11369,14556 L 11387,14357 12383,14447 12347,14845 11351,14755 11369,14556 Z"/>
           <path fill="none" stroke="rgb(52,101,164)" d="M 11369,14556 L 11387,14357 12383,14447 12347,14845 11351,14755 11369,14556 Z"/>
          </g>
         </g>
         <g class="com.sun.star.drawing.CustomShape">
          <g id="id12">
           <rect class="BoundingBox" stroke="none" fill="none" x="11350" y="14356" width="1035" height="491"/>
           <path fill="rgb(248,248,0)" stroke="none" d="M 11369,14556 L 11387,14357 12383,14447 12347,14845 11351,14755 11369,14556 Z"/>
           <path fill="none" stroke="rgb(52,101,164)" d="M 11369,14556 L 11387,14357 12383,14447 12347,14845 11351,14755 11369,14556 Z"/>
          </g>
         </g>
         <g class="com.sun.star.drawing.CustomShape">
          <g id="id13">
           <rect class="BoundingBox" stroke="none" fill="none" x="7466" y="14004" width="1035" height="491"/>
           <path fill="rgb(248,248,0)" stroke="none" d="M 7485,14204 L 7503,14005 8499,14095 8463,14493 7467,14403 7485,14204 Z"/>
           <path fill="none" stroke="rgb(52,101,164)" d="M 7485,14204 L 7503,14005 8499,14095 8463,14493 7467,14403 7485,14204 Z"/>
          </g>
         </g>
         <g class="com.sun.star.drawing.CustomShape">
          <g id="id14">
           <rect class="BoundingBox" stroke="none" fill="none" x="9458" y="14184" width="1035" height="491"/>
           <path fill="rgb(248,248,0)" stroke="none" d="M 9477,14384 L 9495,14185 10491,14275 10455,14673 9459,14583 9477,14384 Z"/>
           <path fill="none" stroke="rgb(52,101,164)" d="M 9477,14384 L 9495,14185 10491,14275 10455,14673 9459,14583 9477,14384 Z"/>
          </g>
         </g>
         <g class="com.sun.star.drawing.CustomShape">
          <g id="id15">
           <rect class="BoundingBox" stroke="none" fill="none" x="15334" y="14717" width="1035" height="491"/>
           <path fill="rgb(248,248,0)" stroke="none" d="M 15353,14917 L 15371,14718 16367,14808 16331,15206 15335,15116 15353,14917 Z"/>
           <path fill="none" stroke="rgb(52,101,164)" d="M 15353,14917 L 15371,14718 16367,14808 16331,15206 15335,15116 15353,14917 Z"/>
          </g>
         </g>
         <g class="com.sun.star.drawing.CustomShape">
          <g id="id16">
           <rect class="BoundingBox" stroke="none" fill="none" x="13342" y="14536" width="1035" height="491"/>
           <path fill="rgb(248,248,0)" stroke="none" d="M 13361,14736 L 13379,14537 14375,14627 14339,15025 13343,14935 13361,14736 Z"/>
           <path fill="none" stroke="rgb(52,101,164)" d="M 13361,14736 L 13379,14537 14375,14627 14339,15025 13343,14935 13361,14736 Z"/>
          </g>
         </g>
         <g class="com.sun.star.drawing.CustomShape">
          <g id="id17">
           <rect class="BoundingBox" stroke="none" fill="none" x="5375" y="13815" width="1035" height="491"/>
           <path fill="rgb(248,248,0)" stroke="none" d="M 5394,14015 L 5412,13816 6408,13906 6372,14304 5376,14214 5394,14015 Z"/>
           <path fill="none" stroke="rgb(52,101,164)" d="M 5394,14015 L 5412,13816 6408,13906 6372,14304 5376,14214 5394,14015 Z"/>
          </g>
         </g>
        </g>
        <g class="com.sun.star.drawing.CustomShape">
         <g id="id18">
          <rect class="BoundingBox" stroke="none" fill="none" x="15286" y="14710" width="834" height="470"/>
          <path fill="rgb(248,248,0)" stroke="none" d="M 15304,14910 L 15321,14711 16118,14779 16084,15178 15287,15110 15304,14910 Z"/>
          <path fill="none" stroke="rgb(52,101,164)" d="M 15304,14910 L 15321,14711 16118,14779 16084,15178 15287,15110 15304,14910 Z"/>
         </g>
        </g>
        <g class="com.sun.star.drawing.CustomShape">
         <g id="id19">
          <rect class="BoundingBox" stroke="none" fill="none" x="17868" y="14936" width="834" height="470"/>
          <path fill="rgb(248,248,0)" stroke="none" d="M 17886,15136 L 17903,14937 18700,15005 18666,15404 17869,15336 17886,15136 Z"/>
          <path fill="none" stroke="rgb(52,101,164)" d="M 17886,15136 L 17903,14937 18700,15005 18666,15404 17869,15336 17886,15136 Z"/>
         </g>
        </g>
       </g>
      </g>
     </g>
    </g>
   </g>
  </g>
 </g>
</svg>