<?xml version="1.0" encoding="UTF-8"?>
<!DOCTYPE svg PUBLIC "-//W3C//DTD SVG 1.1//EN" "http://www.w3.org/Graphics/SVG/1.1/DTD/svg11.dtd">
<svg version="1.2" width="297mm" height="210mm" viewBox="0 0 29700 21000" preserveAspectRatio="xMidYMid" fill-rule="evenodd" stroke-width="28.222" stroke-linejoin="round" xmlns="http://www.w3.org/2000/svg" xmlns:ooo="http://xml.openoffice.org/svg/export" xmlns:xlink="http://www.w3.org/1999/xlink" xmlns:presentation="http://sun.com/xmlns/staroffice/presentation" xmlns:smil="http://www.w3.org/2001/SMIL20/" xmlns:anim="urn:oasis:names:tc:opendocument:xmlns:animation:1.0" xml:space="preserve">
 <defs class="ClipPathGroup">
  <clipPath id="presentation_clip_path" clipPathUnits="userSpaceOnUse">
   <rect x="0" y="0" width="29700" height="21000"/>
  </clipPath>
  <clipPath id="presentation_clip_path_shrink" clipPathUnits="userSpaceOnUse">
   <rect x="29" y="21" width="29641" height="20958"/>
  </clipPath>
 </defs>
 <defs class="TextShapeIndex">
  <g ooo:slide="id1" ooo:id-list="id3 id4 id5 id6 id7 id8 id9 id10 id11 id12 id13 id14 id15 id16 id17 id18 id19"/>
 </defs>
 <defs class="EmbeddedBulletChars">
  <g id="bullet-char-template-57356" transform="scale(0.00048828125,-0.00048828125)">
   <path d="M 580,1141 L 1163,571 580,0 -4,571 580,1141 Z"/>
  </g>
  <g id="bullet-char-template-57354" transform="scale(0.00048828125,-0.00048828125)">
   <path d="M 8,1128 L 1137,1128 1137,0 8,0 8,1128 Z"/>
  </g>
  <g id="bullet-char-template-10146" transform="scale(0.00048828125,-0.00048828125)">
   <path d="M 174,0 L 602,739 174,1481 1456,739 174,0 Z M 1358,739 L 309,1346 659,739 1358,739 Z"/>
  </g>
  <g id="bullet-char-template-10132" transform="scale(0.00048828125,-0.00048828125)">
   <path d="M 2015,739 L 1276,0 717,0 1260,543 174,543 174,936 1260,936 717,1481 1274,1481 2015,739 Z"/>
  </g>
  <g id="bullet-char-template-10007" transform="scale(0.00048828125,-0.00048828125)">
   <path d="M 0,-2 C -7,14 -16,27 -25,37 L 356,567 C 262,823 215,952 215,954 215,979 228,992 255,992 264,992 276,990 289,987 310,991 331,999 354,1012 L 381,999 492,748 772,1049 836,1024 860,1049 C 881,1039 901,1025 922,1006 886,937 835,863 770,784 769,783 710,716 594,584 L 774,223 C 774,196 753,168 711,139 L 727,119 C 717,90 699,76 672,76 641,76 570,178 457,381 L 164,-76 C 142,-110 111,-127 72,-127 30,-127 9,-110 8,-76 1,-67 -2,-52 -2,-32 -2,-23 -1,-13 0,-2 Z"/>
  </g>
  <g id="bullet-char-template-10004" transform="scale(0.00048828125,-0.00048828125)">
   <path d="M 285,-33 C 182,-33 111,30 74,156 52,228 41,333 41,471 41,549 55,616 82,672 116,743 169,778 240,778 293,778 328,747 346,684 L 369,508 C 377,444 397,411 428,410 L 1163,1116 C 1174,1127 1196,1133 1229,1133 1271,1133 1292,1118 1292,1087 L 1292,965 C 1292,929 1282,901 1262,881 L 442,47 C 390,-6 338,-33 285,-33 Z"/>
  </g>
  <g id="bullet-char-template-9679" transform="scale(0.00048828125,-0.00048828125)">
   <path d="M 813,0 C 632,0 489,54 383,161 276,268 223,411 223,592 223,773 276,916 383,1023 489,1130 632,1184 813,1184 992,1184 1136,1130 1245,1023 1353,916 1407,772 1407,592 1407,412 1353,268 1245,161 1136,54 992,0 813,0 Z"/>
  </g>
  <g id="bullet-char-template-8226" transform="scale(0.00048828125,-0.00048828125)">
   <path d="M 346,457 C 273,457 209,483 155,535 101,586 74,649 74,723 74,796 101,859 155,911 209,963 273,989 346,989 419,989 480,963 531,910 582,859 608,796 608,723 608,648 583,586 532,535 482,483 420,457 346,457 Z"/>
  </g>
  <g id="bullet-char-template-8211" transform="scale(0.00048828125,-0.00048828125)">
   <path d="M -4,459 L 1135,459 1135,606 -4,606 -4,459 Z"/>
  </g>
  <g id="bullet-char-template-61548" transform="scale(0.00048828125,-0.00048828125)">
   <path d="M 173,740 C 173,903 231,1043 346,1159 462,1274 601,1332 765,1332 928,1332 1067,1274 1183,1159 1299,1043 1357,903 1357,740 1357,577 1299,437 1183,322 1067,206 928,148 765,148 601,148 462,206 346,322 231,437 173,577 173,740 Z"/>
  </g>
 </defs>
 <g>
  <g id="id2" class="Master_Slide">
   <g id="bg-id2" class="Background"/>
   <g id="bo-id2" class="BackgroundObjects"/>
  </g>
 </g>
 <g class="SlideGroup">
  <g>
   <g id="container-id1">
    <g id="id1" class="Slide" clip-path="url(#presentation_clip_path)">
     <g class="Page">
      <g class="Group">
       <g class="Group">
        <g class="Group">
         <g class="com.sun.star.drawing.CustomShape">
          <g id="id3">
           <rect class="BoundingBox" stroke="none" fill="none" x="15563" y="13623" width="2585" height="3064"/>
           <path fill="rgb(255,255,0)" stroke="none" d="M 16410,16377 L 15564,16069 16455,13624 18146,14240 17255,16685 16410,16377 Z"/>
           <path fill="none" stroke="rgb(52,101,164)" d="M 16410,16377 L 15564,16069 16455,13624 18146,14240 17255,16685 16410,16377 Z"/>
          </g>
         </g>
         <g class="com.sun.star.drawing.CustomShape">
          <g id="id4">
           <rect class="BoundingBox" stroke="none" fill="none" x="16701" y="13488" width="1379" height="1988"/>
           <path fill="rgb(0,0,0)" stroke="none" d="M 17217,14581 L 16702,13689 17048,13489 18078,15274 17732,15474 17217,14581 Z"/>
           <path fill="none" stroke="rgb(52,101,164)" d="M 17217,14581 L 16702,13689 17048,13489 18078,15274 17732,15474 17217,14581 Z"/>
          </g>
         </g>
         <g class="com.sun.star.drawing.CustomShape">
          <g id="id5">
           <rect class="BoundingBox" stroke="none" fill="none" x="16454" y="13249" width="1831" height="995"/>
           <path fill="rgb(255,255,255)" stroke="none" d="M 17301,13934 L 16455,13626 16592,13250 18283,13866 18146,14242 17301,13934 Z"/>
           <path fill="none" stroke="rgb(255,255,255)" d="M 17301,13934 L 16455,13626 16592,13250 18283,13866 18146,14242 17301,13934 Z"/>
          </g>
         </g>
        </g>
        <g class="com.sun.star.drawing.CustomShape">
         <g id="id6">
          <rect class="BoundingBox" stroke="none" fill="none" x="15804" y="14491" width="1536" height="2260"/>
          <path fill="rgb(0,0,0)" stroke="none" d="M 16398,15720 L 15805,14692 16151,14492 17338,16549 16992,16749 16398,15720 Z"/>
          <path fill="none" stroke="rgb(52,101,164)" d="M 16398,15720 L 15805,14692 16151,14492 17338,16549 16992,16749 16398,15720 Z"/>
         </g>
        </g>
        <g class="com.sun.star.drawing.CustomShape">
         <g id="id7">
          <rect class="BoundingBox" stroke="none" fill="none" x="15496" y="15880" width="1831" height="995"/>
          <path fill="rgb(255,255,255)" stroke="none" d="M 16343,16565 L 15497,16257 15634,15881 17325,16497 17188,16873 16343,16565 Z"/>
          <path fill="none" stroke="rgb(255,255,255)" d="M 16343,16565 L 15497,16257 15634,15881 17325,16497 17188,16873 16343,16565 Z"/>
         </g>
        </g>
        <g class="com.sun.star.drawing.CustomShape">
         <g id="id8">
          <rect class="BoundingBox" stroke="none" fill="none" x="17284" y="14146" width="1273" height="2581"/>
          <path fill="rgb(255,255,255)" stroke="none" d="M 18107,15505 L 17659,16725 17285,16588 18181,14147 18555,14284 18107,15505 Z"/>
          <path fill="none" stroke="rgb(255,255,255)" d="M 18107,15505 L 17659,16725 17285,16588 18181,14147 18555,14284 18107,15505 Z"/>
         </g>
        </g>
        <g class="com.sun.star.drawing.CustomShape">
         <g id="id9">
          <rect class="BoundingBox" stroke="none" fill="none" x="15216" y="13393" width="1273" height="2581"/>
          <path fill="rgb(255,255,255)" stroke="none" d="M 16039,14752 L 15591,15972 15217,15835 16113,13394 16487,13531 16039,14752 Z"/>
          <path fill="none" stroke="rgb(255,255,255)" d="M 16039,14752 L 15591,15972 15217,15835 16113,13394 16487,13531 16039,14752 Z"/>
         </g>
        </g>
       </g>
       <g class="Group">
        <g class="Group">
         <g class="com.sun.star.drawing.CustomShape">
          <g id="id10">
           <rect class="BoundingBox" stroke="none" fill="none" x="4584" y="10331" width="13374" height="5247"/>
           <path fill="rgb(17,17,17)" stroke="none" d="M 4654,10520 L 4723,10332 17956,15201 17818,15576 4585,10708 4654,10520 Z"/>
           <path fill="none" stroke="rgb(52,101,164)" d="M 4654,10520 L 4723,10332 17956,15201 17818,15576 4585,10708 4654,10520 Z"/>
          </g>
         </g>
         <g class="com.sun.star.drawing.CustomShape">
          <g id="id11">
           <rect class="BoundingBox" stroke="none" fill="none" x="11526" y="12894" width="1080" height="723"/>
           <path fill="rgb(248,248,0)" stroke="none" d="M 11596,13082 L 11666,12895 12604,13240 12466,13615 11527,13270 11596,13082 Z"/>
           <path fill="none" stroke="rgb(52,101,164)" d="M 11596,13082 L 11666,12895 12604,13240 12466,13615 11527,13270 11596,13082 Z"/>
          </g>
         </g>
         <g class="com.sun.star.drawing.CustomShape">
          <g id="id12">
           <rect class="BoundingBox" stroke="none" fill="none" x="11526" y="12894" width="1080" height="723"/>
           <path fill="rgb(248,248,0)" stroke="none" d="M 11596,13082 L 11666,12895 12604,13240 12466,13615 11527,13270 11596,13082 Z"/>
           <path fill="none" stroke="rgb(52,101,164)" d="M 11596,13082 L 11666,12895 12604,13240 12466,13615 11527,13270 11596,13082 Z"/>
          </g>
         </g>
         <g class="com.sun.star.drawing.CustomShape">
          <g id="id13">
           <rect class="BoundingBox" stroke="none" fill="none" x="7865" y="11549" width="1080" height="723"/>
           <path fill="rgb(248,248,0)" stroke="none" d="M 7935,11737 L 8005,11550 8943,11895 8805,12270 7866,11925 7935,11737 Z"/>
           <path fill="none" stroke="rgb(52,101,164)" d="M 7935,11737 L 8005,11550 8943,11895 8805,12270 7866,11925 7935,11737 Z"/>
          </g>
         </g>
         <g class="com.sun.star.drawing.CustomShape">
          <g id="id14">
           <rect class="BoundingBox" stroke="none" fill="none" x="9742" y="12239" width="1080" height="723"/>
           <path fill="rgb(248,248,0)" stroke="none" d="M 9812,12427 L 9882,12240 10820,12585 10682,12960 9743,12615 9812,12427 Z"/>
           <path fill="none" stroke="rgb(52,101,164)" d="M 9812,12427 L 9882,12240 10820,12585 10682,12960 9743,12615 9812,12427 Z"/>
          </g>
         </g>
         <g class="com.sun.star.drawing.CustomShape">
          <g id="id15">
           <rect class="BoundingBox" stroke="none" fill="none" x="15280" y="14274" width="1080" height="723"/>
           <path fill="rgb(248,248,0)" stroke="none" d="M 15350,14462 L 15420,14275 16358,14620 16220,14995 15281,14650 15350,14462 Z"/>
           <path fill="none" stroke="rgb(52,101,164)" d="M 15350,14462 L 15420,14275 16358,14620 16220,14995 15281,14650 15350,14462 Z"/>
          </g>
         </g>
         <g class="com.sun.star.drawing.CustomShape">
          <g id="id16">
           <rect class="BoundingBox" stroke="none" fill="none" x="13403" y="13584" width="1080" height="723"/>
           <path fill="rgb(248,248,0)" stroke="none" d="M 13473,13772 L 13543,13585 14481,13930 14343,14305 13404,13960 13473,13772 Z"/>
           <path fill="none" stroke="rgb(52,101,164)" d="M 13473,13772 L 13543,13585 14481,13930 14343,14305 13404,13960 13473,13772 Z"/>
          </g>
         </g>
         <g class="com.sun.star.drawing.CustomShape">
          <g id="id17">
           <rect class="BoundingBox" stroke="none" fill="none" x="5894" y="10825" width="1080" height="723"/>
           <path fill="rgb(248,248,0)" stroke="none" d="M 5964,11013 L 6034,10826 6972,11171 6834,11546 5895,11201 5964,11013 Z"/>
           <path fill="none" stroke="rgb(52,101,164)" d="M 5964,11013 L 6034,10826 6972,11171 6834,11546 5895,11201 5964,11013 Z"/>
          </g>
         </g>
        </g>
        <g class="com.sun.star.drawing.CustomShape">
         <g id="id18">
          <rect class="BoundingBox" stroke="none" fill="none" x="15234" y="14254" width="893" height="652"/>
          <path fill="rgb(248,248,0)" stroke="none" d="M 15303,14443 L 15371,14255 16125,14528 15989,14904 15235,14631 15303,14443 Z"/>
          <path fill="none" stroke="rgb(52,101,164)" d="M 15303,14443 L 15371,14255 16125,14528 15989,14904 15235,14631 15303,14443 Z"/>
         </g>
        </g>
        <g class="com.sun.star.drawing.CustomShape">
         <g id="id19">
          <rect class="BoundingBox" stroke="none" fill="none" x="17670" y="15140" width="893" height="652"/>
          <path fill="rgb(248,248,0)" stroke="none" d="M 17739,15329 L 17807,15141 18561,15414 18425,15790 17671,15517 17739,15329 Z"/>
          <path fill="none" stroke="rgb(52,101,164)" d="M 17739,15329 L 17807,15141 18561,15414 18425,15790 17671,15517 17739,15329 Z"/>
         </g>
        </g>
       </g>
      </g>
     </g>
    </g>
   </g>
  </g>
 </g>
</svg>