<?xml version="1.0" encoding="UTF-8"?>
<!DOCTYPE svg PUBLIC "-//W3C//DTD SVG 1.1//EN" "http://www.w3.org/Graphics/SVG/1.1/DTD/svg11.dtd">
<svg version="1.2" width="297mm" height="210mm" viewBox="0 0 29700 21000" preserveAspectRatio="xMidYMid" fill-rule="evenodd" stroke-width="28.222" stroke-linejoin="round" xmlns="http://www.w3.org/2000/svg" xmlns:ooo="http://xml.openoffice.org/svg/export" xmlns:xlink="http://www.w3.org/1999/xlink" xmlns:presentation="http://sun.com/xmlns/staroffice/presentation" xmlns:smil="http://www.w3.org/2001/SMIL20/" xmlns:anim="urn:oasis:names:tc:opendocument:xmlns:animation:1.0" xml:space="preserve">
 <defs class="ClipPathGroup">
  <clipPath id="presentation_clip_path" clipPathUnits="userSpaceOnUse">
   <rect x="0" y="0" width="29700" height="21000"/>
  </clipPath>
  <clipPath id="presentation_clip_path_shrink" clipPathUnits="userSpaceOnUse">
   <rect x="29" y="21" width="29641" height="20958"/>
  </clipPath>
 </defs>
 <defs class="TextShapeIndex">
  <g ooo:slide="id1" ooo:id-list="id3 id4 id5 id6 id7 id8 id9 id10 id11 id12 id13 id14 id15 id16 id17 id18 id19"/>
 </defs>
 <defs class="EmbeddedBulletChars">
  <g id="bullet-char-template-57356" transform="scale(0.00048828125,-0.00048828125)">
   <path d="M 580,1141 L 1163,571 580,0 -4,571 580,1141 Z"/>
  </g>
  <g id="bullet-char-template-57354" transform="scale(0.00048828125,-0.00048828125)">
   <path d="M 8,1128 L 1137,1128 1137,0 8,0 8,1128 Z"/>
  </g>
  <g id="bullet-char-template-10146" transform="scale(0.00048828125,-0.00048828125)">
   <path d="M 174,0 L 602,739 174,1481 1456,739 174,0 Z M 1358,739 L 309,1346 659,739 1358,739 Z"/>
  </g>
  <g id="bullet-char-template-10132" transform="scale(0.00048828125,-0.00048828125)">
   <path d="M 2015,739 L 1276,0 717,0 1260,543 174,543 174,936 1260,936 717,1481 1274,1481 2015,739 Z"/>
  </g>
  <g id="bullet-char-template-10007" transform="scale(0.00048828125,-0.00048828125)">
   <path d="M 0,-2 C -7,14 -16,27 -25,37 L 356,567 C 262,823 215,952 215,954 215,979 228,992 255,992 264,992 276,990 289,987 310,991 331,999 354,1012 L 381,999 492,748 772,1049 836,1024 860,1049 C 881,1039 901,1025 922,1006 886,937 835,863 770,784 769,783 710,716 594,584 L 774,223 C 774,196 753,168 711,139 L 727,119 C 717,90 699,76 672,76 641,76 570,178 457,381 L 164,-76 C 142,-110 111,-127 72,-127 30,-127 9,-110 8,-76 1,-67 -2,-52 -2,-32 -2,-23 -1,-13 0,-2 Z"/>
  </g>
  <g id="bullet-char-template-10004" transform="scale(0.00048828125,-0.00048828125)">
   <path d="M 285,-33 C 182,-33 111,30 74,156 52,228 41,333 41,471 41,549 55,616 82,672 116,743 169,778 240,778 293,778 328,747 346,684 L 369,508 C 377,444 397,411 428,410 L 1163,1116 C 1174,1127 1196,1133 1229,1133 1271,1133 1292,1118 1292,1087 L 1292,965 C 1292,929 1282,901 1262,881 L 442,47 C 390,-6 338,-33 285,-33 Z"/>
  </g>
  <g id="bullet-char-template-9679" transform="scale(0.00048828125,-0.00048828125)">
   <path d="M 813,0 C 632,0 489,54 383,161 276,268 223,411 223,592 223,773 276,916 383,1023 489,1130 632,1184 813,1184 992,1184 1136,1130 1245,1023 1353,916 1407,772 1407,592 1407,412 1353,268 1245,161 1136,54 992,0 813,0 Z"/>
  </g>
  <g id="bullet-char-template-8226" transform="scale(0.00048828125,-0.00048828125)">
   <path d="M 346,457 C 273,457 209,483 155,535 101,586 74,649 74,723 74,796 101,859 155,911 209,963 273,989 346,989 419,989 480,963 531,910 582,859 608,796 608,723 608,648 583,586 532,535 482,483 420,457 346,457 Z"/>
  </g>
  <g id="bullet-char-template-8211" transform="scale(0.00048828125,-0.00048828125)">
   <path d="M -4,459 L 1135,459 1135,606 -4,606 -4,459 Z"/>
  </g>
  <g id="bullet-char-template-61548" transform="scale(0.00048828125,-0.00048828125)">
   <path d="M 173,740 C 173,903 231,1043 346,1159 462,1274 601,1332 765,1332 928,1332 1067,1274 1183,1159 1299,1043 1357,903 1357,740 1357,577 1299,437 1183,322 1067,206 928,148 765,148 601,148 462,206 346,322 231,437 173,577 173,740 Z"/>
  </g>
 </defs>
 <g>
  <g id="id2" class="Master_Slide">
   <g id="bg-id2" class="Background"/>
   <g id="bo-id2" class="BackgroundObjects"/>
  </g>
 </g>
 <g class="SlideGroup">
  <g>
   <g id="container-id1">
    <g id="id1" class="Slide" clip-path="url(#presentation_clip_path)">
     <g class="Page">
      <g class="Group">
       <g class="Group">
        <g class="Group">
         <g class="com.sun.star.drawing.CustomShape">
          <g id="id3">
           <rect class="BoundingBox" stroke="none" fill="none" x="8794" y="13591" width="2733" height="3120"/>
           <path fill="rgb(255,255,0)" stroke="none" d="M 10709,16329 L 9894,16709 8795,14353 10426,13592 11525,15949 10709,16329 Z"/>
           <path fill="none" stroke="rgb(52,101,164)" d="M 10709,16329 L 9894,16709 8795,14353 10426,13592 11525,15949 10709,16329 Z"/>
          </g>
         </g>
         <g class="com.sun.star.drawing.CustomShape">
          <g id="id4">
           <rect class="BoundingBox" stroke="none" fill="none" x="8951" y="13508" width="1236" height="2040"/>
           <path fill="rgb(0,0,0)" stroke="none" d="M 9750,14612 L 9315,15546 8952,15377 9822,13509 10185,13678 9750,14612 Z"/>
           <path fill="none" stroke="rgb(52,101,164)" d="M 9750,14612 L 9315,15546 8952,15377 9822,13509 10185,13678 9750,14612 Z"/>
          </g>
         </g>
         <g class="com.sun.star.drawing.CustomShape">
          <g id="id5">
           <rect class="BoundingBox" stroke="none" fill="none" x="8625" y="13229" width="1803" height="1127"/>
           <path fill="rgb(255,255,255)" stroke="none" d="M 9611,13973 L 8795,14354 8626,13991 10257,13230 10426,13593 9611,13973 Z"/>
           <path fill="none" stroke="rgb(255,255,255)" d="M 9611,13973 L 8795,14354 8626,13991 10257,13230 10426,13593 9611,13973 Z"/>
          </g>
         </g>
        </g>
        <g class="com.sun.star.drawing.CustomShape">
         <g id="id6">
          <rect class="BoundingBox" stroke="none" fill="none" x="9800" y="14428" width="1369" height="2325"/>
          <path fill="rgb(0,0,0)" stroke="none" d="M 10665,15675 L 10164,16751 9801,16582 10804,14429 11167,14598 10665,15675 Z"/>
          <path fill="none" stroke="rgb(52,101,164)" d="M 10665,15675 L 10164,16751 9801,16582 10804,14429 11167,14598 10665,15675 Z"/>
         </g>
        </g>
        <g class="com.sun.star.drawing.CustomShape">
         <g id="id7">
          <rect class="BoundingBox" stroke="none" fill="none" x="9808" y="15767" width="1803" height="1127"/>
          <path fill="rgb(255,255,255)" stroke="none" d="M 10794,16511 L 9978,16892 9809,16529 11440,15768 11609,16131 10794,16511 Z"/>
          <path fill="none" stroke="rgb(255,255,255)" d="M 10794,16511 L 9978,16892 9809,16529 11440,15768 11609,16131 10794,16511 Z"/>
         </g>
        </g>
        <g class="com.sun.star.drawing.CustomShape">
         <g id="id8">
          <rect class="BoundingBox" stroke="none" fill="none" x="8389" y="14260" width="1471" height="2526"/>
          <path fill="rgb(255,255,255)" stroke="none" d="M 8943,15608 L 8390,14431 8752,14261 9858,16614 9496,16784 8943,15608 Z"/>
          <path fill="none" stroke="rgb(255,255,255)" d="M 8943,15608 L 8390,14431 8752,14261 9858,16614 9496,16784 8943,15608 Z"/>
         </g>
        </g>
        <g class="com.sun.star.drawing.CustomShape">
         <g id="id9">
          <rect class="BoundingBox" stroke="none" fill="none" x="10383" y="13330" width="1471" height="2526"/>
          <path fill="rgb(255,255,255)" stroke="none" d="M 10937,14678 L 10384,13501 10746,13331 11852,15684 11490,15854 10937,14678 Z"/>
          <path fill="none" stroke="rgb(255,255,255)" d="M 10937,14678 L 10384,13501 10746,13331 11852,15684 11490,15854 10937,14678 Z"/>
         </g>
        </g>
       </g>
       <g class="Group">
        <g class="Group">
         <g class="com.sun.star.drawing.CustomShape">
          <g id="id10">
           <rect class="BoundingBox" stroke="none" fill="none" x="9067" y="9299" width="12935" height="6360"/>
           <path fill="rgb(17,17,17)" stroke="none" d="M 21915,9481 L 22000,9662 9238,15657 9068,15295 21830,9300 21915,9481 Z"/>
           <path fill="none" stroke="rgb(52,101,164)" d="M 21915,9481 L 22000,9662 9238,15657 9068,15295 21830,9300 21915,9481 Z"/>
          </g>
         </g>
         <g class="com.sun.star.drawing.CustomShape">
          <g id="id11">
           <rect class="BoundingBox" stroke="none" fill="none" x="14226" y="12447" width="1078" height="790"/>
           <path fill="rgb(248,248,0)" stroke="none" d="M 15217,12629 L 15302,12810 14397,13235 14227,12873 15132,12448 15217,12629 Z"/>
           <path fill="none" stroke="rgb(52,101,164)" d="M 15217,12629 L 15302,12810 14397,13235 14227,12873 15132,12448 15217,12629 Z"/>
          </g>
         </g>
         <g class="com.sun.star.drawing.CustomShape">
          <g id="id12">
           <rect class="BoundingBox" stroke="none" fill="none" x="14226" y="12447" width="1078" height="790"/>
           <path fill="rgb(248,248,0)" stroke="none" d="M 15217,12629 L 15302,12810 14397,13235 14227,12873 15132,12448 15217,12629 Z"/>
           <path fill="none" stroke="rgb(52,101,164)" d="M 15217,12629 L 15302,12810 14397,13235 14227,12873 15132,12448 15217,12629 Z"/>
          </g>
         </g>
         <g class="com.sun.star.drawing.CustomShape">
          <g id="id13">
           <rect class="BoundingBox" stroke="none" fill="none" x="17755" y="10788" width="1078" height="790"/>
           <path fill="rgb(248,248,0)" stroke="none" d="M 18746,10970 L 18831,11151 17926,11576 17756,11214 18661,10789 18746,10970 Z"/>
           <path fill="none" stroke="rgb(52,101,164)" d="M 18746,10970 L 18831,11151 17926,11576 17756,11214 18661,10789 18746,10970 Z"/>
          </g>
         </g>
         <g class="com.sun.star.drawing.CustomShape">
          <g id="id14">
           <rect class="BoundingBox" stroke="none" fill="none" x="15945" y="11638" width="1078" height="790"/>
           <path fill="rgb(248,248,0)" stroke="none" d="M 16936,11820 L 17021,12001 16116,12426 15946,12064 16851,11639 16936,11820 Z"/>
           <path fill="none" stroke="rgb(52,101,164)" d="M 16936,11820 L 17021,12001 16116,12426 15946,12064 16851,11639 16936,11820 Z"/>
          </g>
         </g>
         <g class="com.sun.star.drawing.CustomShape">
          <g id="id15">
           <rect class="BoundingBox" stroke="none" fill="none" x="10606" y="14148" width="1078" height="790"/>
           <path fill="rgb(248,248,0)" stroke="none" d="M 11597,14330 L 11682,14511 10777,14936 10607,14574 11512,14149 11597,14330 Z"/>
           <path fill="none" stroke="rgb(52,101,164)" d="M 11597,14330 L 11682,14511 10777,14936 10607,14574 11512,14149 11597,14330 Z"/>
          </g>
         </g>
         <g class="com.sun.star.drawing.CustomShape">
          <g id="id16">
           <rect class="BoundingBox" stroke="none" fill="none" x="12416" y="13297" width="1078" height="790"/>
           <path fill="rgb(248,248,0)" stroke="none" d="M 13407,13479 L 13492,13660 12587,14085 12417,13723 13322,13298 13407,13479 Z"/>
           <path fill="none" stroke="rgb(52,101,164)" d="M 13407,13479 L 13492,13660 12587,14085 12417,13723 13322,13298 13407,13479 Z"/>
          </g>
         </g>
         <g class="com.sun.star.drawing.CustomShape">
          <g id="id17">
           <rect class="BoundingBox" stroke="none" fill="none" x="19656" y="9895" width="1078" height="790"/>
           <path fill="rgb(248,248,0)" stroke="none" d="M 20647,10077 L 20732,10258 19827,10683 19657,10321 20562,9896 20647,10077 Z"/>
           <path fill="none" stroke="rgb(52,101,164)" d="M 20647,10077 L 20732,10258 19827,10683 19657,10321 20562,9896 20647,10077 Z"/>
          </g>
         </g>
        </g>
        <g class="com.sun.star.drawing.CustomShape">
         <g id="id18">
          <rect class="BoundingBox" stroke="none" fill="none" x="10832" y="14125" width="897" height="702"/>
          <path fill="rgb(248,248,0)" stroke="none" d="M 11643,14308 L 11727,14489 11001,14825 10833,14462 11559,14126 11643,14308 Z"/>
          <path fill="none" stroke="rgb(52,101,164)" d="M 11643,14308 L 11727,14489 11001,14825 10833,14462 11559,14126 11643,14308 Z"/>
         </g>
        </g>
        <g class="com.sun.star.drawing.CustomShape">
         <g id="id19">
          <rect class="BoundingBox" stroke="none" fill="none" x="8483" y="15221" width="897" height="702"/>
          <path fill="rgb(248,248,0)" stroke="none" d="M 9294,15404 L 9378,15585 8652,15921 8484,15558 9210,15222 9294,15404 Z"/>
          <path fill="none" stroke="rgb(52,101,164)" d="M 9294,15404 L 9378,15585 8652,15921 8484,15558 9210,15222 9294,15404 Z"/>
         </g>
        </g>
       </g>
      </g>
     </g>
    </g>
   </g>
  </g>
 </g>
</svg>