<?xml version="1.0" encoding="UTF-8"?>
<!DOCTYPE svg PUBLIC "-//W3C//DTD SVG 1.1//EN" "http://www.w3.org/Graphics/SVG/1.1/DTD/svg11.dtd">
<svg version="1.2" width="297mm" height="210mm" viewBox="0 0 29700 21000" preserveAspectRatio="xMidYMid" fill-rule="evenodd" stroke-width="28.222" stroke-linejoin="round" xmlns="http://www.w3.org/2000/svg" xmlns:ooo="http://xml.openoffice.org/svg/export" xmlns:xlink="http://www.w3.org/1999/xlink" xmlns:presentation="http://sun.com/xmlns/staroffice/presentation" xmlns:smil="http://www.w3.org/2001/SMIL20/" xmlns:anim="urn:oasis:names:tc:opendocument:xmlns:animation:1.0" xml:space="preserve">
 <defs class="ClipPathGroup">
  <clipPath id="presentation_clip_path" clipPathUnits="userSpaceOnUse">
   <rect x="0" y="0" width="29700" height="21000"/>
  </clipPath>
  <clipPath id="presentation_clip_path_shrink" clipPathUnits="userSpaceOnUse">
   <rect x="29" y="21" width="29641" height="20958"/>
  </clipPath>
 </defs>
 <defs class="TextShapeIndex">
  <g ooo:slide="id1" ooo:id-list="id3 id4 id5 id6 id7 id8 id9 id10 id11 id12 id13 id14 id15 id16 id17 id18 id19"/>
 </defs>
 <defs class="EmbeddedBulletChars">
  <g id="bullet-char-template-57356" transform="scale(0.00048828125,-0.00048828125)">
   <path d="M 580,1141 L 1163,571 580,0 -4,571 580,1141 Z"/>
  </g>
  <g id="bullet-char-template-57354" transform="scale(0.00048828125,-0.00048828125)">
   <path d="M 8,1128 L 1137,1128 1137,0 8,0 8,1128 Z"/>
  </g>
  <g id="bullet-char-template-10146" transform="scale(0.00048828125,-0.00048828125)">
   <path d="M 174,0 L 602,739 174,1481 1456,739 174,0 Z M 1358,739 L 309,1346 659,739 1358,739 Z"/>
  </g>
  <g id="bullet-char-template-10132" transform="scale(0.00048828125,-0.00048828125)">
   <path d="M 2015,739 L 1276,0 717,0 1260,543 174,543 174,936 1260,936 717,1481 1274,1481 2015,739 Z"/>
  </g>
  <g id="bullet-char-template-10007" transform="scale(0.00048828125,-0.00048828125)">
   <path d="M 0,-2 C -7,14 -16,27 -25,37 L 356,567 C 262,823 215,952 215,954 215,979 228,992 255,992 264,992 276,990 289,987 310,991 331,999 354,1012 L 381,999 492,748 772,1049 836,1024 860,1049 C 881,1039 901,1025 922,1006 886,937 835,863 770,784 769,783 710,716 594,584 L 774,223 C 774,196 753,168 711,139 L 727,119 C 717,90 699,76 672,76 641,76 570,178 457,381 L 164,-76 C 142,-110 111,-127 72,-127 30,-127 9,-110 8,-76 1,-67 -2,-52 -2,-32 -2,-23 -1,-13 0,-2 Z"/>
  </g>
  <g id="bullet-char-template-10004" transform="scale(0.00048828125,-0.00048828125)">
   <path d="M 285,-33 C 182,-33 111,30 74,156 52,228 41,333 41,471 41,549 55,616 82,672 116,743 169,778 240,778 293,778 328,747 346,684 L 369,508 C 377,444 397,411 428,410 L 1163,1116 C 1174,1127 1196,1133 1229,1133 1271,1133 1292,1118 1292,1087 L 1292,965 C 1292,929 1282,901 1262,881 L 442,47 C 390,-6 338,-33 285,-33 Z"/>
  </g>
  <g id="bullet-char-template-9679" transform="scale(0.00048828125,-0.00048828125)">
   <path d="M 813,0 C 632,0 489,54 383,161 276,268 223,411 223,592 223,773 276,916 383,1023 489,1130 632,1184 813,1184 992,1184 1136,1130 1245,1023 1353,916 1407,772 1407,592 1407,412 1353,268 1245,161 1136,54 992,0 813,0 Z"/>
  </g>
  <g id="bullet-char-template-8226" transform="scale(0.00048828125,-0.00048828125)">
   <path d="M 346,457 C 273,457 209,483 155,535 101,586 74,649 74,723 74,796 101,859 155,911 209,963 273,989 346,989 419,989 480,963 531,910 582,859 608,796 608,723 608,648 583,586 532,535 482,483 420,457 346,457 Z"/>
  </g>
  <g id="bullet-char-template-8211" transform="scale(0.00048828125,-0.00048828125)">
   <path d="M -4,459 L 1135,459 1135,606 -4,606 -4,459 Z"/>
  </g>
  <g id="bullet-char-template-61548" transform="scale(0.00048828125,-0.00048828125)">
   <path d="M 173,740 C 173,903 231,1043 346,1159 462,1274 601,1332 765,1332 928,1332 1067,1274 1183,1159 1299,1043 1357,903 1357,740 1357,577 1299,437 1183,322 1067,206 928,148 765,148 601,148 462,206 346,322 231,437 173,577 173,740 Z"/>
  </g>
 </defs>
 <g>
  <g id="id2" class="Master_Slide">
   <g id="bg-id2" class="Background"/>
   <g id="bo-id2" class="BackgroundObjects"/>
  </g>
 </g>
 <g class="SlideGroup">
  <g>
   <g id="container-id1">
    <g id="id1" class="Slide" clip-path="url(#presentation_clip_path)">
     <g class="Page">
      <g class="Group">
       <g class="Group">
        <g class="Group">
         <g class="com.sun.star.drawing.CustomShape">
          <g id="id3">
           <rect class="BoundingBox" stroke="none" fill="none" x="8818" y="13650" width="2584" height="3062"/>
           <path fill="rgb(255,255,0)" stroke="none" d="M 10554,16402 L 9708,16710 8819,14267 10510,13651 11400,16095 10554,16402 Z"/>
           <path fill="none" stroke="rgb(52,101,164)" d="M 10554,16402 L 9708,16710 8819,14267 10510,13651 11400,16095 10554,16402 Z"/>
          </g>
         </g>
         <g class="com.sun.star.drawing.CustomShape">
          <g id="id4">
           <rect class="BoundingBox" stroke="none" fill="none" x="8886" y="13515" width="1379" height="1988"/>
           <path fill="rgb(0,0,0)" stroke="none" d="M 9748,14608 L 9233,15501 8887,15301 9917,13516 10263,13716 9748,14608 Z"/>
           <path fill="none" stroke="rgb(52,101,164)" d="M 9748,14608 L 9233,15501 8887,15301 9917,13516 10263,13716 9748,14608 Z"/>
          </g>
         </g>
         <g class="com.sun.star.drawing.CustomShape">
          <g id="id5">
           <rect class="BoundingBox" stroke="none" fill="none" x="8681" y="13276" width="1831" height="995"/>
           <path fill="rgb(255,255,255)" stroke="none" d="M 9665,13961 L 8819,14269 8682,13893 10373,13277 10510,13653 9665,13961 Z"/>
           <path fill="none" stroke="rgb(255,255,255)" d="M 9665,13961 L 8819,14269 8682,13893 10373,13277 10510,13653 9665,13961 Z"/>
          </g>
         </g>
        </g>
        <g class="com.sun.star.drawing.CustomShape">
         <g id="id6">
          <rect class="BoundingBox" stroke="none" fill="none" x="9625" y="14518" width="1536" height="2260"/>
          <path fill="rgb(0,0,0)" stroke="none" d="M 10566,15747 L 9972,16776 9626,16576 10813,14519 11159,14719 10566,15747 Z"/>
          <path fill="none" stroke="rgb(52,101,164)" d="M 10566,15747 L 9972,16776 9626,16576 10813,14519 11159,14719 10566,15747 Z"/>
         </g>
        </g>
        <g class="com.sun.star.drawing.CustomShape">
         <g id="id7">
          <rect class="BoundingBox" stroke="none" fill="none" x="9639" y="15907" width="1831" height="995"/>
          <path fill="rgb(255,255,255)" stroke="none" d="M 10623,16592 L 9777,16900 9640,16524 11331,15908 11468,16284 10623,16592 Z"/>
          <path fill="none" stroke="rgb(255,255,255)" d="M 10623,16592 L 9777,16900 9640,16524 11331,15908 11468,16284 10623,16592 Z"/>
         </g>
        </g>
        <g class="com.sun.star.drawing.CustomShape">
         <g id="id8">
          <rect class="BoundingBox" stroke="none" fill="none" x="8407" y="14173" width="1274" height="2581"/>
          <path fill="rgb(255,255,255)" stroke="none" d="M 8856,15532 L 8408,14312 8783,14174 9679,16615 9304,16752 8856,15532 Z"/>
          <path fill="none" stroke="rgb(255,255,255)" d="M 8856,15532 L 8408,14312 8783,14174 9679,16615 9304,16752 8856,15532 Z"/>
         </g>
        </g>
        <g class="com.sun.star.drawing.CustomShape">
         <g id="id9">
          <rect class="BoundingBox" stroke="none" fill="none" x="10475" y="13420" width="1274" height="2581"/>
          <path fill="rgb(255,255,255)" stroke="none" d="M 10924,14779 L 10476,13559 10851,13421 11747,15862 11372,15999 10924,14779 Z"/>
          <path fill="none" stroke="rgb(255,255,255)" d="M 10924,14779 L 10476,13559 10851,13421 11747,15862 11372,15999 10924,14779 Z"/>
         </g>
        </g>
       </g>
       <g class="Group">
        <g class="Group">
         <g class="com.sun.star.drawing.CustomShape">
          <g id="id10">
           <rect class="BoundingBox" stroke="none" fill="none" x="9008" y="10370" width="13377" height="5238"/>
           <path fill="rgb(17,17,17)" stroke="none" d="M 22314,10559 L 22383,10747 9147,15606 9009,15231 22245,10371 22314,10559 Z"/>
           <path fill="none" stroke="rgb(52,101,164)" d="M 22314,10559 L 22383,10747 9147,15606 9009,15231 22245,10371 22314,10559 Z"/>
          </g>
         </g>
         <g class="com.sun.star.drawing.CustomShape">
          <g id="id11">
           <rect class="BoundingBox" stroke="none" fill="none" x="14359" y="12921" width="1080" height="723"/>
           <path fill="rgb(248,248,0)" stroke="none" d="M 15368,13110 L 15437,13297 14498,13642 14360,13267 15299,12922 15368,13110 Z"/>
           <path fill="none" stroke="rgb(52,101,164)" d="M 15368,13110 L 15437,13297 14498,13642 14360,13267 15299,12922 15368,13110 Z"/>
          </g>
         </g>
         <g class="com.sun.star.drawing.CustomShape">
          <g id="id12">
           <rect class="BoundingBox" stroke="none" fill="none" x="14359" y="12921" width="1080" height="723"/>
           <path fill="rgb(248,248,0)" stroke="none" d="M 15368,13110 L 15437,13297 14498,13642 14360,13267 15299,12922 15368,13110 Z"/>
           <path fill="none" stroke="rgb(52,101,164)" d="M 15368,13110 L 15437,13297 14498,13642 14360,13267 15299,12922 15368,13110 Z"/>
          </g>
         </g>
         <g class="com.sun.star.drawing.CustomShape">
          <g id="id13">
           <rect class="BoundingBox" stroke="none" fill="none" x="18020" y="11576" width="1080" height="723"/>
           <path fill="rgb(248,248,0)" stroke="none" d="M 19029,11765 L 19098,11952 18159,12297 18021,11922 18960,11577 19029,11765 Z"/>
           <path fill="none" stroke="rgb(52,101,164)" d="M 19029,11765 L 19098,11952 18159,12297 18021,11922 18960,11577 19029,11765 Z"/>
          </g>
         </g>
         <g class="com.sun.star.drawing.CustomShape">
          <g id="id14">
           <rect class="BoundingBox" stroke="none" fill="none" x="16143" y="12266" width="1080" height="723"/>
           <path fill="rgb(248,248,0)" stroke="none" d="M 17152,12455 L 17221,12642 16282,12987 16144,12612 17083,12267 17152,12455 Z"/>
           <path fill="none" stroke="rgb(52,101,164)" d="M 17152,12455 L 17221,12642 16282,12987 16144,12612 17083,12267 17152,12455 Z"/>
          </g>
         </g>
         <g class="com.sun.star.drawing.CustomShape">
          <g id="id15">
           <rect class="BoundingBox" stroke="none" fill="none" x="10605" y="14301" width="1080" height="723"/>
           <path fill="rgb(248,248,0)" stroke="none" d="M 11614,14490 L 11683,14677 10744,15022 10606,14647 11545,14302 11614,14490 Z"/>
           <path fill="none" stroke="rgb(52,101,164)" d="M 11614,14490 L 11683,14677 10744,15022 10606,14647 11545,14302 11614,14490 Z"/>
          </g>
         </g>
         <g class="com.sun.star.drawing.CustomShape">
          <g id="id16">
           <rect class="BoundingBox" stroke="none" fill="none" x="12482" y="13611" width="1080" height="723"/>
           <path fill="rgb(248,248,0)" stroke="none" d="M 13491,13800 L 13560,13987 12621,14332 12483,13957 13422,13612 13491,13800 Z"/>
           <path fill="none" stroke="rgb(52,101,164)" d="M 13491,13800 L 13560,13987 12621,14332 12483,13957 13422,13612 13491,13800 Z"/>
          </g>
         </g>
         <g class="com.sun.star.drawing.CustomShape">
          <g id="id17">
           <rect class="BoundingBox" stroke="none" fill="none" x="19991" y="10852" width="1080" height="723"/>
           <path fill="rgb(248,248,0)" stroke="none" d="M 21000,11041 L 21069,11228 20130,11573 19992,11198 20931,10853 21000,11041 Z"/>
           <path fill="none" stroke="rgb(52,101,164)" d="M 21000,11041 L 21069,11228 20130,11573 19992,11198 20931,10853 21000,11041 Z"/>
          </g>
         </g>
        </g>
        <g class="com.sun.star.drawing.CustomShape">
         <g id="id18">
          <rect class="BoundingBox" stroke="none" fill="none" x="10839" y="14283" width="892" height="651"/>
          <path fill="rgb(248,248,0)" stroke="none" d="M 11661,14472 L 11729,14661 10976,14932 10840,14556 11593,14284 11661,14472 Z"/>
          <path fill="none" stroke="rgb(52,101,164)" d="M 11661,14472 L 11729,14661 10976,14932 10840,14556 11593,14284 11661,14472 Z"/>
         </g>
        </g>
        <g class="com.sun.star.drawing.CustomShape">
         <g id="id19">
          <rect class="BoundingBox" stroke="none" fill="none" x="8403" y="15169" width="892" height="651"/>
          <path fill="rgb(248,248,0)" stroke="none" d="M 9225,15358 L 9293,15547 8540,15818 8404,15442 9157,15170 9225,15358 Z"/>
          <path fill="none" stroke="rgb(52,101,164)" d="M 9225,15358 L 9293,15547 8540,15818 8404,15442 9157,15170 9225,15358 Z"/>
         </g>
        </g>
       </g>
      </g>
     </g>
    </g>
   </g>
  </g>
 </g>
</svg>