<?xml version="1.0" encoding="UTF-8"?>
<!DOCTYPE svg PUBLIC "-//W3C//DTD SVG 1.1//EN" "http://www.w3.org/Graphics/SVG/1.1/DTD/svg11.dtd">
<svg version="1.2" width="297mm" height="210mm" viewBox="0 0 29700 21000" preserveAspectRatio="xMidYMid" fill-rule="evenodd" stroke-width="28.222" stroke-linejoin="round" xmlns="http://www.w3.org/2000/svg" xmlns:ooo="http://xml.openoffice.org/svg/export" xmlns:xlink="http://www.w3.org/1999/xlink" xmlns:presentation="http://sun.com/xmlns/staroffice/presentation" xmlns:smil="http://www.w3.org/2001/SMIL20/" xmlns:anim="urn:oasis:names:tc:opendocument:xmlns:animation:1.0" xml:space="preserve">
 <defs class="ClipPathGroup">
  <clipPath id="presentation_clip_path" clipPathUnits="userSpaceOnUse">
   <rect x="0" y="0" width="29700" height="21000"/>
  </clipPath>
  <clipPath id="presentation_clip_path_shrink" clipPathUnits="userSpaceOnUse">
   <rect x="29" y="21" width="29641" height="20958"/>
  </clipPath>
 </defs>
 <defs class="TextShapeIndex">
  <g ooo:slide="id1" ooo:id-list="id3 id4 id5 id6 id7 id8 id9 id10 id11 id12 id13 id14 id15 id16 id17 id18 id19"/>
 </defs>
 <defs class="EmbeddedBulletChars">
  <g id="bullet-char-template-57356" transform="scale(0.00048828125,-0.00048828125)">
   <path d="M 580,1141 L 1163,571 580,0 -4,571 580,1141 Z"/>
  </g>
  <g id="bullet-char-template-57354" transform="scale(0.00048828125,-0.00048828125)">
   <path d="M 8,1128 L 1137,1128 1137,0 8,0 8,1128 Z"/>
  </g>
  <g id="bullet-char-template-10146" transform="scale(0.00048828125,-0.00048828125)">
   <path d="M 174,0 L 602,739 174,1481 1456,739 174,0 Z M 1358,739 L 309,1346 659,739 1358,739 Z"/>
  </g>
  <g id="bullet-char-template-10132" transform="scale(0.00048828125,-0.00048828125)">
   <path d="M 2015,739 L 1276,0 717,0 1260,543 174,543 174,936 1260,936 717,1481 1274,1481 2015,739 Z"/>
  </g>
  <g id="bullet-char-template-10007" transform="scale(0.00048828125,-0.00048828125)">
   <path d="M 0,-2 C -7,14 -16,27 -25,37 L 356,567 C 262,823 215,952 215,954 215,979 228,992 255,992 264,992 276,990 289,987 310,991 331,999 354,1012 L 381,999 492,748 772,1049 836,1024 860,1049 C 881,1039 901,1025 922,1006 886,937 835,863 770,784 769,783 710,716 594,584 L 774,223 C 774,196 753,168 711,139 L 727,119 C 717,90 699,76 672,76 641,76 570,178 457,381 L 164,-76 C 142,-110 111,-127 72,-127 30,-127 9,-110 8,-76 1,-67 -2,-52 -2,-32 -2,-23 -1,-13 0,-2 Z"/>
  </g>
  <g id="bullet-char-template-10004" transform="scale(0.00048828125,-0.00048828125)">
   <path d="M 285,-33 C 182,-33 111,30 74,156 52,228 41,333 41,471 41,549 55,616 82,672 116,743 169,778 240,778 293,778 328,747 346,684 L 369,508 C 377,444 397,411 428,410 L 1163,1116 C 1174,1127 1196,1133 1229,1133 1271,1133 1292,1118 1292,1087 L 1292,965 C 1292,929 1282,901 1262,881 L 442,47 C 390,-6 338,-33 285,-33 Z"/>
  </g>
  <g id="bullet-char-template-9679" transform="scale(0.00048828125,-0.00048828125)">
   <path d="M 813,0 C 632,0 489,54 383,161 276,268 223,411 223,592 223,773 276,916 383,1023 489,1130 632,1184 813,1184 992,1184 1136,1130 1245,1023 1353,916 1407,772 1407,592 1407,412 1353,268 1245,161 1136,54 992,0 813,0 Z"/>
  </g>
  <g id="bullet-char-template-8226" transform="scale(0.00048828125,-0.00048828125)">
   <path d="M 346,457 C 273,457 209,483 155,535 101,586 74,649 74,723 74,796 101,859 155,911 209,963 273,989 346,989 419,989 480,963 531,910 582,859 608,796 608,723 608,648 583,586 532,535 482,483 420,457 346,457 Z"/>
  </g>
  <g id="bullet-char-template-8211" transform="scale(0.00048828125,-0.00048828125)">
   <path d="M -4,459 L 1135,459 1135,606 -4,606 -4,459 Z"/>
  </g>
  <g id="bullet-char-template-61548" transform="scale(0.00048828125,-0.00048828125)">
   <path d="M 173,740 C 173,903 231,1043 346,1159 462,1274 601,1332 765,1332 928,1332 1067,1274 1183,1159 1299,1043 1357,903 1357,740 1357,577 1299,437 1183,322 1067,206 928,148 765,148 601,148 462,206 346,322 231,437 173,577 173,740 Z"/>
  </g>
 </defs>
 <g>
  <g id="id2" class="Master_Slide">
   <g id="bg-id2" class="Background"/>
   <g id="bo-id2" class="BackgroundObjects"/>
  </g>
 </g>
 <g class="SlideGroup">
  <g>
   <g id="container-id1">
    <g id="id1" class="Slide" clip-path="url(#presentation_clip_path)">
     <g class="Page">
      <g class="Group">
       <g class="Group">
        <g class="Group">
         <g class="com.sun.star.drawing.CustomShape">
          <g id="id3">
           <rect class="BoundingBox" stroke="none" fill="none" x="8649" y="13545" width="2862" height="3155"/>
           <path fill="rgb(255,255,0)" stroke="none" d="M 10729,16248 L 9950,16698 8650,14446 10209,13546 11509,15798 10729,16248 Z"/>
           <path fill="none" stroke="rgb(52,101,164)" d="M 10729,16248 L 9950,16698 8650,14446 10209,13546 11509,15798 10729,16248 Z"/>
          </g>
         </g>
         <g class="com.sun.star.drawing.CustomShape">
          <g id="id4">
           <rect class="BoundingBox" stroke="none" fill="none" x="8895" y="13514" width="1083" height="2077"/>
           <path fill="rgb(0,0,0)" stroke="none" d="M 9624,14620 L 9272,15589 8896,15452 9600,13515 9976,13652 9624,14620 Z"/>
           <path fill="none" stroke="rgb(52,101,164)" d="M 9624,14620 L 9272,15589 8896,15452 9600,13515 9976,13652 9624,14620 Z"/>
          </g>
         </g>
         <g class="com.sun.star.drawing.CustomShape">
          <g id="id5">
           <rect class="BoundingBox" stroke="none" fill="none" x="8449" y="13199" width="1762" height="1249"/>
           <path fill="rgb(255,255,255)" stroke="none" d="M 9429,13996 L 8650,14446 8450,14100 10009,13200 10209,13546 9429,13996 Z"/>
           <path fill="none" stroke="rgb(255,255,255)" d="M 9429,13996 L 8650,14446 8450,14100 10009,13200 10209,13546 9429,13996 Z"/>
          </g>
         </g>
        </g>
        <g class="com.sun.star.drawing.CustomShape">
         <g id="id6">
          <rect class="BoundingBox" stroke="none" fill="none" x="9844" y="14345" width="1190" height="2372"/>
          <path fill="rgb(0,0,0)" stroke="none" d="M 10627,15599 L 10221,16715 9845,16578 10657,14346 11032,14483 10627,15599 Z"/>
          <path fill="none" stroke="rgb(52,101,164)" d="M 10627,15599 L 10221,16715 9845,16578 10657,14346 11032,14483 10627,15599 Z"/>
         </g>
        </g>
        <g class="com.sun.star.drawing.CustomShape">
         <g id="id7">
          <rect class="BoundingBox" stroke="none" fill="none" x="9849" y="15623" width="1762" height="1249"/>
          <path fill="rgb(255,255,255)" stroke="none" d="M 10829,16420 L 10050,16870 9850,16524 11409,15624 11609,15970 10829,16420 Z"/>
          <path fill="none" stroke="rgb(255,255,255)" d="M 10829,16420 L 10050,16870 9850,16524 11409,15624 11609,15970 10829,16420 Z"/>
         </g>
        </g>
        <g class="com.sun.star.drawing.CustomShape">
         <g id="id8">
          <rect class="BoundingBox" stroke="none" fill="none" x="8252" y="14358" width="1656" height="2452"/>
          <path fill="rgb(255,255,255)" stroke="none" d="M 8907,15684 L 8253,14560 8599,14359 9906,16607 9560,16808 8907,15684 Z"/>
          <path fill="none" stroke="rgb(255,255,255)" d="M 8907,15684 L 8253,14560 8599,14359 9906,16607 9560,16808 8907,15684 Z"/>
         </g>
        </g>
        <g class="com.sun.star.drawing.CustomShape">
         <g id="id9">
          <rect class="BoundingBox" stroke="none" fill="none" x="10157" y="13258" width="1656" height="2452"/>
          <path fill="rgb(255,255,255)" stroke="none" d="M 10812,14584 L 10158,13460 10504,13259 11811,15507 11465,15708 10812,14584 Z"/>
          <path fill="none" stroke="rgb(255,255,255)" d="M 10812,14584 L 10158,13460 10504,13259 11811,15507 11465,15708 10812,14584 Z"/>
         </g>
        </g>
       </g>
       <g class="Group">
        <g class="Group">
         <g class="com.sun.star.drawing.CustomShape">
          <g id="id10">
           <rect class="BoundingBox" stroke="none" fill="none" x="9003" y="8276" width="12395" height="7433"/>
           <path fill="rgb(17,17,17)" stroke="none" d="M 21296,8450 L 21396,8623 9205,15707 9004,15361 21195,8277 21296,8450 Z"/>
           <path fill="none" stroke="rgb(52,101,164)" d="M 21296,8450 L 21396,8623 9205,15707 9004,15361 21195,8277 21296,8450 Z"/>
          </g>
         </g>
         <g class="com.sun.star.drawing.CustomShape">
          <g id="id11">
           <rect class="BoundingBox" stroke="none" fill="none" x="13932" y="11994" width="1069" height="851"/>
           <path fill="rgb(248,248,0)" stroke="none" d="M 14898,12168 L 14999,12341 14134,12843 13933,12497 14798,11995 14898,12168 Z"/>
           <path fill="none" stroke="rgb(52,101,164)" d="M 14898,12168 L 14999,12341 14134,12843 13933,12497 14798,11995 14898,12168 Z"/>
          </g>
         </g>
         <g class="com.sun.star.drawing.CustomShape">
          <g id="id12">
           <rect class="BoundingBox" stroke="none" fill="none" x="13932" y="11994" width="1069" height="851"/>
           <path fill="rgb(248,248,0)" stroke="none" d="M 14898,12168 L 14999,12341 14134,12843 13933,12497 14798,11995 14898,12168 Z"/>
           <path fill="none" stroke="rgb(52,101,164)" d="M 14898,12168 L 14999,12341 14134,12843 13933,12497 14798,11995 14898,12168 Z"/>
          </g>
         </g>
         <g class="com.sun.star.drawing.CustomShape">
          <g id="id13">
           <rect class="BoundingBox" stroke="none" fill="none" x="17303" y="10034" width="1069" height="851"/>
           <path fill="rgb(248,248,0)" stroke="none" d="M 18269,10208 L 18370,10381 17505,10883 17304,10537 18169,10035 18269,10208 Z"/>
           <path fill="none" stroke="rgb(52,101,164)" d="M 18269,10208 L 18370,10381 17505,10883 17304,10537 18169,10035 18269,10208 Z"/>
          </g>
         </g>
         <g class="com.sun.star.drawing.CustomShape">
          <g id="id14">
           <rect class="BoundingBox" stroke="none" fill="none" x="15574" y="11039" width="1069" height="851"/>
           <path fill="rgb(248,248,0)" stroke="none" d="M 16540,11213 L 16641,11386 15776,11888 15575,11542 16440,11040 16540,11213 Z"/>
           <path fill="none" stroke="rgb(52,101,164)" d="M 16540,11213 L 16641,11386 15776,11888 15575,11542 16440,11040 16540,11213 Z"/>
          </g>
         </g>
         <g class="com.sun.star.drawing.CustomShape">
          <g id="id15">
           <rect class="BoundingBox" stroke="none" fill="none" x="10474" y="14005" width="1069" height="851"/>
           <path fill="rgb(248,248,0)" stroke="none" d="M 11440,14179 L 11541,14352 10676,14854 10475,14508 11340,14006 11440,14179 Z"/>
           <path fill="none" stroke="rgb(52,101,164)" d="M 11440,14179 L 11541,14352 10676,14854 10475,14508 11340,14006 11440,14179 Z"/>
          </g>
         </g>
         <g class="com.sun.star.drawing.CustomShape">
          <g id="id16">
           <rect class="BoundingBox" stroke="none" fill="none" x="12203" y="12999" width="1069" height="851"/>
           <path fill="rgb(248,248,0)" stroke="none" d="M 13169,13173 L 13270,13346 12405,13848 12204,13502 13069,13000 13169,13173 Z"/>
           <path fill="none" stroke="rgb(52,101,164)" d="M 13169,13173 L 13270,13346 12405,13848 12204,13502 13069,13000 13169,13173 Z"/>
          </g>
         </g>
         <g class="com.sun.star.drawing.CustomShape">
          <g id="id17">
           <rect class="BoundingBox" stroke="none" fill="none" x="19119" y="8979" width="1069" height="851"/>
           <path fill="rgb(248,248,0)" stroke="none" d="M 20085,9153 L 20186,9326 19321,9828 19120,9482 19985,8980 20085,9153 Z"/>
           <path fill="none" stroke="rgb(52,101,164)" d="M 20085,9153 L 20186,9326 19321,9828 19120,9482 19985,8980 20085,9153 Z"/>
          </g>
         </g>
        </g>
        <g class="com.sun.star.drawing.CustomShape">
         <g id="id18">
          <rect class="BoundingBox" stroke="none" fill="none" x="10688" y="13978" width="896" height="748"/>
          <path fill="rgb(248,248,0)" stroke="none" d="M 11483,14153 L 11582,14326 10888,14724 10689,14377 11383,13979 11483,14153 Z"/>
          <path fill="none" stroke="rgb(52,101,164)" d="M 11483,14153 L 11582,14326 10888,14724 10689,14377 11383,13979 11483,14153 Z"/>
         </g>
        </g>
        <g class="com.sun.star.drawing.CustomShape">
         <g id="id19">
          <rect class="BoundingBox" stroke="none" fill="none" x="8443" y="15274" width="896" height="748"/>
          <path fill="rgb(248,248,0)" stroke="none" d="M 9238,15449 L 9337,15622 8643,16020 8444,15673 9138,15275 9238,15449 Z"/>
          <path fill="none" stroke="rgb(52,101,164)" d="M 9238,15449 L 9337,15622 8643,16020 8444,15673 9138,15275 9238,15449 Z"/>
         </g>
        </g>
       </g>
      </g>
     </g>
    </g>
   </g>
  </g>
 </g>
</svg>