<?xml version="1.0" encoding="UTF-8"?>
<!DOCTYPE svg PUBLIC "-//W3C//DTD SVG 1.1//EN" "http://www.w3.org/Graphics/SVG/1.1/DTD/svg11.dtd">
<svg version="1.2" width="297mm" height="210mm" viewBox="0 0 29700 21000" preserveAspectRatio="xMidYMid" fill-rule="evenodd" stroke-width="28.222" stroke-linejoin="round" xmlns="http://www.w3.org/2000/svg" xmlns:ooo="http://xml.openoffice.org/svg/export" xmlns:xlink="http://www.w3.org/1999/xlink" xmlns:presentation="http://sun.com/xmlns/staroffice/presentation" xmlns:smil="http://www.w3.org/2001/SMIL20/" xmlns:anim="urn:oasis:names:tc:opendocument:xmlns:animation:1.0" xml:space="preserve">
 <defs class="ClipPathGroup">
  <clipPath id="presentation_clip_path" clipPathUnits="userSpaceOnUse">
   <rect x="0" y="0" width="29700" height="21000"/>
  </clipPath>
  <clipPath id="presentation_clip_path_shrink" clipPathUnits="userSpaceOnUse">
   <rect x="29" y="21" width="29641" height="20958"/>
  </clipPath>
 </defs>
 <defs class="TextShapeIndex">
  <g ooo:slide="id1" ooo:id-list="id3 id4 id5 id6 id7 id8 id9 id10 id11 id12 id13 id14 id15 id16 id17 id18 id19"/>
 </defs>
 <defs class="EmbeddedBulletChars">
  <g id="bullet-char-template-57356" transform="scale(0.00048828125,-0.00048828125)">
   <path d="M 580,1141 L 1163,571 580,0 -4,571 580,1141 Z"/>
  </g>
  <g id="bullet-char-template-57354" transform="scale(0.00048828125,-0.00048828125)">
   <path d="M 8,1128 L 1137,1128 1137,0 8,0 8,1128 Z"/>
  </g>
  <g id="bullet-char-template-10146" transform="scale(0.00048828125,-0.00048828125)">
   <path d="M 174,0 L 602,739 174,1481 1456,739 174,0 Z M 1358,739 L 309,1346 659,739 1358,739 Z"/>
  </g>
  <g id="bullet-char-template-10132" transform="scale(0.00048828125,-0.00048828125)">
   <path d="M 2015,739 L 1276,0 717,0 1260,543 174,543 174,936 1260,936 717,1481 1274,1481 2015,739 Z"/>
  </g>
  <g id="bullet-char-template-10007" transform="scale(0.00048828125,-0.00048828125)">
   <path d="M 0,-2 C -7,14 -16,27 -25,37 L 356,567 C 262,823 215,952 215,954 215,979 228,992 255,992 264,992 276,990 289,987 310,991 331,999 354,1012 L 381,999 492,748 772,1049 836,1024 860,1049 C 881,1039 901,1025 922,1006 886,937 835,863 770,784 769,783 710,716 594,584 L 774,223 C 774,196 753,168 711,139 L 727,119 C 717,90 699,76 672,76 641,76 570,178 457,381 L 164,-76 C 142,-110 111,-127 72,-127 30,-127 9,-110 8,-76 1,-67 -2,-52 -2,-32 -2,-23 -1,-13 0,-2 Z"/>
  </g>
  <g id="bullet-char-template-10004" transform="scale(0.00048828125,-0.00048828125)">
   <path d="M 285,-33 C 182,-33 111,30 74,156 52,228 41,333 41,471 41,549 55,616 82,672 116,743 169,778 240,778 293,778 328,747 346,684 L 369,508 C 377,444 397,411 428,410 L 1163,1116 C 1174,1127 1196,1133 1229,1133 1271,1133 1292,1118 1292,1087 L 1292,965 C 1292,929 1282,901 1262,881 L 442,47 C 390,-6 338,-33 285,-33 Z"/>
  </g>
  <g id="bullet-char-template-9679" transform="scale(0.00048828125,-0.00048828125)">
   <path d="M 813,0 C 632,0 489,54 383,161 276,268 223,411 223,592 223,773 276,916 383,1023 489,1130 632,1184 813,1184 992,1184 1136,1130 1245,1023 1353,916 1407,772 1407,592 1407,412 1353,268 1245,161 1136,54 992,0 813,0 Z"/>
  </g>
  <g id="bullet-char-template-8226" transform="scale(0.00048828125,-0.00048828125)">
   <path d="M 346,457 C 273,457 209,483 155,535 101,586 74,649 74,723 74,796 101,859 155,911 209,963 273,989 346,989 419,989 480,963 531,910 582,859 608,796 608,723 608,648 583,586 532,535 482,483 420,457 346,457 Z"/>
  </g>
  <g id="bullet-char-template-8211" transform="scale(0.00048828125,-0.00048828125)">
   <path d="M -4,459 L 1135,459 1135,606 -4,606 -4,459 Z"/>
  </g>
  <g id="bullet-char-template-61548" transform="scale(0.00048828125,-0.00048828125)">
   <path d="M 173,740 C 173,903 231,1043 346,1159 462,1274 601,1332 765,1332 928,1332 1067,1274 1183,1159 1299,1043 1357,903 1357,740 1357,577 1299,437 1183,322 1067,206 928,148 765,148 601,148 462,206 346,322 231,437 173,577 173,740 Z"/>
  </g>
 </defs>
 <g>
  <g id="id2" class="Master_Slide">
   <g id="bg-id2" class="Background"/>
   <g id="bo-id2" class="BackgroundObjects"/>
  </g>
 </g>
 <g class="SlideGroup">
  <g>
   <g id="container-id1">
    <g id="id1" class="Slide" clip-path="url(#presentation_clip_path)">
     <g class="Page">
      <g class="Group">
       <g class="Group">
        <g class="Group">
         <g class="com.sun.star.drawing.CustomShape">
          <g id="id3">
           <rect class="BoundingBox" stroke="none" fill="none" x="15487" y="13575" width="2862" height="3155"/>
           <path fill="rgb(255,255,0)" stroke="none" d="M 16267,16278 L 15488,15828 16788,13576 18347,14476 17047,16728 16267,16278 Z"/>
           <path fill="none" stroke="rgb(52,101,164)" d="M 16267,16278 L 15488,15828 16788,13576 18347,14476 17047,16728 16267,16278 Z"/>
          </g>
         </g>
         <g class="com.sun.star.drawing.CustomShape">
          <g id="id4">
           <rect class="BoundingBox" stroke="none" fill="none" x="17021" y="13544" width="1083" height="2077"/>
           <path fill="rgb(0,0,0)" stroke="none" d="M 17374,14650 L 17022,13682 17398,13545 18102,15482 17726,15619 17374,14650 Z"/>
           <path fill="none" stroke="rgb(52,101,164)" d="M 17374,14650 L 17022,13682 17398,13545 18102,15482 17726,15619 17374,14650 Z"/>
          </g>
         </g>
         <g class="com.sun.star.drawing.CustomShape">
          <g id="id5">
           <rect class="BoundingBox" stroke="none" fill="none" x="16787" y="13229" width="1762" height="1249"/>
           <path fill="rgb(255,255,255)" stroke="none" d="M 17567,14026 L 16788,13576 16988,13230 18547,14130 18347,14476 17567,14026 Z"/>
           <path fill="none" stroke="rgb(255,255,255)" d="M 17567,14026 L 16788,13576 16988,13230 18547,14130 18347,14476 17567,14026 Z"/>
          </g>
         </g>
        </g>
        <g class="com.sun.star.drawing.CustomShape">
         <g id="id6">
          <rect class="BoundingBox" stroke="none" fill="none" x="15964" y="14375" width="1190" height="2371"/>
          <path fill="rgb(0,0,0)" stroke="none" d="M 16371,15628 L 15965,14512 16340,14376 17152,16608 16777,16744 16371,15628 Z"/>
          <path fill="none" stroke="rgb(52,101,164)" d="M 16371,15628 L 15965,14512 16340,14376 17152,16608 16777,16744 16371,15628 Z"/>
         </g>
        </g>
        <g class="com.sun.star.drawing.CustomShape">
         <g id="id7">
          <rect class="BoundingBox" stroke="none" fill="none" x="15387" y="15653" width="1762" height="1249"/>
          <path fill="rgb(255,255,255)" stroke="none" d="M 16167,16450 L 15388,16000 15588,15654 17147,16554 16947,16900 16167,16450 Z"/>
          <path fill="none" stroke="rgb(255,255,255)" d="M 16167,16450 L 15388,16000 15588,15654 17147,16554 16947,16900 16167,16450 Z"/>
         </g>
        </g>
        <g class="com.sun.star.drawing.CustomShape">
         <g id="id8">
          <rect class="BoundingBox" stroke="none" fill="none" x="17090" y="14388" width="1655" height="2452"/>
          <path fill="rgb(255,255,255)" stroke="none" d="M 18090,15714 L 17437,16838 17091,16637 18398,14389 18743,14590 18090,15714 Z"/>
          <path fill="none" stroke="rgb(255,255,255)" d="M 18090,15714 L 17437,16838 17091,16637 18398,14389 18743,14590 18090,15714 Z"/>
         </g>
        </g>
        <g class="com.sun.star.drawing.CustomShape">
         <g id="id9">
          <rect class="BoundingBox" stroke="none" fill="none" x="15185" y="13288" width="1655" height="2452"/>
          <path fill="rgb(255,255,255)" stroke="none" d="M 16185,14614 L 15532,15738 15186,15537 16493,13289 16838,13490 16185,14614 Z"/>
          <path fill="none" stroke="rgb(255,255,255)" d="M 16185,14614 L 15532,15738 15186,15537 16493,13289 16838,13490 16185,14614 Z"/>
         </g>
        </g>
       </g>
       <g class="Group">
        <g class="Group">
         <g class="com.sun.star.drawing.CustomShape">
          <g id="id10">
           <rect class="BoundingBox" stroke="none" fill="none" x="5598" y="8310" width="12396" height="7431"/>
           <path fill="rgb(17,17,17)" stroke="none" d="M 5699,8484 L 5800,8311 17992,15393 17791,15739 5599,8657 5699,8484 Z"/>
           <path fill="none" stroke="rgb(52,101,164)" d="M 5699,8484 L 5800,8311 17992,15393 17791,15739 5599,8657 5699,8484 Z"/>
          </g>
         </g>
         <g class="com.sun.star.drawing.CustomShape">
          <g id="id11">
           <rect class="BoundingBox" stroke="none" fill="none" x="11998" y="12024" width="1069" height="851"/>
           <path fill="rgb(248,248,0)" stroke="none" d="M 12100,12198 L 12200,12025 13065,12527 12864,12873 11999,12371 12100,12198 Z"/>
           <path fill="none" stroke="rgb(52,101,164)" d="M 12100,12198 L 12200,12025 13065,12527 12864,12873 11999,12371 12100,12198 Z"/>
          </g>
         </g>
         <g class="com.sun.star.drawing.CustomShape">
          <g id="id12">
           <rect class="BoundingBox" stroke="none" fill="none" x="11998" y="12024" width="1069" height="851"/>
           <path fill="rgb(248,248,0)" stroke="none" d="M 12100,12198 L 12200,12025 13065,12527 12864,12873 11999,12371 12100,12198 Z"/>
           <path fill="none" stroke="rgb(52,101,164)" d="M 12100,12198 L 12200,12025 13065,12527 12864,12873 11999,12371 12100,12198 Z"/>
          </g>
         </g>
         <g class="com.sun.star.drawing.CustomShape">
          <g id="id13">
           <rect class="BoundingBox" stroke="none" fill="none" x="8627" y="10064" width="1069" height="851"/>
           <path fill="rgb(248,248,0)" stroke="none" d="M 8729,10238 L 8829,10065 9694,10567 9493,10913 8628,10411 8729,10238 Z"/>
           <path fill="none" stroke="rgb(52,101,164)" d="M 8729,10238 L 8829,10065 9694,10567 9493,10913 8628,10411 8729,10238 Z"/>
          </g>
         </g>
         <g class="com.sun.star.drawing.CustomShape">
          <g id="id14">
           <rect class="BoundingBox" stroke="none" fill="none" x="10356" y="11069" width="1069" height="851"/>
           <path fill="rgb(248,248,0)" stroke="none" d="M 10458,11243 L 10558,11070 11423,11572 11222,11918 10357,11416 10458,11243 Z"/>
           <path fill="none" stroke="rgb(52,101,164)" d="M 10458,11243 L 10558,11070 11423,11572 11222,11918 10357,11416 10458,11243 Z"/>
          </g>
         </g>
         <g class="com.sun.star.drawing.CustomShape">
          <g id="id15">
           <rect class="BoundingBox" stroke="none" fill="none" x="15456" y="14035" width="1069" height="851"/>
           <path fill="rgb(248,248,0)" stroke="none" d="M 15558,14209 L 15658,14036 16523,14538 16322,14884 15457,14382 15558,14209 Z"/>
           <path fill="none" stroke="rgb(52,101,164)" d="M 15558,14209 L 15658,14036 16523,14538 16322,14884 15457,14382 15558,14209 Z"/>
          </g>
         </g>
         <g class="com.sun.star.drawing.CustomShape">
          <g id="id16">
           <rect class="BoundingBox" stroke="none" fill="none" x="13727" y="13029" width="1069" height="851"/>
           <path fill="rgb(248,248,0)" stroke="none" d="M 13829,13203 L 13929,13030 14794,13532 14593,13878 13728,13376 13829,13203 Z"/>
           <path fill="none" stroke="rgb(52,101,164)" d="M 13829,13203 L 13929,13030 14794,13532 14593,13878 13728,13376 13829,13203 Z"/>
          </g>
         </g>
         <g class="com.sun.star.drawing.CustomShape">
          <g id="id17">
           <rect class="BoundingBox" stroke="none" fill="none" x="6811" y="9009" width="1069" height="851"/>
           <path fill="rgb(248,248,0)" stroke="none" d="M 6913,9183 L 7013,9010 7878,9512 7677,9858 6812,9356 6913,9183 Z"/>
           <path fill="none" stroke="rgb(52,101,164)" d="M 6913,9183 L 7013,9010 7878,9512 7677,9858 6812,9356 6913,9183 Z"/>
          </g>
         </g>
        </g>
        <g class="com.sun.star.drawing.CustomShape">
         <g id="id18">
          <rect class="BoundingBox" stroke="none" fill="none" x="15414" y="14008" width="896" height="748"/>
          <path fill="rgb(248,248,0)" stroke="none" d="M 15515,14183 L 15614,14009 16308,14407 16109,14754 15415,14356 15515,14183 Z"/>
          <path fill="none" stroke="rgb(52,101,164)" d="M 15515,14183 L 15614,14009 16308,14407 16109,14754 15415,14356 15515,14183 Z"/>
         </g>
        </g>
        <g class="com.sun.star.drawing.CustomShape">
         <g id="id19">
          <rect class="BoundingBox" stroke="none" fill="none" x="17659" y="15304" width="896" height="748"/>
          <path fill="rgb(248,248,0)" stroke="none" d="M 17760,15479 L 17859,15305 18553,15703 18354,16050 17660,15652 17760,15479 Z"/>
          <path fill="none" stroke="rgb(52,101,164)" d="M 17760,15479 L 17859,15305 18553,15703 18354,16050 17660,15652 17760,15479 Z"/>
         </g>
        </g>
       </g>
      </g>
     </g>
    </g>
   </g>
  </g>
 </g>
</svg>