<?xml version="1.0" encoding="UTF-8"?>
<!DOCTYPE svg PUBLIC "-//W3C//DTD SVG 1.1//EN" "http://www.w3.org/Graphics/SVG/1.1/DTD/svg11.dtd">
<svg version="1.2" width="297mm" height="210mm" viewBox="0 0 29700 21000" preserveAspectRatio="xMidYMid" fill-rule="evenodd" stroke-width="28.222" stroke-linejoin="round" xmlns="http://www.w3.org/2000/svg" xmlns:ooo="http://xml.openoffice.org/svg/export" xmlns:xlink="http://www.w3.org/1999/xlink" xmlns:presentation="http://sun.com/xmlns/staroffice/presentation" xmlns:smil="http://www.w3.org/2001/SMIL20/" xmlns:anim="urn:oasis:names:tc:opendocument:xmlns:animation:1.0" xml:space="preserve">
 <defs class="ClipPathGroup">
  <clipPath id="presentation_clip_path" clipPathUnits="userSpaceOnUse">
   <rect x="0" y="0" width="29700" height="21000"/>
  </clipPath>
  <clipPath id="presentation_clip_path_shrink" clipPathUnits="userSpaceOnUse">
   <rect x="29" y="21" width="29641" height="20958"/>
  </clipPath>
 </defs>
 <defs class="TextShapeIndex">
  <g ooo:slide="id1" ooo:id-list="id3 id4 id5 id6 id7 id8 id9 id10 id11 id12 id13 id14 id15 id16 id17 id18 id19"/>
 </defs>
 <defs class="EmbeddedBulletChars">
  <g id="bullet-char-template-57356" transform="scale(0.00048828125,-0.00048828125)">
   <path d="M 580,1141 L 1163,571 580,0 -4,571 580,1141 Z"/>
  </g>
  <g id="bullet-char-template-57354" transform="scale(0.00048828125,-0.00048828125)">
   <path d="M 8,1128 L 1137,1128 1137,0 8,0 8,1128 Z"/>
  </g>
  <g id="bullet-char-template-10146" transform="scale(0.00048828125,-0.00048828125)">
   <path d="M 174,0 L 602,739 174,1481 1456,739 174,0 Z M 1358,739 L 309,1346 659,739 1358,739 Z"/>
  </g>
  <g id="bullet-char-template-10132" transform="scale(0.00048828125,-0.00048828125)">
   <path d="M 2015,739 L 1276,0 717,0 1260,543 174,543 174,936 1260,936 717,1481 1274,1481 2015,739 Z"/>
  </g>
  <g id="bullet-char-template-10007" transform="scale(0.00048828125,-0.00048828125)">
   <path d="M 0,-2 C -7,14 -16,27 -25,37 L 356,567 C 262,823 215,952 215,954 215,979 228,992 255,992 264,992 276,990 289,987 310,991 331,999 354,1012 L 381,999 492,748 772,1049 836,1024 860,1049 C 881,1039 901,1025 922,1006 886,937 835,863 770,784 769,783 710,716 594,584 L 774,223 C 774,196 753,168 711,139 L 727,119 C 717,90 699,76 672,76 641,76 570,178 457,381 L 164,-76 C 142,-110 111,-127 72,-127 30,-127 9,-110 8,-76 1,-67 -2,-52 -2,-32 -2,-23 -1,-13 0,-2 Z"/>
  </g>
  <g id="bullet-char-template-10004" transform="scale(0.00048828125,-0.00048828125)">
   <path d="M 285,-33 C 182,-33 111,30 74,156 52,228 41,333 41,471 41,549 55,616 82,672 116,743 169,778 240,778 293,778 328,747 346,684 L 369,508 C 377,444 397,411 428,410 L 1163,1116 C 1174,1127 1196,1133 1229,1133 1271,1133 1292,1118 1292,1087 L 1292,965 C 1292,929 1282,901 1262,881 L 442,47 C 390,-6 338,-33 285,-33 Z"/>
  </g>
  <g id="bullet-char-template-9679" transform="scale(0.00048828125,-0.00048828125)">
   <path d="M 813,0 C 632,0 489,54 383,161 276,268 223,411 223,592 223,773 276,916 383,1023 489,1130 632,1184 813,1184 992,1184 1136,1130 1245,1023 1353,916 1407,772 1407,592 1407,412 1353,268 1245,161 1136,54 992,0 813,0 Z"/>
  </g>
  <g id="bullet-char-template-8226" transform="scale(0.00048828125,-0.00048828125)">
   <path d="M 346,457 C 273,457 209,483 155,535 101,586 74,649 74,723 74,796 101,859 155,911 209,963 273,989 346,989 419,989 480,963 531,910 582,859 608,796 608,723 608,648 583,586 532,535 482,483 420,457 346,457 Z"/>
  </g>
  <g id="bullet-char-template-8211" transform="scale(0.00048828125,-0.00048828125)">
   <path d="M -4,459 L 1135,459 1135,606 -4,606 -4,459 Z"/>
  </g>
  <g id="bullet-char-template-61548" transform="scale(0.00048828125,-0.00048828125)">
   <path d="M 173,740 C 173,903 231,1043 346,1159 462,1274 601,1332 765,1332 928,1332 1067,1274 1183,1159 1299,1043 1357,903 1357,740 1357,577 1299,437 1183,322 1067,206 928,148 765,148 601,148 462,206 346,322 231,437 173,577 173,740 Z"/>
  </g>
 </defs>
 <g>
  <g id="id2" class="Master_Slide">
   <g id="bg-id2" class="Background"/>
   <g id="bo-id2" class="BackgroundObjects"/>
  </g>
 </g>
 <g class="SlideGroup">
  <g>
   <g id="container-id1">
    <g id="id1" class="Slide" clip-path="url(#presentation_clip_path)">
     <g class="Page">
      <g class="Group">
       <g class="Group">
        <g class="Group">
         <g class="com.sun.star.drawing.CustomShape">
          <g id="id3">
           <rect class="BoundingBox" stroke="none" fill="none" x="8608" y="13573" width="2969" height="3165"/>
           <path fill="rgb(255,255,0)" stroke="none" d="M 10838,16220 L 10100,16736 8609,14606 10083,13574 11575,15703 10838,16220 Z"/>
           <path fill="none" stroke="rgb(52,101,164)" d="M 10838,16220 L 10100,16736 8609,14606 10083,13574 11575,15703 10838,16220 Z"/>
          </g>
         </g>
         <g class="com.sun.star.drawing.CustomShape">
          <g id="id4">
           <rect class="BoundingBox" stroke="none" fill="none" x="8941" y="13594" width="922" height="2097"/>
           <path fill="rgb(0,0,0)" stroke="none" d="M 9595,14694 L 9328,15689 8942,15586 9475,13595 9861,13698 9595,14694 Z"/>
           <path fill="none" stroke="rgb(52,101,164)" d="M 9595,14694 L 9328,15689 8942,15586 9475,13595 9861,13698 9595,14694 Z"/>
          </g>
         </g>
         <g class="com.sun.star.drawing.CustomShape">
          <g id="id5">
           <rect class="BoundingBox" stroke="none" fill="none" x="8379" y="13245" width="1707" height="1363"/>
           <path fill="rgb(255,255,255)" stroke="none" d="M 9347,14089 L 8609,14606 8380,14278 9854,13246 10084,13573 9347,14089 Z"/>
           <path fill="none" stroke="rgb(255,255,255)" d="M 9347,14089 L 8609,14606 8380,14278 9854,13246 10084,13573 9347,14089 Z"/>
          </g>
         </g>
        </g>
        <g class="com.sun.star.drawing.CustomShape">
         <g id="id6">
          <rect class="BoundingBox" stroke="none" fill="none" x="9986" y="14331" width="1003" height="2400"/>
          <path fill="rgb(0,0,0)" stroke="none" d="M 10680,15582 L 10373,16729 9987,16626 10601,14332 10987,14435 10680,15582 Z"/>
          <path fill="none" stroke="rgb(52,101,164)" d="M 10680,15582 L 10373,16729 9987,16626 10601,14332 10987,14435 10680,15582 Z"/>
         </g>
        </g>
        <g class="com.sun.star.drawing.CustomShape">
         <g id="id7">
          <rect class="BoundingBox" stroke="none" fill="none" x="9985" y="15539" width="1707" height="1363"/>
          <path fill="rgb(255,255,255)" stroke="none" d="M 10953,16383 L 10215,16900 9986,16572 11460,15540 11690,15867 10953,16383 Z"/>
          <path fill="none" stroke="rgb(255,255,255)" d="M 10953,16383 L 10215,16900 9986,16572 11460,15540 11690,15867 10953,16383 Z"/>
         </g>
        </g>
        <g class="com.sun.star.drawing.CustomShape">
         <g id="id8">
          <rect class="BoundingBox" stroke="none" fill="none" x="8223" y="14522" width="1828" height="2359"/>
          <path fill="rgb(255,255,255)" stroke="none" d="M 8973,15816 L 8224,14753 8551,14523 10049,16648 9722,16879 8973,15816 Z"/>
          <path fill="none" stroke="rgb(255,255,255)" d="M 8973,15816 L 8224,14753 8551,14523 10049,16648 9722,16879 8973,15816 Z"/>
         </g>
        </g>
        <g class="com.sun.star.drawing.CustomShape">
         <g id="id9">
          <rect class="BoundingBox" stroke="none" fill="none" x="10025" y="13260" width="1828" height="2359"/>
          <path fill="rgb(255,255,255)" stroke="none" d="M 10775,14554 L 10026,13491 10353,13261 11851,15386 11524,15617 10775,14554 Z"/>
          <path fill="none" stroke="rgb(255,255,255)" d="M 10775,14554 L 10026,13491 10353,13261 11851,15386 11524,15617 10775,14554 Z"/>
         </g>
        </g>
       </g>
       <g class="Group">
        <g class="Group">
         <g class="com.sun.star.drawing.CustomShape">
          <g id="id10">
           <rect class="BoundingBox" stroke="none" fill="none" x="9042" y="7364" width="11760" height="8450"/>
           <path fill="rgb(17,17,17)" stroke="none" d="M 20685,7529 L 20800,7692 9273,15812 9043,15485 20570,7365 20685,7529 Z"/>
           <path fill="none" stroke="rgb(52,101,164)" d="M 20685,7529 L 20800,7692 9273,15812 9043,15485 20570,7365 20685,7529 Z"/>
          </g>
         </g>
         <g class="com.sun.star.drawing.CustomShape">
          <g id="id11">
           <rect class="BoundingBox" stroke="none" fill="none" x="13701" y="11626" width="1051" height="906"/>
           <path fill="rgb(248,248,0)" stroke="none" d="M 14634,11791 L 14750,11954 13932,12530 13702,12203 14519,11627 14634,11791 Z"/>
           <path fill="none" stroke="rgb(52,101,164)" d="M 14634,11791 L 14750,11954 13932,12530 13702,12203 14519,11627 14634,11791 Z"/>
          </g>
         </g>
         <g class="com.sun.star.drawing.CustomShape">
          <g id="id12">
           <rect class="BoundingBox" stroke="none" fill="none" x="13701" y="11626" width="1051" height="906"/>
           <path fill="rgb(248,248,0)" stroke="none" d="M 14634,11791 L 14750,11954 13932,12530 13702,12203 14519,11627 14634,11791 Z"/>
           <path fill="none" stroke="rgb(52,101,164)" d="M 14634,11791 L 14750,11954 13932,12530 13702,12203 14519,11627 14634,11791 Z"/>
          </g>
         </g>
         <g class="com.sun.star.drawing.CustomShape">
          <g id="id13">
           <rect class="BoundingBox" stroke="none" fill="none" x="16889" y="9379" width="1051" height="906"/>
           <path fill="rgb(248,248,0)" stroke="none" d="M 17822,9544 L 17938,9707 17120,10283 16890,9956 17707,9380 17822,9544 Z"/>
           <path fill="none" stroke="rgb(52,101,164)" d="M 17822,9544 L 17938,9707 17120,10283 16890,9956 17707,9380 17822,9544 Z"/>
          </g>
         </g>
         <g class="com.sun.star.drawing.CustomShape">
          <g id="id14">
           <rect class="BoundingBox" stroke="none" fill="none" x="15254" y="10531" width="1051" height="906"/>
           <path fill="rgb(248,248,0)" stroke="none" d="M 16187,10696 L 16303,10859 15485,11435 15255,11108 16072,10532 16187,10696 Z"/>
           <path fill="none" stroke="rgb(52,101,164)" d="M 16187,10696 L 16303,10859 15485,11435 15255,11108 16072,10532 16187,10696 Z"/>
          </g>
         </g>
         <g class="com.sun.star.drawing.CustomShape">
          <g id="id15">
           <rect class="BoundingBox" stroke="none" fill="none" x="10431" y="13930" width="1051" height="906"/>
           <path fill="rgb(248,248,0)" stroke="none" d="M 11364,14095 L 11480,14258 10662,14834 10432,14507 11249,13931 11364,14095 Z"/>
           <path fill="none" stroke="rgb(52,101,164)" d="M 11364,14095 L 11480,14258 10662,14834 10432,14507 11249,13931 11364,14095 Z"/>
          </g>
         </g>
         <g class="com.sun.star.drawing.CustomShape">
          <g id="id16">
           <rect class="BoundingBox" stroke="none" fill="none" x="12066" y="12778" width="1051" height="906"/>
           <path fill="rgb(248,248,0)" stroke="none" d="M 12999,12943 L 13115,13106 12297,13682 12067,13355 12884,12779 12999,12943 Z"/>
           <path fill="none" stroke="rgb(52,101,164)" d="M 12999,12943 L 13115,13106 12297,13682 12067,13355 12884,12779 12999,12943 Z"/>
          </g>
         </g>
         <g class="com.sun.star.drawing.CustomShape">
          <g id="id17">
           <rect class="BoundingBox" stroke="none" fill="none" x="18606" y="8170" width="1051" height="906"/>
           <path fill="rgb(248,248,0)" stroke="none" d="M 19539,8335 L 19655,8498 18837,9074 18607,8747 19424,8171 19539,8335 Z"/>
           <path fill="none" stroke="rgb(52,101,164)" d="M 19539,8335 L 19655,8498 18837,9074 18607,8747 19424,8171 19539,8335 Z"/>
          </g>
         </g>
        </g>
        <g class="com.sun.star.drawing.CustomShape">
         <g id="id18">
          <rect class="BoundingBox" stroke="none" fill="none" x="10635" y="13902" width="888" height="788"/>
          <path fill="rgb(248,248,0)" stroke="none" d="M 11406,14067 L 11521,14231 10864,14688 10636,14360 11292,13903 11406,14067 Z"/>
          <path fill="none" stroke="rgb(52,101,164)" d="M 11406,14067 L 11521,14231 10864,14688 10636,14360 11292,13903 11406,14067 Z"/>
         </g>
        </g>
        <g class="com.sun.star.drawing.CustomShape">
         <g id="id19">
          <rect class="BoundingBox" stroke="none" fill="none" x="8512" y="15389" width="888" height="788"/>
          <path fill="rgb(248,248,0)" stroke="none" d="M 9283,15554 L 9398,15718 8741,16175 8513,15847 9169,15390 9283,15554 Z"/>
          <path fill="none" stroke="rgb(52,101,164)" d="M 9283,15554 L 9398,15718 8741,16175 8513,15847 9169,15390 9283,15554 Z"/>
         </g>
        </g>
       </g>
      </g>
     </g>
    </g>
   </g>
  </g>
 </g>
</svg>