<?xml version="1.0" encoding="UTF-8"?>
<!DOCTYPE svg PUBLIC "-//W3C//DTD SVG 1.1//EN" "http://www.w3.org/Graphics/SVG/1.1/DTD/svg11.dtd">
<svg version="1.2" width="297mm" height="210mm" viewBox="0 0 29700 21000" preserveAspectRatio="xMidYMid" fill-rule="evenodd" stroke-width="28.222" stroke-linejoin="round" xmlns="http://www.w3.org/2000/svg" xmlns:ooo="http://xml.openoffice.org/svg/export" xmlns:xlink="http://www.w3.org/1999/xlink" xmlns:presentation="http://sun.com/xmlns/staroffice/presentation" xmlns:smil="http://www.w3.org/2001/SMIL20/" xmlns:anim="urn:oasis:names:tc:opendocument:xmlns:animation:1.0" xml:space="preserve">
 <defs class="ClipPathGroup">
  <clipPath id="presentation_clip_path" clipPathUnits="userSpaceOnUse">
   <rect x="0" y="0" width="29700" height="21000"/>
  </clipPath>
  <clipPath id="presentation_clip_path_shrink" clipPathUnits="userSpaceOnUse">
   <rect x="29" y="21" width="29641" height="20958"/>
  </clipPath>
 </defs>
 <defs class="TextShapeIndex">
  <g ooo:slide="id1" ooo:id-list="id3 id4 id5 id6 id7 id8 id9 id10 id11 id12 id13 id14 id15 id16 id17 id18 id19"/>
 </defs>
 <defs class="EmbeddedBulletChars">
  <g id="bullet-char-template-57356" transform="scale(0.00048828125,-0.00048828125)">
   <path d="M 580,1141 L 1163,571 580,0 -4,571 580,1141 Z"/>
  </g>
  <g id="bullet-char-template-57354" transform="scale(0.00048828125,-0.00048828125)">
   <path d="M 8,1128 L 1137,1128 1137,0 8,0 8,1128 Z"/>
  </g>
  <g id="bullet-char-template-10146" transform="scale(0.00048828125,-0.00048828125)">
   <path d="M 174,0 L 602,739 174,1481 1456,739 174,0 Z M 1358,739 L 309,1346 659,739 1358,739 Z"/>
  </g>
  <g id="bullet-char-template-10132" transform="scale(0.00048828125,-0.00048828125)">
   <path d="M 2015,739 L 1276,0 717,0 1260,543 174,543 174,936 1260,936 717,1481 1274,1481 2015,739 Z"/>
  </g>
  <g id="bullet-char-template-10007" transform="scale(0.00048828125,-0.00048828125)">
   <path d="M 0,-2 C -7,14 -16,27 -25,37 L 356,567 C 262,823 215,952 215,954 215,979 228,992 255,992 264,992 276,990 289,987 310,991 331,999 354,1012 L 381,999 492,748 772,1049 836,1024 860,1049 C 881,1039 901,1025 922,1006 886,937 835,863 770,784 769,783 710,716 594,584 L 774,223 C 774,196 753,168 711,139 L 727,119 C 717,90 699,76 672,76 641,76 570,178 457,381 L 164,-76 C 142,-110 111,-127 72,-127 30,-127 9,-110 8,-76 1,-67 -2,-52 -2,-32 -2,-23 -1,-13 0,-2 Z"/>
  </g>
  <g id="bullet-char-template-10004" transform="scale(0.00048828125,-0.00048828125)">
   <path d="M 285,-33 C 182,-33 111,30 74,156 52,228 41,333 41,471 41,549 55,616 82,672 116,743 169,778 240,778 293,778 328,747 346,684 L 369,508 C 377,444 397,411 428,410 L 1163,1116 C 1174,1127 1196,1133 1229,1133 1271,1133 1292,1118 1292,1087 L 1292,965 C 1292,929 1282,901 1262,881 L 442,47 C 390,-6 338,-33 285,-33 Z"/>
  </g>
  <g id="bullet-char-template-9679" transform="scale(0.00048828125,-0.00048828125)">
   <path d="M 813,0 C 632,0 489,54 383,161 276,268 223,411 223,592 223,773 276,916 383,1023 489,1130 632,1184 813,1184 992,1184 1136,1130 1245,1023 1353,916 1407,772 1407,592 1407,412 1353,268 1245,161 1136,54 992,0 813,0 Z"/>
  </g>
  <g id="bullet-char-template-8226" transform="scale(0.00048828125,-0.00048828125)">
   <path d="M 346,457 C 273,457 209,483 155,535 101,586 74,649 74,723 74,796 101,859 155,911 209,963 273,989 346,989 419,989 480,963 531,910 582,859 608,796 608,723 608,648 583,586 532,535 482,483 420,457 346,457 Z"/>
  </g>
  <g id="bullet-char-template-8211" transform="scale(0.00048828125,-0.00048828125)">
   <path d="M -4,459 L 1135,459 1135,606 -4,606 -4,459 Z"/>
  </g>
  <g id="bullet-char-template-61548" transform="scale(0.00048828125,-0.00048828125)">
   <path d="M 173,740 C 173,903 231,1043 346,1159 462,1274 601,1332 765,1332 928,1332 1067,1274 1183,1159 1299,1043 1357,903 1357,740 1357,577 1299,437 1183,322 1067,206 928,148 765,148 601,148 462,206 346,322 231,437 173,577 173,740 Z"/>
  </g>
 </defs>
 <g>
  <g id="id2" class="Master_Slide">
   <g id="bg-id2" class="Background"/>
   <g id="bo-id2" class="BackgroundObjects"/>
  </g>
 </g>
 <g class="SlideGroup">
  <g>
   <g id="container-id1">
    <g id="id1" class="Slide" clip-path="url(#presentation_clip_path)">
     <g class="Page">
      <g class="Group">
       <g class="Group">
        <g class="Group">
         <g class="com.sun.star.drawing.CustomShape">
          <g id="id3">
           <rect class="BoundingBox" stroke="none" fill="none" x="15395" y="13492" width="3053" height="3152"/>
           <path fill="rgb(255,255,0)" stroke="none" d="M 16085,16063 L 15396,15485 17067,13493 18446,14650 16775,16642 16085,16063 Z"/>
           <path fill="none" stroke="rgb(52,101,164)" d="M 16085,16063 L 15396,15485 17067,13493 18446,14650 16775,16642 16085,16063 Z"/>
          </g>
         </g>
         <g class="com.sun.star.drawing.CustomShape">
          <g id="id4">
           <rect class="BoundingBox" stroke="none" fill="none" x="17277" y="13566" width="754" height="2102"/>
           <path fill="rgb(0,0,0)" stroke="none" d="M 17456,14651 L 17278,13636 17672,13567 18029,15597 17635,15666 17456,14651 Z"/>
           <path fill="none" stroke="rgb(52,101,164)" d="M 17456,14651 L 17278,13636 17672,13567 18029,15597 17635,15666 17456,14651 Z"/>
          </g>
         </g>
         <g class="com.sun.star.drawing.CustomShape">
          <g id="id5">
           <rect class="BoundingBox" stroke="none" fill="none" x="17066" y="13184" width="1639" height="1466"/>
           <path fill="rgb(255,255,255)" stroke="none" d="M 17756,14070 L 17067,13491 17324,13185 18703,14342 18446,14648 17756,14070 Z"/>
           <path fill="none" stroke="rgb(255,255,255)" d="M 17756,14070 L 17067,13491 17324,13185 18703,14342 18446,14648 17756,14070 Z"/>
          </g>
         </g>
        </g>
        <g class="com.sun.star.drawing.CustomShape">
         <g id="id6">
          <rect class="BoundingBox" stroke="none" fill="none" x="16091" y="14202" width="809" height="2411"/>
          <path fill="rgb(0,0,0)" stroke="none" d="M 16298,15442 L 16092,14272 16486,14203 16898,16542 16504,16611 16298,15442 Z"/>
          <path fill="none" stroke="rgb(52,101,164)" d="M 16298,15442 L 16092,14272 16486,14203 16898,16542 16504,16611 16298,15442 Z"/>
         </g>
        </g>
        <g class="com.sun.star.drawing.CustomShape">
         <g id="id7">
          <rect class="BoundingBox" stroke="none" fill="none" x="15267" y="15329" width="1639" height="1466"/>
          <path fill="rgb(255,255,255)" stroke="none" d="M 15957,16215 L 15268,15636 15525,15330 16904,16487 16647,16793 15957,16215 Z"/>
          <path fill="none" stroke="rgb(255,255,255)" d="M 15957,16215 L 15268,15636 15525,15330 16904,16487 16647,16793 15957,16215 Z"/>
         </g>
        </g>
        <g class="com.sun.star.drawing.CustomShape">
         <g id="id8">
          <rect class="BoundingBox" stroke="none" fill="none" x="16833" y="14571" width="1986" height="2248"/>
          <path fill="rgb(255,255,255)" stroke="none" d="M 17978,15823 L 17140,16817 16834,16559 18511,14572 18817,14830 17978,15823 Z"/>
          <path fill="none" stroke="rgb(255,255,255)" d="M 17978,15823 L 17140,16817 16834,16559 18511,14572 18817,14830 17978,15823 Z"/>
         </g>
        </g>
        <g class="com.sun.star.drawing.CustomShape">
         <g id="id9">
          <rect class="BoundingBox" stroke="none" fill="none" x="15148" y="13157" width="1986" height="2248"/>
          <path fill="rgb(255,255,255)" stroke="none" d="M 16293,14409 L 15455,15403 15149,15145 16826,13158 17132,13416 16293,14409 Z"/>
          <path fill="none" stroke="rgb(255,255,255)" d="M 16293,14409 L 15455,15403 15149,15145 16826,13158 17132,13416 16293,14409 Z"/>
         </g>
        </g>
       </g>
       <g class="Group">
        <g class="Group">
         <g class="com.sun.star.drawing.CustomShape">
          <g id="id10">
           <rect class="BoundingBox" stroke="none" fill="none" x="6897" y="6401" width="11040" height="9399"/>
           <path fill="rgb(17,17,17)" stroke="none" d="M 7027,6555 L 7156,6402 17935,15492 17677,15798 6898,6708 7027,6555 Z"/>
           <path fill="none" stroke="rgb(52,101,164)" d="M 7027,6555 L 7156,6402 17935,15492 17677,15798 6898,6708 7027,6555 Z"/>
          </g>
         </g>
         <g class="com.sun.star.drawing.CustomShape">
          <g id="id11">
           <rect class="BoundingBox" stroke="none" fill="none" x="12559" y="11166" width="1025" height="954"/>
           <path fill="rgb(248,248,0)" stroke="none" d="M 12689,11320 L 12818,11167 13582,11812 13324,12118 12560,11473 12689,11320 Z"/>
           <path fill="none" stroke="rgb(52,101,164)" d="M 12689,11320 L 12818,11167 13582,11812 13324,12118 12560,11473 12689,11320 Z"/>
          </g>
         </g>
         <g class="com.sun.star.drawing.CustomShape">
          <g id="id12">
           <rect class="BoundingBox" stroke="none" fill="none" x="12559" y="11166" width="1025" height="954"/>
           <path fill="rgb(248,248,0)" stroke="none" d="M 12689,11320 L 12818,11167 13582,11812 13324,12118 12560,11473 12689,11320 Z"/>
           <path fill="none" stroke="rgb(52,101,164)" d="M 12689,11320 L 12818,11167 13582,11812 13324,12118 12560,11473 12689,11320 Z"/>
          </g>
         </g>
         <g class="com.sun.star.drawing.CustomShape">
          <g id="id13">
           <rect class="BoundingBox" stroke="none" fill="none" x="9579" y="8650" width="1025" height="954"/>
           <path fill="rgb(248,248,0)" stroke="none" d="M 9709,8804 L 9838,8651 10602,9296 10344,9602 9580,8957 9709,8804 Z"/>
           <path fill="none" stroke="rgb(52,101,164)" d="M 9709,8804 L 9838,8651 10602,9296 10344,9602 9580,8957 9709,8804 Z"/>
          </g>
         </g>
         <g class="com.sun.star.drawing.CustomShape">
          <g id="id14">
           <rect class="BoundingBox" stroke="none" fill="none" x="11107" y="9940" width="1025" height="954"/>
           <path fill="rgb(248,248,0)" stroke="none" d="M 11237,10094 L 11366,9941 12130,10586 11872,10892 11108,10247 11237,10094 Z"/>
           <path fill="none" stroke="rgb(52,101,164)" d="M 11237,10094 L 11366,9941 12130,10586 11872,10892 11108,10247 11237,10094 Z"/>
          </g>
         </g>
         <g class="com.sun.star.drawing.CustomShape">
          <g id="id15">
           <rect class="BoundingBox" stroke="none" fill="none" x="15615" y="13746" width="1025" height="954"/>
           <path fill="rgb(248,248,0)" stroke="none" d="M 15745,13900 L 15874,13747 16638,14392 16380,14698 15616,14053 15745,13900 Z"/>
           <path fill="none" stroke="rgb(52,101,164)" d="M 15745,13900 L 15874,13747 16638,14392 16380,14698 15616,14053 15745,13900 Z"/>
          </g>
         </g>
         <g class="com.sun.star.drawing.CustomShape">
          <g id="id16">
           <rect class="BoundingBox" stroke="none" fill="none" x="14087" y="12456" width="1025" height="954"/>
           <path fill="rgb(248,248,0)" stroke="none" d="M 14217,12610 L 14346,12457 15110,13102 14852,13408 14088,12763 14217,12610 Z"/>
           <path fill="none" stroke="rgb(52,101,164)" d="M 14217,12610 L 14346,12457 15110,13102 14852,13408 14088,12763 14217,12610 Z"/>
          </g>
         </g>
         <g class="com.sun.star.drawing.CustomShape">
          <g id="id17">
           <rect class="BoundingBox" stroke="none" fill="none" x="7974" y="7295" width="1025" height="954"/>
           <path fill="rgb(248,248,0)" stroke="none" d="M 8104,7449 L 8233,7296 8997,7941 8739,8247 7975,7602 8104,7449 Z"/>
           <path fill="none" stroke="rgb(52,101,164)" d="M 8104,7449 L 8233,7296 8997,7941 8739,8247 7975,7602 8104,7449 Z"/>
          </g>
         </g>
        </g>
        <g class="com.sun.star.drawing.CustomShape">
         <g id="id18">
          <rect class="BoundingBox" stroke="none" fill="none" x="15575" y="13715" width="874" height="822"/>
          <path fill="rgb(248,248,0)" stroke="none" d="M 15704,13869 L 15833,13716 16447,14228 16191,14535 15576,14023 15704,13869 Z"/>
          <path fill="none" stroke="rgb(52,101,164)" d="M 15704,13869 L 15833,13716 16447,14228 16191,14535 15576,14023 15704,13869 Z"/>
         </g>
        </g>
        <g class="com.sun.star.drawing.CustomShape">
         <g id="id19">
          <rect class="BoundingBox" stroke="none" fill="none" x="17561" y="15381" width="874" height="822"/>
          <path fill="rgb(248,248,0)" stroke="none" d="M 17690,15535 L 17819,15382 18433,15894 18177,16201 17562,15689 17690,15535 Z"/>
          <path fill="none" stroke="rgb(52,101,164)" d="M 17690,15535 L 17819,15382 18433,15894 18177,16201 17562,15689 17690,15535 Z"/>
         </g>
        </g>
       </g>
      </g>
     </g>
    </g>
   </g>
  </g>
 </g>
</svg>