<?xml version="1.0" encoding="UTF-8"?>
<!DOCTYPE svg PUBLIC "-//W3C//DTD SVG 1.1//EN" "http://www.w3.org/Graphics/SVG/1.1/DTD/svg11.dtd">
<svg version="1.2" width="297mm" height="210mm" viewBox="0 0 29700 21000" preserveAspectRatio="xMidYMid" fill-rule="evenodd" stroke-width="28.222" stroke-linejoin="round" xmlns="http://www.w3.org/2000/svg" xmlns:ooo="http://xml.openoffice.org/svg/export" xmlns:xlink="http://www.w3.org/1999/xlink" xmlns:presentation="http://sun.com/xmlns/staroffice/presentation" xmlns:smil="http://www.w3.org/2001/SMIL20/" xmlns:anim="urn:oasis:names:tc:opendocument:xmlns:animation:1.0" xml:space="preserve">
 <defs class="ClipPathGroup">
  <clipPath id="presentation_clip_path" clipPathUnits="userSpaceOnUse">
   <rect x="0" y="0" width="29700" height="21000"/>
  </clipPath>
  <clipPath id="presentation_clip_path_shrink" clipPathUnits="userSpaceOnUse">
   <rect x="29" y="21" width="29641" height="20958"/>
  </clipPath>
 </defs>
 <defs class="TextShapeIndex">
  <g ooo:slide="id1" ooo:id-list="id3 id4 id5 id6 id7 id8 id9 id10 id11 id12 id13 id14 id15 id16 id17 id18 id19"/>
 </defs>
 <defs class="EmbeddedBulletChars">
  <g id="bullet-char-template-57356" transform="scale(0.00048828125,-0.00048828125)">
   <path d="M 580,1141 L 1163,571 580,0 -4,571 580,1141 Z"/>
  </g>
  <g id="bullet-char-template-57354" transform="scale(0.00048828125,-0.00048828125)">
   <path d="M 8,1128 L 1137,1128 1137,0 8,0 8,1128 Z"/>
  </g>
  <g id="bullet-char-template-10146" transform="scale(0.00048828125,-0.00048828125)">
   <path d="M 174,0 L 602,739 174,1481 1456,739 174,0 Z M 1358,739 L 309,1346 659,739 1358,739 Z"/>
  </g>
  <g id="bullet-char-template-10132" transform="scale(0.00048828125,-0.00048828125)">
   <path d="M 2015,739 L 1276,0 717,0 1260,543 174,543 174,936 1260,936 717,1481 1274,1481 2015,739 Z"/>
  </g>
  <g id="bullet-char-template-10007" transform="scale(0.00048828125,-0.00048828125)">
   <path d="M 0,-2 C -7,14 -16,27 -25,37 L 356,567 C 262,823 215,952 215,954 215,979 228,992 255,992 264,992 276,990 289,987 310,991 331,999 354,1012 L 381,999 492,748 772,1049 836,1024 860,1049 C 881,1039 901,1025 922,1006 886,937 835,863 770,784 769,783 710,716 594,584 L 774,223 C 774,196 753,168 711,139 L 727,119 C 717,90 699,76 672,76 641,76 570,178 457,381 L 164,-76 C 142,-110 111,-127 72,-127 30,-127 9,-110 8,-76 1,-67 -2,-52 -2,-32 -2,-23 -1,-13 0,-2 Z"/>
  </g>
  <g id="bullet-char-template-10004" transform="scale(0.00048828125,-0.00048828125)">
   <path d="M 285,-33 C 182,-33 111,30 74,156 52,228 41,333 41,471 41,549 55,616 82,672 116,743 169,778 240,778 293,778 328,747 346,684 L 369,508 C 377,444 397,411 428,410 L 1163,1116 C 1174,1127 1196,1133 1229,1133 1271,1133 1292,1118 1292,1087 L 1292,965 C 1292,929 1282,901 1262,881 L 442,47 C 390,-6 338,-33 285,-33 Z"/>
  </g>
  <g id="bullet-char-template-9679" transform="scale(0.00048828125,-0.00048828125)">
   <path d="M 813,0 C 632,0 489,54 383,161 276,268 223,411 223,592 223,773 276,916 383,1023 489,1130 632,1184 813,1184 992,1184 1136,1130 1245,1023 1353,916 1407,772 1407,592 1407,412 1353,268 1245,161 1136,54 992,0 813,0 Z"/>
  </g>
  <g id="bullet-char-template-8226" transform="scale(0.00048828125,-0.00048828125)">
   <path d="M 346,457 C 273,457 209,483 155,535 101,586 74,649 74,723 74,796 101,859 155,911 209,963 273,989 346,989 419,989 480,963 531,910 582,859 608,796 608,723 608,648 583,586 532,535 482,483 420,457 346,457 Z"/>
  </g>
  <g id="bullet-char-template-8211" transform="scale(0.00048828125,-0.00048828125)">
   <path d="M -4,459 L 1135,459 1135,606 -4,606 -4,459 Z"/>
  </g>
  <g id="bullet-char-template-61548" transform="scale(0.00048828125,-0.00048828125)">
   <path d="M 173,740 C 173,903 231,1043 346,1159 462,1274 601,1332 765,1332 928,1332 1067,1274 1183,1159 1299,1043 1357,903 1357,740 1357,577 1299,437 1183,322 1067,206 928,148 765,148 601,148 462,206 346,322 231,437 173,577 173,740 Z"/>
  </g>
 </defs>
 <g>
  <g id="id2" class="Master_Slide">
   <g id="bg-id2" class="Background"/>
   <g id="bo-id2" class="BackgroundObjects"/>
  </g>
 </g>
 <g class="SlideGroup">
  <g>
   <g id="container-id1">
    <g id="id1" class="Slide" clip-path="url(#presentation_clip_path)">
     <g class="Page">
      <g class="Group">
       <g class="Group">
        <g class="Group">
         <g class="com.sun.star.drawing.CustomShape">
          <g id="id3">
           <rect class="BoundingBox" stroke="none" fill="none" x="8593" y="13532" width="3114" height="3114"/>
           <path fill="rgb(255,255,0)" stroke="none" d="M 11069,16008 L 10432,16644 8594,14806 9867,13533 11705,15372 11069,16008 Z"/>
           <path fill="none" stroke="rgb(52,101,164)" d="M 11069,16008 L 10432,16644 8594,14806 9867,13533 11705,15372 11069,16008 Z"/>
          </g>
         </g>
         <g class="com.sun.star.drawing.CustomShape">
          <g id="id4">
           <rect class="BoundingBox" stroke="none" fill="none" x="9091" y="13661" width="580" height="2091"/>
           <path fill="rgb(0,0,0)" stroke="none" d="M 9580,14723 L 9490,15750 9092,15715 9271,13662 9669,13697 9580,14723 Z"/>
           <path fill="none" stroke="rgb(52,101,164)" d="M 9580,14723 L 9490,15750 9092,15715 9271,13662 9669,13697 9580,14723 Z"/>
          </g>
         </g>
         <g class="com.sun.star.drawing.CustomShape">
          <g id="id5">
           <rect class="BoundingBox" stroke="none" fill="none" x="8311" y="13250" width="1559" height="1559"/>
           <path fill="rgb(255,255,255)" stroke="none" d="M 9231,14170 L 8595,14807 8312,14524 9585,13251 9868,13534 9231,14170 Z"/>
           <path fill="none" stroke="rgb(255,255,255)" d="M 9231,14170 L 8595,14807 8312,14524 9585,13251 9868,13534 9231,14170 Z"/>
          </g>
         </g>
        </g>
        <g class="com.sun.star.drawing.CustomShape">
         <g id="id6">
          <rect class="BoundingBox" stroke="none" fill="none" x="10301" y="14190" width="608" height="2404"/>
          <path fill="rgb(0,0,0)" stroke="none" d="M 10804,15409 L 10700,16592 10302,16557 10508,14191 10907,14226 10804,15409 Z"/>
          <path fill="none" stroke="rgb(52,101,164)" d="M 10804,15409 L 10700,16592 10302,16557 10508,14191 10907,14226 10804,15409 Z"/>
         </g>
        </g>
        <g class="com.sun.star.drawing.CustomShape">
         <g id="id7">
          <rect class="BoundingBox" stroke="none" fill="none" x="10291" y="15230" width="1559" height="1559"/>
          <path fill="rgb(255,255,255)" stroke="none" d="M 11211,16150 L 10575,16787 10292,16504 11565,15231 11848,15514 11211,16150 Z"/>
          <path fill="none" stroke="rgb(255,255,255)" d="M 11211,16150 L 10575,16787 10292,16504 11565,15231 11848,15514 11211,16150 Z"/>
         </g>
        </g>
        <g class="com.sun.star.drawing.CustomShape">
         <g id="id8">
          <rect class="BoundingBox" stroke="none" fill="none" x="8240" y="14735" width="2129" height="2120"/>
          <path fill="rgb(255,255,255)" stroke="none" d="M 9163,15936 L 8241,15020 8523,14736 10367,16569 10085,16853 9163,15936 Z"/>
          <path fill="none" stroke="rgb(255,255,255)" d="M 9163,15936 L 8241,15020 8523,14736 10367,16569 10085,16853 9163,15936 Z"/>
         </g>
        </g>
        <g class="com.sun.star.drawing.CustomShape">
         <g id="id9">
          <rect class="BoundingBox" stroke="none" fill="none" x="9796" y="13179" width="2129" height="2120"/>
          <path fill="rgb(255,255,255)" stroke="none" d="M 10719,14380 L 9797,13464 10079,13180 11923,15013 11641,15297 10719,14380 Z"/>
          <path fill="none" stroke="rgb(255,255,255)" d="M 10719,14380 L 9797,13464 10079,13180 11923,15013 11641,15297 10719,14380 Z"/>
         </g>
        </g>
       </g>
       <g class="Group">
        <g class="Group">
         <g class="com.sun.star.drawing.CustomShape">
          <g id="id10">
           <rect class="BoundingBox" stroke="none" fill="none" x="9173" y="5600" width="10229" height="10283"/>
           <path fill="rgb(17,17,17)" stroke="none" d="M 19259,5742 L 19400,5883 9458,15881 9174,15599 19117,5601 19259,5742 Z"/>
           <path fill="none" stroke="rgb(52,101,164)" d="M 19259,5742 L 19400,5883 9458,15881 9174,15599 19117,5601 19259,5742 Z"/>
          </g>
         </g>
         <g class="com.sun.star.drawing.CustomShape">
          <g id="id11">
           <rect class="BoundingBox" stroke="none" fill="none" x="13191" y="10847" width="992" height="994"/>
           <path fill="rgb(248,248,0)" stroke="none" d="M 14039,10989 L 14181,11130 13476,11839 13192,11557 13897,10848 14039,10989 Z"/>
           <path fill="none" stroke="rgb(52,101,164)" d="M 14039,10989 L 14181,11130 13476,11839 13192,11557 13897,10848 14039,10989 Z"/>
          </g>
         </g>
         <g class="com.sun.star.drawing.CustomShape">
          <g id="id12">
           <rect class="BoundingBox" stroke="none" fill="none" x="13191" y="10847" width="992" height="994"/>
           <path fill="rgb(248,248,0)" stroke="none" d="M 14039,10989 L 14181,11130 13476,11839 13192,11557 13897,10848 14039,10989 Z"/>
           <path fill="none" stroke="rgb(52,101,164)" d="M 14039,10989 L 14181,11130 13476,11839 13192,11557 13897,10848 14039,10989 Z"/>
          </g>
         </g>
         <g class="com.sun.star.drawing.CustomShape">
          <g id="id13">
           <rect class="BoundingBox" stroke="none" fill="none" x="15940" y="8081" width="992" height="994"/>
           <path fill="rgb(248,248,0)" stroke="none" d="M 16788,8223 L 16930,8364 16225,9073 15941,8791 16646,8082 16788,8223 Z"/>
           <path fill="none" stroke="rgb(52,101,164)" d="M 16788,8223 L 16930,8364 16225,9073 15941,8791 16646,8082 16788,8223 Z"/>
          </g>
         </g>
         <g class="com.sun.star.drawing.CustomShape">
          <g id="id14">
           <rect class="BoundingBox" stroke="none" fill="none" x="14530" y="9500" width="992" height="994"/>
           <path fill="rgb(248,248,0)" stroke="none" d="M 15378,9642 L 15520,9783 14815,10492 14531,10210 15236,9501 15378,9642 Z"/>
           <path fill="none" stroke="rgb(52,101,164)" d="M 15378,9642 L 15520,9783 14815,10492 14531,10210 15236,9501 15378,9642 Z"/>
          </g>
         </g>
         <g class="com.sun.star.drawing.CustomShape">
          <g id="id15">
           <rect class="BoundingBox" stroke="none" fill="none" x="10371" y="13684" width="992" height="994"/>
           <path fill="rgb(248,248,0)" stroke="none" d="M 11219,13826 L 11361,13967 10656,14676 10372,14394 11077,13685 11219,13826 Z"/>
           <path fill="none" stroke="rgb(52,101,164)" d="M 11219,13826 L 11361,13967 10656,14676 10372,14394 11077,13685 11219,13826 Z"/>
          </g>
         </g>
         <g class="com.sun.star.drawing.CustomShape">
          <g id="id16">
           <rect class="BoundingBox" stroke="none" fill="none" x="11781" y="12266" width="992" height="994"/>
           <path fill="rgb(248,248,0)" stroke="none" d="M 12629,12408 L 12771,12549 12066,13258 11782,12976 12487,12267 12629,12408 Z"/>
           <path fill="none" stroke="rgb(52,101,164)" d="M 12629,12408 L 12771,12549 12066,13258 11782,12976 12487,12267 12629,12408 Z"/>
          </g>
         </g>
         <g class="com.sun.star.drawing.CustomShape">
          <g id="id17">
           <rect class="BoundingBox" stroke="none" fill="none" x="17421" y="6592" width="992" height="994"/>
           <path fill="rgb(248,248,0)" stroke="none" d="M 18269,6734 L 18411,6875 17706,7584 17422,7302 18127,6593 18269,6734 Z"/>
           <path fill="none" stroke="rgb(52,101,164)" d="M 18269,6734 L 18411,6875 17706,7584 17422,7302 18127,6593 18269,6734 Z"/>
          </g>
         </g>
        </g>
        <g class="com.sun.star.drawing.CustomShape">
         <g id="id18">
          <rect class="BoundingBox" stroke="none" fill="none" x="10546" y="13648" width="852" height="851"/>
          <path fill="rgb(248,248,0)" stroke="none" d="M 11255,13791 L 11396,13933 10829,14497 10547,14213 11114,13649 11255,13791 Z"/>
          <path fill="none" stroke="rgb(52,101,164)" d="M 11255,13791 L 11396,13933 10829,14497 10547,14213 11114,13649 11255,13791 Z"/>
         </g>
        </g>
        <g class="com.sun.star.drawing.CustomShape">
         <g id="id19">
          <rect class="BoundingBox" stroke="none" fill="none" x="8713" y="15481" width="852" height="851"/>
          <path fill="rgb(248,248,0)" stroke="none" d="M 9422,15624 L 9563,15766 8996,16330 8714,16046 9281,15482 9422,15624 Z"/>
          <path fill="none" stroke="rgb(52,101,164)" d="M 9422,15624 L 9563,15766 8996,16330 8714,16046 9281,15482 9422,15624 Z"/>
         </g>
        </g>
       </g>
      </g>
     </g>
    </g>
   </g>
  </g>
 </g>
</svg>