<?xml version="1.0" encoding="UTF-8"?>
<!DOCTYPE svg PUBLIC "-//W3C//DTD SVG 1.1//EN" "http://www.w3.org/Graphics/SVG/1.1/DTD/svg11.dtd">
<svg version="1.2" width="297mm" height="210mm" viewBox="0 0 29700 21000" preserveAspectRatio="xMidYMid" fill-rule="evenodd" stroke-width="28.222" stroke-linejoin="round" xmlns="http://www.w3.org/2000/svg" xmlns:ooo="http://xml.openoffice.org/svg/export" xmlns:xlink="http://www.w3.org/1999/xlink" xmlns:presentation="http://sun.com/xmlns/staroffice/presentation" xmlns:smil="http://www.w3.org/2001/SMIL20/" xmlns:anim="urn:oasis:names:tc:opendocument:xmlns:animation:1.0" xml:space="preserve">
 <defs class="ClipPathGroup">
  <clipPath id="presentation_clip_path" clipPathUnits="userSpaceOnUse">
   <rect x="0" y="0" width="29700" height="21000"/>
  </clipPath>
  <clipPath id="presentation_clip_path_shrink" clipPathUnits="userSpaceOnUse">
   <rect x="29" y="21" width="29641" height="20958"/>
  </clipPath>
 </defs>
 <defs class="TextShapeIndex">
  <g ooo:slide="id1" ooo:id-list="id3 id4 id5 id6 id7 id8 id9 id10 id11 id12 id13 id14 id15 id16 id17 id18 id19"/>
 </defs>
 <defs class="EmbeddedBulletChars">
  <g id="bullet-char-template-57356" transform="scale(0.00048828125,-0.00048828125)">
   <path d="M 580,1141 L 1163,571 580,0 -4,571 580,1141 Z"/>
  </g>
  <g id="bullet-char-template-57354" transform="scale(0.00048828125,-0.00048828125)">
   <path d="M 8,1128 L 1137,1128 1137,0 8,0 8,1128 Z"/>
  </g>
  <g id="bullet-char-template-10146" transform="scale(0.00048828125,-0.00048828125)">
   <path d="M 174,0 L 602,739 174,1481 1456,739 174,0 Z M 1358,739 L 309,1346 659,739 1358,739 Z"/>
  </g>
  <g id="bullet-char-template-10132" transform="scale(0.00048828125,-0.00048828125)">
   <path d="M 2015,739 L 1276,0 717,0 1260,543 174,543 174,936 1260,936 717,1481 1274,1481 2015,739 Z"/>
  </g>
  <g id="bullet-char-template-10007" transform="scale(0.00048828125,-0.00048828125)">
   <path d="M 0,-2 C -7,14 -16,27 -25,37 L 356,567 C 262,823 215,952 215,954 215,979 228,992 255,992 264,992 276,990 289,987 310,991 331,999 354,1012 L 381,999 492,748 772,1049 836,1024 860,1049 C 881,1039 901,1025 922,1006 886,937 835,863 770,784 769,783 710,716 594,584 L 774,223 C 774,196 753,168 711,139 L 727,119 C 717,90 699,76 672,76 641,76 570,178 457,381 L 164,-76 C 142,-110 111,-127 72,-127 30,-127 9,-110 8,-76 1,-67 -2,-52 -2,-32 -2,-23 -1,-13 0,-2 Z"/>
  </g>
  <g id="bullet-char-template-10004" transform="scale(0.00048828125,-0.00048828125)">
   <path d="M 285,-33 C 182,-33 111,30 74,156 52,228 41,333 41,471 41,549 55,616 82,672 116,743 169,778 240,778 293,778 328,747 346,684 L 369,508 C 377,444 397,411 428,410 L 1163,1116 C 1174,1127 1196,1133 1229,1133 1271,1133 1292,1118 1292,1087 L 1292,965 C 1292,929 1282,901 1262,881 L 442,47 C 390,-6 338,-33 285,-33 Z"/>
  </g>
  <g id="bullet-char-template-9679" transform="scale(0.00048828125,-0.00048828125)">
   <path d="M 813,0 C 632,0 489,54 383,161 276,268 223,411 223,592 223,773 276,916 383,1023 489,1130 632,1184 813,1184 992,1184 1136,1130 1245,1023 1353,916 1407,772 1407,592 1407,412 1353,268 1245,161 1136,54 992,0 813,0 Z"/>
  </g>
  <g id="bullet-char-template-8226" transform="scale(0.00048828125,-0.00048828125)">
   <path d="M 346,457 C 273,457 209,483 155,535 101,586 74,649 74,723 74,796 101,859 155,911 209,963 273,989 346,989 419,989 480,963 531,910 582,859 608,796 608,723 608,648 583,586 532,535 482,483 420,457 346,457 Z"/>
  </g>
  <g id="bullet-char-template-8211" transform="scale(0.00048828125,-0.00048828125)">
   <path d="M -4,459 L 1135,459 1135,606 -4,606 -4,459 Z"/>
  </g>
  <g id="bullet-char-template-61548" transform="scale(0.00048828125,-0.00048828125)">
   <path d="M 173,740 C 173,903 231,1043 346,1159 462,1274 601,1332 765,1332 928,1332 1067,1274 1183,1159 1299,1043 1357,903 1357,740 1357,577 1299,437 1183,322 1067,206 928,148 765,148 601,148 462,206 346,322 231,437 173,577 173,740 Z"/>
  </g>
 </defs>
 <g>
  <g id="id2" class="Master_Slide">
   <g id="bg-id2" class="Background"/>
   <g id="bo-id2" class="BackgroundObjects"/>
  </g>
 </g>
 <g class="SlideGroup">
  <g>
   <g id="container-id1">
    <g id="id1" class="Slide" clip-path="url(#presentation_clip_path)">
     <g class="Page">
      <g class="Group">
       <g class="Group">
        <g class="Group">
         <g class="com.sun.star.drawing.CustomShape">
          <g id="id3">
           <rect class="BoundingBox" stroke="none" fill="none" x="15308" y="13622" width="3166" height="2969"/>
           <path fill="rgb(255,255,0)" stroke="none" d="M 15825,15852 L 15309,15115 17440,13623 18472,15097 16341,16589 15825,15852 Z"/>
           <path fill="none" stroke="rgb(52,101,164)" d="M 15825,15852 L 15309,15115 17440,13623 18472,15097 16341,16589 15825,15852 Z"/>
          </g>
         </g>
         <g class="com.sun.star.drawing.CustomShape">
          <g id="id4">
           <rect class="BoundingBox" stroke="none" fill="none" x="17425" y="13816" width="581" height="2091"/>
           <path fill="rgb(0,0,0)" stroke="none" d="M 17516,14844 L 17606,13817 18004,13852 17824,15905 17426,15870 17516,14844 Z"/>
           <path fill="none" stroke="rgb(52,101,164)" d="M 17516,14844 L 17606,13817 18004,13852 17824,15905 17426,15870 17516,14844 Z"/>
          </g>
         </g>
         <g class="com.sun.star.drawing.CustomShape">
          <g id="id5">
           <rect class="BoundingBox" stroke="none" fill="none" x="17439" y="13393" width="1363" height="1707"/>
           <path fill="rgb(255,255,255)" stroke="none" d="M 17955,14361 L 17440,13624 17768,13394 18800,14868 18471,15098 17955,14361 Z"/>
           <path fill="none" stroke="rgb(255,255,255)" d="M 17955,14361 L 17440,13624 17768,13394 18800,14868 18471,15098 17955,14361 Z"/>
          </g>
         </g>
        </g>
        <g class="com.sun.star.drawing.CustomShape">
         <g id="id6">
          <rect class="BoundingBox" stroke="none" fill="none" x="16085" y="14122" width="611" height="2404"/>
          <path fill="rgb(0,0,0)" stroke="none" d="M 16190,15306 L 16294,14123 16694,14158 16486,16524 16086,16489 16190,15306 Z"/>
          <path fill="none" stroke="rgb(52,101,164)" d="M 16190,15306 L 16294,14123 16694,14158 16486,16524 16086,16489 16190,15306 Z"/>
         </g>
        </g>
        <g class="com.sun.star.drawing.CustomShape">
         <g id="id7">
          <rect class="BoundingBox" stroke="none" fill="none" x="15145" y="14999" width="1363" height="1707"/>
          <path fill="rgb(255,255,255)" stroke="none" d="M 15661,15967 L 15146,15230 15474,15000 16506,16474 16177,16704 15661,15967 Z"/>
          <path fill="none" stroke="rgb(255,255,255)" d="M 15661,15967 L 15146,15230 15474,15000 16506,16474 16177,16704 15661,15967 Z"/>
         </g>
        </g>
        <g class="com.sun.star.drawing.CustomShape">
         <g id="id8">
          <rect class="BoundingBox" stroke="none" fill="none" x="16420" y="15037" width="2365" height="1816"/>
          <path fill="rgb(255,255,255)" stroke="none" d="M 17716,16108 L 16649,16851 16421,16523 18555,15038 18783,15366 17716,16108 Z"/>
          <path fill="none" stroke="rgb(255,255,255)" d="M 17716,16108 L 16649,16851 16421,16523 18555,15038 18783,15366 17716,16108 Z"/>
         </g>
        </g>
        <g class="com.sun.star.drawing.CustomShape">
         <g id="id9">
          <rect class="BoundingBox" stroke="none" fill="none" x="15158" y="13235" width="2365" height="1816"/>
          <path fill="rgb(255,255,255)" stroke="none" d="M 16454,14306 L 15387,15049 15159,14721 17293,13236 17521,13564 16454,14306 Z"/>
          <path fill="none" stroke="rgb(255,255,255)" d="M 16454,14306 L 15387,15049 15159,14721 17293,13236 17521,13564 16454,14306 Z"/>
         </g>
        </g>
       </g>
       <g class="Group">
        <g class="Group">
         <g class="com.sun.star.drawing.CustomShape">
          <g id="id10">
           <rect class="BoundingBox" stroke="none" fill="none" x="9371" y="4209" width="8396" height="11797"/>
           <path fill="rgb(17,17,17)" stroke="none" d="M 9536,4325 L 9700,4210 17765,15776 17438,16004 9372,4439 9536,4325 Z"/>
           <path fill="none" stroke="rgb(52,101,164)" d="M 9536,4325 L 9700,4210 17765,15776 17438,16004 9372,4439 9536,4325 Z"/>
          </g>
         </g>
         <g class="com.sun.star.drawing.CustomShape">
          <g id="id11">
           <rect class="BoundingBox" stroke="none" fill="none" x="13606" y="10278" width="902" height="1051"/>
           <path fill="rgb(248,248,0)" stroke="none" d="M 13770,10393 L 13934,10279 14506,11099 14179,11327 13607,10507 13770,10393 Z"/>
           <path fill="none" stroke="rgb(52,101,164)" d="M 13770,10393 L 13934,10279 14506,11099 14179,11327 13607,10507 13770,10393 Z"/>
          </g>
         </g>
         <g class="com.sun.star.drawing.CustomShape">
          <g id="id12">
           <rect class="BoundingBox" stroke="none" fill="none" x="13606" y="10278" width="902" height="1051"/>
           <path fill="rgb(248,248,0)" stroke="none" d="M 13770,10393 L 13934,10279 14506,11099 14179,11327 13607,10507 13770,10393 Z"/>
           <path fill="none" stroke="rgb(52,101,164)" d="M 13770,10393 L 13934,10279 14506,11099 14179,11327 13607,10507 13770,10393 Z"/>
          </g>
         </g>
         <g class="com.sun.star.drawing.CustomShape">
          <g id="id13">
           <rect class="BoundingBox" stroke="none" fill="none" x="11379" y="7076" width="902" height="1051"/>
           <path fill="rgb(248,248,0)" stroke="none" d="M 11543,7191 L 11707,7077 12279,7897 11952,8125 11380,7305 11543,7191 Z"/>
           <path fill="none" stroke="rgb(52,101,164)" d="M 11543,7191 L 11707,7077 12279,7897 11952,8125 11380,7305 11543,7191 Z"/>
          </g>
         </g>
         <g class="com.sun.star.drawing.CustomShape">
          <g id="id14">
           <rect class="BoundingBox" stroke="none" fill="none" x="12521" y="8718" width="902" height="1051"/>
           <path fill="rgb(248,248,0)" stroke="none" d="M 12685,8833 L 12849,8719 13421,9539 13094,9767 12522,8947 12685,8833 Z"/>
           <path fill="none" stroke="rgb(52,101,164)" d="M 12685,8833 L 12849,8719 13421,9539 13094,9767 12522,8947 12685,8833 Z"/>
          </g>
         </g>
         <g class="com.sun.star.drawing.CustomShape">
          <g id="id15">
           <rect class="BoundingBox" stroke="none" fill="none" x="15891" y="13561" width="902" height="1051"/>
           <path fill="rgb(248,248,0)" stroke="none" d="M 16055,13676 L 16219,13562 16791,14382 16464,14610 15892,13790 16055,13676 Z"/>
           <path fill="none" stroke="rgb(52,101,164)" d="M 16055,13676 L 16219,13562 16791,14382 16464,14610 15892,13790 16055,13676 Z"/>
          </g>
         </g>
         <g class="com.sun.star.drawing.CustomShape">
          <g id="id16">
           <rect class="BoundingBox" stroke="none" fill="none" x="14748" y="11920" width="902" height="1051"/>
           <path fill="rgb(248,248,0)" stroke="none" d="M 14912,12035 L 15076,11921 15648,12741 15321,12969 14749,12149 14912,12035 Z"/>
           <path fill="none" stroke="rgb(52,101,164)" d="M 14912,12035 L 15076,11921 15648,12741 15321,12969 14749,12149 14912,12035 Z"/>
          </g>
         </g>
         <g class="com.sun.star.drawing.CustomShape">
          <g id="id17">
           <rect class="BoundingBox" stroke="none" fill="none" x="10179" y="5353" width="902" height="1051"/>
           <path fill="rgb(248,248,0)" stroke="none" d="M 10343,5468 L 10507,5354 11079,6174 10752,6402 10180,5582 10343,5468 Z"/>
           <path fill="none" stroke="rgb(52,101,164)" d="M 10343,5468 L 10507,5354 11079,6174 10752,6402 10180,5582 10343,5468 Z"/>
          </g>
         </g>
        </g>
        <g class="com.sun.star.drawing.CustomShape">
         <g id="id18">
          <rect class="BoundingBox" stroke="none" fill="none" x="15864" y="13518" width="790" height="887"/>
          <path fill="rgb(248,248,0)" stroke="none" d="M 16028,13634 L 16192,13519 16652,14173 16325,14403 15865,13749 16028,13634 Z"/>
          <path fill="none" stroke="rgb(52,101,164)" d="M 16028,13634 L 16192,13519 16652,14173 16325,14403 15865,13749 16028,13634 Z"/>
         </g>
        </g>
        <g class="com.sun.star.drawing.CustomShape">
         <g id="id19">
          <rect class="BoundingBox" stroke="none" fill="none" x="17351" y="15642" width="790" height="887"/>
          <path fill="rgb(248,248,0)" stroke="none" d="M 17515,15758 L 17679,15643 18139,16297 17812,16527 17352,15873 17515,15758 Z"/>
          <path fill="none" stroke="rgb(52,101,164)" d="M 17515,15758 L 17679,15643 18139,16297 17812,16527 17352,15873 17515,15758 Z"/>
         </g>
        </g>
       </g>
      </g>
     </g>
    </g>
   </g>
  </g>
 </g>
</svg>