<?xml version="1.0" encoding="UTF-8"?>
<!DOCTYPE svg PUBLIC "-//W3C//DTD SVG 1.1//EN" "http://www.w3.org/Graphics/SVG/1.1/DTD/svg11.dtd">
<svg version="1.2" width="297mm" height="210mm" viewBox="0 0 29700 21000" preserveAspectRatio="xMidYMid" fill-rule="evenodd" stroke-width="28.222" stroke-linejoin="round" xmlns="http://www.w3.org/2000/svg" xmlns:ooo="http://xml.openoffice.org/svg/export" xmlns:xlink="http://www.w3.org/1999/xlink" xmlns:presentation="http://sun.com/xmlns/staroffice/presentation" xmlns:smil="http://www.w3.org/2001/SMIL20/" xmlns:anim="urn:oasis:names:tc:opendocument:xmlns:animation:1.0" xml:space="preserve">
 <defs class="ClipPathGroup">
  <clipPath id="presentation_clip_path" clipPathUnits="userSpaceOnUse">
   <rect x="0" y="0" width="29700" height="21000"/>
  </clipPath>
  <clipPath id="presentation_clip_path_shrink" clipPathUnits="userSpaceOnUse">
   <rect x="29" y="21" width="29641" height="20958"/>
  </clipPath>
 </defs>
 <defs class="TextShapeIndex">
  <g ooo:slide="id1" ooo:id-list="id3 id4 id5 id6 id7 id8 id9 id10 id11 id12 id13 id14 id15 id16 id17 id18 id19"/>
 </defs>
 <defs class="EmbeddedBulletChars">
  <g id="bullet-char-template-57356" transform="scale(0.00048828125,-0.00048828125)">
   <path d="M 580,1141 L 1163,571 580,0 -4,571 580,1141 Z"/>
  </g>
  <g id="bullet-char-template-57354" transform="scale(0.00048828125,-0.00048828125)">
   <path d="M 8,1128 L 1137,1128 1137,0 8,0 8,1128 Z"/>
  </g>
  <g id="bullet-char-template-10146" transform="scale(0.00048828125,-0.00048828125)">
   <path d="M 174,0 L 602,739 174,1481 1456,739 174,0 Z M 1358,739 L 309,1346 659,739 1358,739 Z"/>
  </g>
  <g id="bullet-char-template-10132" transform="scale(0.00048828125,-0.00048828125)">
   <path d="M 2015,739 L 1276,0 717,0 1260,543 174,543 174,936 1260,936 717,1481 1274,1481 2015,739 Z"/>
  </g>
  <g id="bullet-char-template-10007" transform="scale(0.00048828125,-0.00048828125)">
   <path d="M 0,-2 C -7,14 -16,27 -25,37 L 356,567 C 262,823 215,952 215,954 215,979 228,992 255,992 264,992 276,990 289,987 310,991 331,999 354,1012 L 381,999 492,748 772,1049 836,1024 860,1049 C 881,1039 901,1025 922,1006 886,937 835,863 770,784 769,783 710,716 594,584 L 774,223 C 774,196 753,168 711,139 L 727,119 C 717,90 699,76 672,76 641,76 570,178 457,381 L 164,-76 C 142,-110 111,-127 72,-127 30,-127 9,-110 8,-76 1,-67 -2,-52 -2,-32 -2,-23 -1,-13 0,-2 Z"/>
  </g>
  <g id="bullet-char-template-10004" transform="scale(0.00048828125,-0.00048828125)">
   <path d="M 285,-33 C 182,-33 111,30 74,156 52,228 41,333 41,471 41,549 55,616 82,672 116,743 169,778 240,778 293,778 328,747 346,684 L 369,508 C 377,444 397,411 428,410 L 1163,1116 C 1174,1127 1196,1133 1229,1133 1271,1133 1292,1118 1292,1087 L 1292,965 C 1292,929 1282,901 1262,881 L 442,47 C 390,-6 338,-33 285,-33 Z"/>
  </g>
  <g id="bullet-char-template-9679" transform="scale(0.00048828125,-0.00048828125)">
   <path d="M 813,0 C 632,0 489,54 383,161 276,268 223,411 223,592 223,773 276,916 383,1023 489,1130 632,1184 813,1184 992,1184 1136,1130 1245,1023 1353,916 1407,772 1407,592 1407,412 1353,268 1245,161 1136,54 992,0 813,0 Z"/>
  </g>
  <g id="bullet-char-template-8226" transform="scale(0.00048828125,-0.00048828125)">
   <path d="M 346,457 C 273,457 209,483 155,535 101,586 74,649 74,723 74,796 101,859 155,911 209,963 273,989 346,989 419,989 480,963 531,910 582,859 608,796 608,723 608,648 583,586 532,535 482,483 420,457 346,457 Z"/>
  </g>
  <g id="bullet-char-template-8211" transform="scale(0.00048828125,-0.00048828125)">
   <path d="M -4,459 L 1135,459 1135,606 -4,606 -4,459 Z"/>
  </g>
  <g id="bullet-char-template-61548" transform="scale(0.00048828125,-0.00048828125)">
   <path d="M 173,740 C 173,903 231,1043 346,1159 462,1274 601,1332 765,1332 928,1332 1067,1274 1183,1159 1299,1043 1357,903 1357,740 1357,577 1299,437 1183,322 1067,206 928,148 765,148 601,148 462,206 346,322 231,437 173,577 173,740 Z"/>
  </g>
 </defs>
 <g>
  <g id="id2" class="Master_Slide">
   <g id="bg-id2" class="Background"/>
   <g id="bo-id2" class="BackgroundObjects"/>
  </g>
 </g>
 <g class="SlideGroup">
  <g>
   <g id="container-id1">
    <g id="id1" class="Slide" clip-path="url(#presentation_clip_path)">
     <g class="Page">
      <g class="Group">
       <g class="Group">
        <g class="Group">
         <g class="com.sun.star.drawing.CustomShape">
          <g id="id3">
           <rect class="BoundingBox" stroke="none" fill="none" x="8542" y="13509" width="3152" height="3053"/>
           <path fill="rgb(255,255,0)" stroke="none" d="M 11113,15871 L 10535,16560 8543,14889 9700,13510 11692,15181 11113,15871 Z"/>
           <path fill="none" stroke="rgb(52,101,164)" d="M 11113,15871 L 10535,16560 8543,14889 9700,13510 11692,15181 11113,15871 Z"/>
          </g>
         </g>
         <g class="com.sun.star.drawing.CustomShape">
          <g id="id4">
           <rect class="BoundingBox" stroke="none" fill="none" x="9115" y="13687" width="404" height="2064"/>
           <path fill="rgb(0,0,0)" stroke="none" d="M 9517,14718 L 9517,15749 9117,15749 9116,13688 9516,13688 9517,14718 Z"/>
           <path fill="none" stroke="rgb(52,101,164)" d="M 9517,14718 L 9517,15749 9117,15749 9116,13688 9516,13688 9517,14718 Z"/>
          </g>
         </g>
         <g class="com.sun.star.drawing.CustomShape">
          <g id="id5">
           <rect class="BoundingBox" stroke="none" fill="none" x="8234" y="13252" width="1466" height="1639"/>
           <path fill="rgb(255,255,255)" stroke="none" d="M 9120,14200 L 8541,14889 8235,14632 9392,13253 9698,13510 9120,14200 Z"/>
           <path fill="none" stroke="rgb(255,255,255)" d="M 9120,14200 L 8541,14889 8235,14632 9392,13253 9698,13510 9120,14200 Z"/>
          </g>
         </g>
        </g>
        <g class="com.sun.star.drawing.CustomShape">
         <g id="id6">
          <rect class="BoundingBox" stroke="none" fill="none" x="10393" y="14108" width="404" height="2378"/>
          <path fill="rgb(0,0,0)" stroke="none" d="M 10795,15296 L 10795,16484 10395,16484 10394,14109 10794,14109 10795,15296 Z"/>
          <path fill="none" stroke="rgb(52,101,164)" d="M 10795,15296 L 10795,16484 10395,16484 10394,14109 10794,14109 10795,15296 Z"/>
         </g>
        </g>
        <g class="com.sun.star.drawing.CustomShape">
         <g id="id7">
          <rect class="BoundingBox" stroke="none" fill="none" x="10379" y="15052" width="1466" height="1639"/>
          <path fill="rgb(255,255,255)" stroke="none" d="M 11265,16000 L 10686,16689 10380,16432 11537,15053 11843,15310 11265,16000 Z"/>
          <path fill="none" stroke="rgb(255,255,255)" d="M 11265,16000 L 10686,16689 10380,16432 11537,15053 11843,15310 11265,16000 Z"/>
         </g>
        </g>
        <g class="com.sun.star.drawing.CustomShape">
         <g id="id8">
          <rect class="BoundingBox" stroke="none" fill="none" x="8208" y="14823" width="2256" height="1976"/>
          <path fill="rgb(255,255,255)" stroke="none" d="M 9207,15964 L 8209,15131 8465,14824 10462,16489 10205,16797 9207,15964 Z"/>
          <path fill="none" stroke="rgb(255,255,255)" d="M 9207,15964 L 8209,15131 8465,14824 10462,16489 10205,16797 9207,15964 Z"/>
         </g>
        </g>
        <g class="com.sun.star.drawing.CustomShape">
         <g id="id9">
          <rect class="BoundingBox" stroke="none" fill="none" x="9622" y="13138" width="2256" height="1976"/>
          <path fill="rgb(255,255,255)" stroke="none" d="M 10621,14279 L 9623,13446 9879,13139 11876,14804 11619,15112 10621,14279 Z"/>
          <path fill="none" stroke="rgb(255,255,255)" d="M 10621,14279 L 9623,13446 9879,13139 11876,14804 11619,15112 10621,14279 Z"/>
         </g>
        </g>
       </g>
       <g class="Group">
        <g class="Group">
         <g class="com.sun.star.drawing.CustomShape">
          <g id="id10">
           <rect class="BoundingBox" stroke="none" fill="none" x="9188" y="4799" width="9343" height="11086"/>
           <path fill="rgb(17,17,17)" stroke="none" d="M 18376,4928 L 18529,5057 9496,15883 9189,15627 18222,4800 18376,4928 Z"/>
           <path fill="none" stroke="rgb(52,101,164)" d="M 18376,4928 L 18529,5057 9496,15883 9189,15627 18222,4800 18376,4928 Z"/>
          </g>
         </g>
         <g class="com.sun.star.drawing.CustomShape">
          <g id="id11">
           <rect class="BoundingBox" stroke="none" fill="none" x="12840" y="10482" width="951" height="1027"/>
           <path fill="rgb(248,248,0)" stroke="none" d="M 13635,10611 L 13789,10739 13148,11507 12841,11251 13482,10483 13635,10611 Z"/>
           <path fill="none" stroke="rgb(52,101,164)" d="M 13635,10611 L 13789,10739 13148,11507 12841,11251 13482,10483 13635,10611 Z"/>
          </g>
         </g>
         <g class="com.sun.star.drawing.CustomShape">
          <g id="id12">
           <rect class="BoundingBox" stroke="none" fill="none" x="12840" y="10482" width="951" height="1027"/>
           <path fill="rgb(248,248,0)" stroke="none" d="M 13635,10611 L 13789,10739 13148,11507 12841,11251 13482,10483 13635,10611 Z"/>
           <path fill="none" stroke="rgb(52,101,164)" d="M 13635,10611 L 13789,10739 13148,11507 12841,11251 13482,10483 13635,10611 Z"/>
          </g>
         </g>
         <g class="com.sun.star.drawing.CustomShape">
          <g id="id13">
           <rect class="BoundingBox" stroke="none" fill="none" x="15338" y="7487" width="951" height="1027"/>
           <path fill="rgb(248,248,0)" stroke="none" d="M 16133,7616 L 16287,7744 15646,8512 15339,8256 15980,7488 16133,7616 Z"/>
           <path fill="none" stroke="rgb(52,101,164)" d="M 16133,7616 L 16287,7744 15646,8512 15339,8256 15980,7488 16133,7616 Z"/>
          </g>
         </g>
         <g class="com.sun.star.drawing.CustomShape">
          <g id="id14">
           <rect class="BoundingBox" stroke="none" fill="none" x="14057" y="9023" width="951" height="1027"/>
           <path fill="rgb(248,248,0)" stroke="none" d="M 14852,9152 L 15006,9280 14365,10048 14058,9792 14699,9024 14852,9152 Z"/>
           <path fill="none" stroke="rgb(52,101,164)" d="M 14852,9152 L 15006,9280 14365,10048 14058,9792 14699,9024 14852,9152 Z"/>
          </g>
         </g>
         <g class="com.sun.star.drawing.CustomShape">
          <g id="id15">
           <rect class="BoundingBox" stroke="none" fill="none" x="10278" y="13554" width="951" height="1027"/>
           <path fill="rgb(248,248,0)" stroke="none" d="M 11073,13683 L 11227,13811 10586,14579 10279,14323 10920,13555 11073,13683 Z"/>
           <path fill="none" stroke="rgb(52,101,164)" d="M 11073,13683 L 11227,13811 10586,14579 10279,14323 10920,13555 11073,13683 Z"/>
          </g>
         </g>
         <g class="com.sun.star.drawing.CustomShape">
          <g id="id16">
           <rect class="BoundingBox" stroke="none" fill="none" x="11559" y="12018" width="951" height="1027"/>
           <path fill="rgb(248,248,0)" stroke="none" d="M 12354,12147 L 12508,12275 11867,13043 11560,12787 12201,12019 12354,12147 Z"/>
           <path fill="none" stroke="rgb(52,101,164)" d="M 12354,12147 L 12508,12275 11867,13043 11560,12787 12201,12019 12354,12147 Z"/>
          </g>
         </g>
         <g class="com.sun.star.drawing.CustomShape">
          <g id="id17">
           <rect class="BoundingBox" stroke="none" fill="none" x="16683" y="5874" width="951" height="1027"/>
           <path fill="rgb(248,248,0)" stroke="none" d="M 17478,6003 L 17632,6131 16991,6899 16684,6643 17325,5875 17478,6003 Z"/>
           <path fill="none" stroke="rgb(52,101,164)" d="M 17478,6003 L 17632,6131 16991,6899 16684,6643 17325,5875 17478,6003 Z"/>
          </g>
         </g>
        </g>
        <g class="com.sun.star.drawing.CustomShape">
         <g id="id18">
          <rect class="BoundingBox" stroke="none" fill="none" x="10435" y="13515" width="825" height="872"/>
          <path fill="rgb(248,248,0)" stroke="none" d="M 11105,13645 L 11258,13774 10742,14385 10436,14127 10952,13516 11105,13645 Z"/>
          <path fill="none" stroke="rgb(52,101,164)" d="M 11105,13645 L 11258,13774 10742,14385 10436,14127 10952,13516 11105,13645 Z"/>
         </g>
        </g>
        <g class="com.sun.star.drawing.CustomShape">
         <g id="id19">
          <rect class="BoundingBox" stroke="none" fill="none" x="8769" y="15500" width="825" height="872"/>
          <path fill="rgb(248,248,0)" stroke="none" d="M 9439,15630 L 9592,15759 9076,16370 8770,16112 9286,15501 9439,15630 Z"/>
          <path fill="none" stroke="rgb(52,101,164)" d="M 9439,15630 L 9592,15759 9076,16370 8770,16112 9286,15501 9439,15630 Z"/>
         </g>
        </g>
       </g>
      </g>
     </g>
    </g>
   </g>
  </g>
 </g>
</svg>