<?xml version="1.0" encoding="UTF-8"?>
<!DOCTYPE svg PUBLIC "-//W3C//DTD SVG 1.1//EN" "http://www.w3.org/Graphics/SVG/1.1/DTD/svg11.dtd">
<svg version="1.2" width="297mm" height="210mm" viewBox="0 0 29700 21000" preserveAspectRatio="xMidYMid" fill-rule="evenodd" stroke-width="28.222" stroke-linejoin="round" xmlns="http://www.w3.org/2000/svg" xmlns:ooo="http://xml.openoffice.org/svg/export" xmlns:xlink="http://www.w3.org/1999/xlink" xmlns:presentation="http://sun.com/xmlns/staroffice/presentation" xmlns:smil="http://www.w3.org/2001/SMIL20/" xmlns:anim="urn:oasis:names:tc:opendocument:xmlns:animation:1.0" xml:space="preserve">
 <defs class="ClipPathGroup">
  <clipPath id="presentation_clip_path" clipPathUnits="userSpaceOnUse">
   <rect x="0" y="0" width="29700" height="21000"/>
  </clipPath>
  <clipPath id="presentation_clip_path_shrink" clipPathUnits="userSpaceOnUse">
   <rect x="29" y="21" width="29641" height="20958"/>
  </clipPath>
 </defs>
 <defs class="TextShapeIndex">
  <g ooo:slide="id1" ooo:id-list="id3 id4 id5 id6 id7 id8 id9 id10 id11 id12 id13 id14 id15 id16 id17 id18 id19"/>
 </defs>
 <defs class="EmbeddedBulletChars">
  <g id="bullet-char-template-57356" transform="scale(0.00048828125,-0.00048828125)">
   <path d="M 580,1141 L 1163,571 580,0 -4,571 580,1141 Z"/>
  </g>
  <g id="bullet-char-template-57354" transform="scale(0.00048828125,-0.00048828125)">
   <path d="M 8,1128 L 1137,1128 1137,0 8,0 8,1128 Z"/>
  </g>
  <g id="bullet-char-template-10146" transform="scale(0.00048828125,-0.00048828125)">
   <path d="M 174,0 L 602,739 174,1481 1456,739 174,0 Z M 1358,739 L 309,1346 659,739 1358,739 Z"/>
  </g>
  <g id="bullet-char-template-10132" transform="scale(0.00048828125,-0.00048828125)">
   <path d="M 2015,739 L 1276,0 717,0 1260,543 174,543 174,936 1260,936 717,1481 1274,1481 2015,739 Z"/>
  </g>
  <g id="bullet-char-template-10007" transform="scale(0.00048828125,-0.00048828125)">
   <path d="M 0,-2 C -7,14 -16,27 -25,37 L 356,567 C 262,823 215,952 215,954 215,979 228,992 255,992 264,992 276,990 289,987 310,991 331,999 354,1012 L 381,999 492,748 772,1049 836,1024 860,1049 C 881,1039 901,1025 922,1006 886,937 835,863 770,784 769,783 710,716 594,584 L 774,223 C 774,196 753,168 711,139 L 727,119 C 717,90 699,76 672,76 641,76 570,178 457,381 L 164,-76 C 142,-110 111,-127 72,-127 30,-127 9,-110 8,-76 1,-67 -2,-52 -2,-32 -2,-23 -1,-13 0,-2 Z"/>
  </g>
  <g id="bullet-char-template-10004" transform="scale(0.00048828125,-0.00048828125)">
   <path d="M 285,-33 C 182,-33 111,30 74,156 52,228 41,333 41,471 41,549 55,616 82,672 116,743 169,778 240,778 293,778 328,747 346,684 L 369,508 C 377,444 397,411 428,410 L 1163,1116 C 1174,1127 1196,1133 1229,1133 1271,1133 1292,1118 1292,1087 L 1292,965 C 1292,929 1282,901 1262,881 L 442,47 C 390,-6 338,-33 285,-33 Z"/>
  </g>
  <g id="bullet-char-template-9679" transform="scale(0.00048828125,-0.00048828125)">
   <path d="M 813,0 C 632,0 489,54 383,161 276,268 223,411 223,592 223,773 276,916 383,1023 489,1130 632,1184 813,1184 992,1184 1136,1130 1245,1023 1353,916 1407,772 1407,592 1407,412 1353,268 1245,161 1136,54 992,0 813,0 Z"/>
  </g>
  <g id="bullet-char-template-8226" transform="scale(0.00048828125,-0.00048828125)">
   <path d="M 346,457 C 273,457 209,483 155,535 101,586 74,649 74,723 74,796 101,859 155,911 209,963 273,989 346,989 419,989 480,963 531,910 582,859 608,796 608,723 608,648 583,586 532,535 482,483 420,457 346,457 Z"/>
  </g>
  <g id="bullet-char-template-8211" transform="scale(0.00048828125,-0.00048828125)">
   <path d="M -4,459 L 1135,459 1135,606 -4,606 -4,459 Z"/>
  </g>
  <g id="bullet-char-template-61548" transform="scale(0.00048828125,-0.00048828125)">
   <path d="M 173,740 C 173,903 231,1043 346,1159 462,1274 601,1332 765,1332 928,1332 1067,1274 1183,1159 1299,1043 1357,903 1357,740 1357,577 1299,437 1183,322 1067,206 928,148 765,148 601,148 462,206 346,322 231,437 173,577 173,740 Z"/>
  </g>
 </defs>
 <g>
  <g id="id2" class="Master_Slide">
   <g id="bg-id2" class="Background"/>
   <g id="bo-id2" class="BackgroundObjects"/>
  </g>
 </g>
 <g class="SlideGroup">
  <g>
   <g id="container-id1">
    <g id="id1" class="Slide" clip-path="url(#presentation_clip_path)">
     <g class="Page">
      <g class="Group">
       <g class="Group">
        <g class="Group">
         <g class="com.sun.star.drawing.CustomShape">
          <g id="id3">
           <rect class="BoundingBox" stroke="none" fill="none" x="15342" y="13609" width="3152" height="3053"/>
           <path fill="rgb(255,255,0)" stroke="none" d="M 15922,15971 L 15343,15281 17335,13610 18492,14989 16500,16660 15922,15971 Z"/>
           <path fill="none" stroke="rgb(52,101,164)" d="M 15922,15971 L 15343,15281 17335,13610 18492,14989 16500,16660 15922,15971 Z"/>
          </g>
         </g>
         <g class="com.sun.star.drawing.CustomShape">
          <g id="id4">
           <rect class="BoundingBox" stroke="none" fill="none" x="17517" y="13787" width="404" height="2064"/>
           <path fill="rgb(0,0,0)" stroke="none" d="M 17518,14818 L 17519,13788 17919,13788 17918,15849 17518,15849 17518,14818 Z"/>
           <path fill="none" stroke="rgb(52,101,164)" d="M 17518,14818 L 17519,13788 17919,13788 17918,15849 17518,15849 17518,14818 Z"/>
          </g>
         </g>
         <g class="com.sun.star.drawing.CustomShape">
          <g id="id5">
           <rect class="BoundingBox" stroke="none" fill="none" x="17336" y="13352" width="1466" height="1639"/>
           <path fill="rgb(255,255,255)" stroke="none" d="M 17915,14300 L 17337,13610 17643,13353 18800,14732 18494,14989 17915,14300 Z"/>
           <path fill="none" stroke="rgb(255,255,255)" d="M 17915,14300 L 17337,13610 17643,13353 18800,14732 18494,14989 17915,14300 Z"/>
          </g>
         </g>
        </g>
        <g class="com.sun.star.drawing.CustomShape">
         <g id="id6">
          <rect class="BoundingBox" stroke="none" fill="none" x="16239" y="14208" width="404" height="2378"/>
          <path fill="rgb(0,0,0)" stroke="none" d="M 16241,15396 L 16241,14209 16641,14209 16640,16584 16240,16584 16241,15396 Z"/>
          <path fill="none" stroke="rgb(52,101,164)" d="M 16241,15396 L 16241,14209 16641,14209 16640,16584 16240,16584 16241,15396 Z"/>
         </g>
        </g>
        <g class="com.sun.star.drawing.CustomShape">
         <g id="id7">
          <rect class="BoundingBox" stroke="none" fill="none" x="15191" y="15152" width="1466" height="1639"/>
          <path fill="rgb(255,255,255)" stroke="none" d="M 15770,16100 L 15192,15410 15498,15153 16655,16532 16349,16789 15770,16100 Z"/>
          <path fill="none" stroke="rgb(255,255,255)" d="M 15770,16100 L 15192,15410 15498,15153 16655,16532 16349,16789 15770,16100 Z"/>
         </g>
        </g>
        <g class="com.sun.star.drawing.CustomShape">
         <g id="id8">
          <rect class="BoundingBox" stroke="none" fill="none" x="16573" y="14922" width="2257" height="1976"/>
          <path fill="rgb(255,255,255)" stroke="none" d="M 17829,16064 L 16831,16896 16574,16588 18571,14923 18828,15231 17829,16064 Z"/>
          <path fill="none" stroke="rgb(255,255,255)" d="M 17829,16064 L 16831,16896 16574,16588 18571,14923 18828,15231 17829,16064 Z"/>
         </g>
        </g>
        <g class="com.sun.star.drawing.CustomShape">
         <g id="id9">
          <rect class="BoundingBox" stroke="none" fill="none" x="15159" y="13237" width="2257" height="1976"/>
          <path fill="rgb(255,255,255)" stroke="none" d="M 16415,14379 L 15417,15211 15160,14903 17157,13238 17414,13546 16415,14379 Z"/>
          <path fill="none" stroke="rgb(255,255,255)" d="M 16415,14379 L 15417,15211 15160,14903 17157,13238 17414,13546 16415,14379 Z"/>
         </g>
        </g>
       </g>
       <g class="Group">
        <g class="Group">
         <g class="com.sun.star.drawing.CustomShape">
          <g id="id10">
           <rect class="BoundingBox" stroke="none" fill="none" x="8509" y="4895" width="9340" height="11089"/>
           <path fill="rgb(17,17,17)" stroke="none" d="M 8664,5024 L 8818,4896 17847,15726 17540,15982 8510,5153 8664,5024 Z"/>
           <path fill="none" stroke="rgb(52,101,164)" d="M 8664,5024 L 8818,4896 17847,15726 17540,15982 8510,5153 8664,5024 Z"/>
          </g>
         </g>
         <g class="com.sun.star.drawing.CustomShape">
          <g id="id11">
           <rect class="BoundingBox" stroke="none" fill="none" x="13246" y="10582" width="951" height="1027"/>
           <path fill="rgb(248,248,0)" stroke="none" d="M 13401,10711 L 13555,10583 14195,11351 13888,11607 13247,10839 13401,10711 Z"/>
           <path fill="none" stroke="rgb(52,101,164)" d="M 13401,10711 L 13555,10583 14195,11351 13888,11607 13247,10839 13401,10711 Z"/>
          </g>
         </g>
         <g class="com.sun.star.drawing.CustomShape">
          <g id="id12">
           <rect class="BoundingBox" stroke="none" fill="none" x="13246" y="10582" width="951" height="1027"/>
           <path fill="rgb(248,248,0)" stroke="none" d="M 13401,10711 L 13555,10583 14195,11351 13888,11607 13247,10839 13401,10711 Z"/>
           <path fill="none" stroke="rgb(52,101,164)" d="M 13401,10711 L 13555,10583 14195,11351 13888,11607 13247,10839 13401,10711 Z"/>
          </g>
         </g>
         <g class="com.sun.star.drawing.CustomShape">
          <g id="id13">
           <rect class="BoundingBox" stroke="none" fill="none" x="10748" y="7587" width="951" height="1027"/>
           <path fill="rgb(248,248,0)" stroke="none" d="M 10903,7716 L 11057,7588 11697,8356 11390,8612 10749,7844 10903,7716 Z"/>
           <path fill="none" stroke="rgb(52,101,164)" d="M 10903,7716 L 11057,7588 11697,8356 11390,8612 10749,7844 10903,7716 Z"/>
          </g>
         </g>
         <g class="com.sun.star.drawing.CustomShape">
          <g id="id14">
           <rect class="BoundingBox" stroke="none" fill="none" x="12029" y="9123" width="951" height="1027"/>
           <path fill="rgb(248,248,0)" stroke="none" d="M 12184,9252 L 12338,9124 12978,9892 12671,10148 12030,9380 12184,9252 Z"/>
           <path fill="none" stroke="rgb(52,101,164)" d="M 12184,9252 L 12338,9124 12978,9892 12671,10148 12030,9380 12184,9252 Z"/>
          </g>
         </g>
         <g class="com.sun.star.drawing.CustomShape">
          <g id="id15">
           <rect class="BoundingBox" stroke="none" fill="none" x="15808" y="13654" width="951" height="1027"/>
           <path fill="rgb(248,248,0)" stroke="none" d="M 15963,13783 L 16117,13655 16757,14423 16450,14679 15809,13911 15963,13783 Z"/>
           <path fill="none" stroke="rgb(52,101,164)" d="M 15963,13783 L 16117,13655 16757,14423 16450,14679 15809,13911 15963,13783 Z"/>
          </g>
         </g>
         <g class="com.sun.star.drawing.CustomShape">
          <g id="id16">
           <rect class="BoundingBox" stroke="none" fill="none" x="14527" y="12118" width="951" height="1027"/>
           <path fill="rgb(248,248,0)" stroke="none" d="M 14682,12247 L 14836,12119 15476,12887 15169,13143 14528,12375 14682,12247 Z"/>
           <path fill="none" stroke="rgb(52,101,164)" d="M 14682,12247 L 14836,12119 15476,12887 15169,13143 14528,12375 14682,12247 Z"/>
          </g>
         </g>
         <g class="com.sun.star.drawing.CustomShape">
          <g id="id17">
           <rect class="BoundingBox" stroke="none" fill="none" x="9403" y="5974" width="951" height="1027"/>
           <path fill="rgb(248,248,0)" stroke="none" d="M 9558,6103 L 9712,5975 10352,6743 10045,6999 9404,6231 9558,6103 Z"/>
           <path fill="none" stroke="rgb(52,101,164)" d="M 9558,6103 L 9712,5975 10352,6743 10045,6999 9404,6231 9558,6103 Z"/>
          </g>
         </g>
        </g>
        <g class="com.sun.star.drawing.CustomShape">
         <g id="id18">
          <rect class="BoundingBox" stroke="none" fill="none" x="15777" y="13614" width="825" height="873"/>
          <path fill="rgb(248,248,0)" stroke="none" d="M 15931,13744 L 16084,13615 16600,14227 16294,14485 15778,13873 15931,13744 Z"/>
          <path fill="none" stroke="rgb(52,101,164)" d="M 15931,13744 L 16084,13615 16600,14227 16294,14485 15778,13873 15931,13744 Z"/>
         </g>
        </g>
        <g class="com.sun.star.drawing.CustomShape">
         <g id="id19">
          <rect class="BoundingBox" stroke="none" fill="none" x="17443" y="15599" width="825" height="873"/>
          <path fill="rgb(248,248,0)" stroke="none" d="M 17597,15729 L 17750,15600 18266,16212 17960,16470 17444,15858 17597,15729 Z"/>
          <path fill="none" stroke="rgb(52,101,164)" d="M 17597,15729 L 17750,15600 18266,16212 17960,16470 17444,15858 17597,15729 Z"/>
         </g>
        </g>
       </g>
      </g>
     </g>
    </g>
   </g>
  </g>
 </g>
</svg>