<?xml version="1.0" encoding="UTF-8"?>
<!DOCTYPE svg PUBLIC "-//W3C//DTD SVG 1.1//EN" "http://www.w3.org/Graphics/SVG/1.1/DTD/svg11.dtd">
<svg version="1.2" width="297mm" height="210mm" viewBox="0 0 29700 21000" preserveAspectRatio="xMidYMid" fill-rule="evenodd" stroke-width="28.222" stroke-linejoin="round" xmlns="http://www.w3.org/2000/svg" xmlns:ooo="http://xml.openoffice.org/svg/export" xmlns:xlink="http://www.w3.org/1999/xlink" xmlns:presentation="http://sun.com/xmlns/staroffice/presentation" xmlns:smil="http://www.w3.org/2001/SMIL20/" xmlns:anim="urn:oasis:names:tc:opendocument:xmlns:animation:1.0" xml:space="preserve">
 <defs class="ClipPathGroup">
  <clipPath id="presentation_clip_path" clipPathUnits="userSpaceOnUse">
   <rect x="0" y="0" width="29700" height="21000"/>
  </clipPath>
  <clipPath id="presentation_clip_path_shrink" clipPathUnits="userSpaceOnUse">
   <rect x="29" y="21" width="29641" height="20958"/>
  </clipPath>
 </defs>
 <defs class="TextShapeIndex">
  <g ooo:slide="id1" ooo:id-list="id3 id4 id5 id6 id7 id8 id9 id10 id11 id12 id13 id14 id15 id16 id17 id18 id19"/>
 </defs>
 <defs class="EmbeddedBulletChars">
  <g id="bullet-char-template-57356" transform="scale(0.00048828125,-0.00048828125)">
   <path d="M 580,1141 L 1163,571 580,0 -4,571 580,1141 Z"/>
  </g>
  <g id="bullet-char-template-57354" transform="scale(0.00048828125,-0.00048828125)">
   <path d="M 8,1128 L 1137,1128 1137,0 8,0 8,1128 Z"/>
  </g>
  <g id="bullet-char-template-10146" transform="scale(0.00048828125,-0.00048828125)">
   <path d="M 174,0 L 602,739 174,1481 1456,739 174,0 Z M 1358,739 L 309,1346 659,739 1358,739 Z"/>
  </g>
  <g id="bullet-char-template-10132" transform="scale(0.00048828125,-0.00048828125)">
   <path d="M 2015,739 L 1276,0 717,0 1260,543 174,543 174,936 1260,936 717,1481 1274,1481 2015,739 Z"/>
  </g>
  <g id="bullet-char-template-10007" transform="scale(0.00048828125,-0.00048828125)">
   <path d="M 0,-2 C -7,14 -16,27 -25,37 L 356,567 C 262,823 215,952 215,954 215,979 228,992 255,992 264,992 276,990 289,987 310,991 331,999 354,1012 L 381,999 492,748 772,1049 836,1024 860,1049 C 881,1039 901,1025 922,1006 886,937 835,863 770,784 769,783 710,716 594,584 L 774,223 C 774,196 753,168 711,139 L 727,119 C 717,90 699,76 672,76 641,76 570,178 457,381 L 164,-76 C 142,-110 111,-127 72,-127 30,-127 9,-110 8,-76 1,-67 -2,-52 -2,-32 -2,-23 -1,-13 0,-2 Z"/>
  </g>
  <g id="bullet-char-template-10004" transform="scale(0.00048828125,-0.00048828125)">
   <path d="M 285,-33 C 182,-33 111,30 74,156 52,228 41,333 41,471 41,549 55,616 82,672 116,743 169,778 240,778 293,778 328,747 346,684 L 369,508 C 377,444 397,411 428,410 L 1163,1116 C 1174,1127 1196,1133 1229,1133 1271,1133 1292,1118 1292,1087 L 1292,965 C 1292,929 1282,901 1262,881 L 442,47 C 390,-6 338,-33 285,-33 Z"/>
  </g>
  <g id="bullet-char-template-9679" transform="scale(0.00048828125,-0.00048828125)">
   <path d="M 813,0 C 632,0 489,54 383,161 276,268 223,411 223,592 223,773 276,916 383,1023 489,1130 632,1184 813,1184 992,1184 1136,1130 1245,1023 1353,916 1407,772 1407,592 1407,412 1353,268 1245,161 1136,54 992,0 813,0 Z"/>
  </g>
  <g id="bullet-char-template-8226" transform="scale(0.00048828125,-0.00048828125)">
   <path d="M 346,457 C 273,457 209,483 155,535 101,586 74,649 74,723 74,796 101,859 155,911 209,963 273,989 346,989 419,989 480,963 531,910 582,859 608,796 608,723 608,648 583,586 532,535 482,483 420,457 346,457 Z"/>
  </g>
  <g id="bullet-char-template-8211" transform="scale(0.00048828125,-0.00048828125)">
   <path d="M -4,459 L 1135,459 1135,606 -4,606 -4,459 Z"/>
  </g>
  <g id="bullet-char-template-61548" transform="scale(0.00048828125,-0.00048828125)">
   <path d="M 173,740 C 173,903 231,1043 346,1159 462,1274 601,1332 765,1332 928,1332 1067,1274 1183,1159 1299,1043 1357,903 1357,740 1357,577 1299,437 1183,322 1067,206 928,148 765,148 601,148 462,206 346,322 231,437 173,577 173,740 Z"/>
  </g>
 </defs>
 <g>
  <g id="id2" class="Master_Slide">
   <g id="bg-id2" class="Background"/>
   <g id="bo-id2" class="BackgroundObjects"/>
  </g>
 </g>
 <g class="SlideGroup">
  <g>
   <g id="container-id1">
    <g id="id1" class="Slide" clip-path="url(#presentation_clip_path)">
     <g class="Page">
      <g class="Group">
       <g class="Group">
        <g class="Group">
         <g class="com.sun.star.drawing.CustomShape">
          <g id="id3">
           <rect class="BoundingBox" stroke="none" fill="none" x="8582" y="13607" width="3155" height="2862"/>
           <path fill="rgb(255,255,0)" stroke="none" d="M 11285,15688 L 10835,16467 8583,15167 9483,13608 11735,14908 11285,15688 Z"/>
           <path fill="none" stroke="rgb(52,101,164)" d="M 11285,15688 L 10835,16467 8583,15167 9483,13608 11735,14908 11285,15688 Z"/>
          </g>
         </g>
         <g class="com.sun.star.drawing.CustomShape">
          <g id="id4">
           <rect class="BoundingBox" stroke="none" fill="none" x="8938" y="13816" width="756" height="2102"/>
           <path fill="rgb(0,0,0)" stroke="none" d="M 9513,14832 L 9692,15846 9298,15916 8939,13886 9333,13817 9513,14832 Z"/>
           <path fill="none" stroke="rgb(52,101,164)" d="M 9513,14832 L 9692,15846 9298,15916 8939,13886 9333,13817 9513,14832 Z"/>
          </g>
         </g>
         <g class="com.sun.star.drawing.CustomShape">
          <g id="id5">
           <rect class="BoundingBox" stroke="none" fill="none" x="8235" y="13407" width="1249" height="1762"/>
           <path fill="rgb(255,255,255)" stroke="none" d="M 9032,14388 L 8582,15167 8236,14967 9136,13408 9482,13608 9032,14388 Z"/>
           <path fill="none" stroke="rgb(255,255,255)" d="M 9032,14388 L 8582,15167 8236,14967 9136,13408 9482,13608 9032,14388 Z"/>
          </g>
         </g>
        </g>
        <g class="com.sun.star.drawing.CustomShape">
         <g id="id6">
          <rect class="BoundingBox" stroke="none" fill="none" x="10271" y="14009" width="810" height="2411"/>
          <path fill="rgb(0,0,0)" stroke="none" d="M 10872,15179 L 11079,16348 10685,16418 10272,14079 10666,14010 10872,15179 Z"/>
          <path fill="none" stroke="rgb(52,101,164)" d="M 10872,15179 L 11079,16348 10685,16418 10272,14079 10666,14010 10872,15179 Z"/>
         </g>
        </g>
        <g class="com.sun.star.drawing.CustomShape">
         <g id="id7">
          <rect class="BoundingBox" stroke="none" fill="none" x="10660" y="14807" width="1249" height="1762"/>
          <path fill="rgb(255,255,255)" stroke="none" d="M 11457,15788 L 11007,16567 10661,16367 11561,14808 11907,15008 11457,15788 Z"/>
          <path fill="none" stroke="rgb(255,255,255)" d="M 11457,15788 L 11007,16567 10661,16367 11561,14808 11907,15008 11457,15788 Z"/>
         </g>
        </g>
        <g class="com.sun.star.drawing.CustomShape">
         <g id="id8">
          <rect class="BoundingBox" stroke="none" fill="none" x="8295" y="15117" width="2458" height="1643"/>
          <path fill="rgb(255,255,255)" stroke="none" d="M 9424,16112 L 8296,15465 8495,15118 10751,16411 10552,16758 9424,16112 Z"/>
          <path fill="none" stroke="rgb(255,255,255)" d="M 9424,16112 L 8296,15465 8495,15118 10751,16411 10552,16758 9424,16112 Z"/>
         </g>
        </g>
        <g class="com.sun.star.drawing.CustomShape">
         <g id="id9">
          <rect class="BoundingBox" stroke="none" fill="none" x="9395" y="13212" width="2458" height="1643"/>
          <path fill="rgb(255,255,255)" stroke="none" d="M 10524,14207 L 9396,13560 9595,13213 11851,14506 11652,14853 10524,14207 Z"/>
          <path fill="none" stroke="rgb(255,255,255)" d="M 10524,14207 L 9396,13560 9595,13213 11851,14506 11652,14853 10524,14207 Z"/>
         </g>
        </g>
       </g>
       <g class="Group">
        <g class="Group">
         <g class="com.sun.star.drawing.CustomShape">
          <g id="id10">
           <rect class="BoundingBox" stroke="none" fill="none" x="9346" y="3551" width="7366" height="12433"/>
           <path fill="rgb(17,17,17)" stroke="none" d="M 16536,3652 L 16710,3751 9694,15982 9347,15783 16363,3552 16536,3652 Z"/>
           <path fill="none" stroke="rgb(52,101,164)" d="M 16536,3652 L 16710,3751 9694,15982 9347,15783 16363,3552 16536,3652 Z"/>
          </g>
         </g>
         <g class="com.sun.star.drawing.CustomShape">
          <g id="id11">
           <rect class="BoundingBox" stroke="none" fill="none" x="12183" y="9971" width="848" height="1069"/>
           <path fill="rgb(248,248,0)" stroke="none" d="M 12855,10071 L 13029,10171 12531,11038 12184,10839 12682,9972 12855,10071 Z"/>
           <path fill="none" stroke="rgb(52,101,164)" d="M 12855,10071 L 13029,10171 12531,11038 12184,10839 12682,9972 12855,10071 Z"/>
          </g>
         </g>
         <g class="com.sun.star.drawing.CustomShape">
          <g id="id12">
           <rect class="BoundingBox" stroke="none" fill="none" x="12183" y="9971" width="848" height="1069"/>
           <path fill="rgb(248,248,0)" stroke="none" d="M 12855,10071 L 13029,10171 12531,11038 12184,10839 12682,9972 12855,10071 Z"/>
           <path fill="none" stroke="rgb(52,101,164)" d="M 12855,10071 L 13029,10171 12531,11038 12184,10839 12682,9972 12855,10071 Z"/>
          </g>
         </g>
         <g class="com.sun.star.drawing.CustomShape">
          <g id="id13">
           <rect class="BoundingBox" stroke="none" fill="none" x="14122" y="6588" width="848" height="1069"/>
           <path fill="rgb(248,248,0)" stroke="none" d="M 14794,6688 L 14968,6788 14470,7655 14123,7456 14621,6589 14794,6688 Z"/>
           <path fill="none" stroke="rgb(52,101,164)" d="M 14794,6688 L 14968,6788 14470,7655 14123,7456 14621,6589 14794,6688 Z"/>
          </g>
         </g>
         <g class="com.sun.star.drawing.CustomShape">
          <g id="id14">
           <rect class="BoundingBox" stroke="none" fill="none" x="13128" y="8323" width="848" height="1069"/>
           <path fill="rgb(248,248,0)" stroke="none" d="M 13800,8423 L 13974,8523 13476,9390 13129,9191 13627,8324 13800,8423 Z"/>
           <path fill="none" stroke="rgb(52,101,164)" d="M 13800,8423 L 13974,8523 13476,9390 13129,9191 13627,8324 13800,8423 Z"/>
          </g>
         </g>
         <g class="com.sun.star.drawing.CustomShape">
          <g id="id15">
           <rect class="BoundingBox" stroke="none" fill="none" x="10193" y="13441" width="848" height="1069"/>
           <path fill="rgb(248,248,0)" stroke="none" d="M 10865,13541 L 11039,13641 10541,14508 10194,14309 10692,13442 10865,13541 Z"/>
           <path fill="none" stroke="rgb(52,101,164)" d="M 10865,13541 L 11039,13641 10541,14508 10194,14309 10692,13442 10865,13541 Z"/>
          </g>
         </g>
         <g class="com.sun.star.drawing.CustomShape">
          <g id="id16">
           <rect class="BoundingBox" stroke="none" fill="none" x="11188" y="11706" width="848" height="1069"/>
           <path fill="rgb(248,248,0)" stroke="none" d="M 11860,11806 L 12034,11906 11536,12773 11189,12574 11687,11707 11860,11806 Z"/>
           <path fill="none" stroke="rgb(52,101,164)" d="M 11860,11806 L 12034,11906 11536,12773 11189,12574 11687,11707 11860,11806 Z"/>
          </g>
         </g>
         <g class="com.sun.star.drawing.CustomShape">
          <g id="id17">
           <rect class="BoundingBox" stroke="none" fill="none" x="15167" y="4766" width="848" height="1069"/>
           <path fill="rgb(248,248,0)" stroke="none" d="M 15839,4866 L 16013,4966 15515,5833 15168,5634 15666,4767 15839,4866 Z"/>
           <path fill="none" stroke="rgb(52,101,164)" d="M 15839,4866 L 16013,4966 15515,5833 15168,5634 15666,4767 15839,4866 Z"/>
          </g>
         </g>
        </g>
        <g class="com.sun.star.drawing.CustomShape">
         <g id="id18">
          <rect class="BoundingBox" stroke="none" fill="none" x="10314" y="13395" width="751" height="896"/>
          <path fill="rgb(248,248,0)" stroke="none" d="M 10890,13497 L 11063,13597 10661,14289 10315,14088 10717,13396 10890,13497 Z"/>
          <path fill="none" stroke="rgb(52,101,164)" d="M 10890,13497 L 11063,13597 10661,14289 10315,14088 10717,13396 10890,13497 Z"/>
         </g>
        </g>
        <g class="com.sun.star.drawing.CustomShape">
         <g id="id19">
          <rect class="BoundingBox" stroke="none" fill="none" x="9018" y="15640" width="751" height="896"/>
          <path fill="rgb(248,248,0)" stroke="none" d="M 9594,15742 L 9767,15842 9365,16534 9019,16333 9421,15641 9594,15742 Z"/>
          <path fill="none" stroke="rgb(52,101,164)" d="M 9594,15742 L 9767,15842 9365,16534 9019,16333 9421,15641 9594,15742 Z"/>
         </g>
        </g>
       </g>
      </g>
     </g>
    </g>
   </g>
  </g>
 </g>
</svg>