<?xml version="1.0" encoding="UTF-8"?>
<!DOCTYPE svg PUBLIC "-//W3C//DTD SVG 1.1//EN" "http://www.w3.org/Graphics/SVG/1.1/DTD/svg11.dtd">
<svg version="1.2" width="297mm" height="210mm" viewBox="0 0 29700 21000" preserveAspectRatio="xMidYMid" fill-rule="evenodd" stroke-width="28.222" stroke-linejoin="round" xmlns="http://www.w3.org/2000/svg" xmlns:ooo="http://xml.openoffice.org/svg/export" xmlns:xlink="http://www.w3.org/1999/xlink" xmlns:presentation="http://sun.com/xmlns/staroffice/presentation" xmlns:smil="http://www.w3.org/2001/SMIL20/" xmlns:anim="urn:oasis:names:tc:opendocument:xmlns:animation:1.0" xml:space="preserve">
 <defs class="ClipPathGroup">
  <clipPath id="presentation_clip_path" clipPathUnits="userSpaceOnUse">
   <rect x="0" y="0" width="29700" height="21000"/>
  </clipPath>
  <clipPath id="presentation_clip_path_shrink" clipPathUnits="userSpaceOnUse">
   <rect x="29" y="21" width="29641" height="20958"/>
  </clipPath>
 </defs>
 <defs class="TextShapeIndex">
  <g ooo:slide="id1" ooo:id-list="id3 id4 id5 id6 id7 id8 id9 id10 id11 id12 id13 id14 id15 id16 id17 id18 id19"/>
 </defs>
 <defs class="EmbeddedBulletChars">
  <g id="bullet-char-template-57356" transform="scale(0.00048828125,-0.00048828125)">
   <path d="M 580,1141 L 1163,571 580,0 -4,571 580,1141 Z"/>
  </g>
  <g id="bullet-char-template-57354" transform="scale(0.00048828125,-0.00048828125)">
   <path d="M 8,1128 L 1137,1128 1137,0 8,0 8,1128 Z"/>
  </g>
  <g id="bullet-char-template-10146" transform="scale(0.00048828125,-0.00048828125)">
   <path d="M 174,0 L 602,739 174,1481 1456,739 174,0 Z M 1358,739 L 309,1346 659,739 1358,739 Z"/>
  </g>
  <g id="bullet-char-template-10132" transform="scale(0.00048828125,-0.00048828125)">
   <path d="M 2015,739 L 1276,0 717,0 1260,543 174,543 174,936 1260,936 717,1481 1274,1481 2015,739 Z"/>
  </g>
  <g id="bullet-char-template-10007" transform="scale(0.00048828125,-0.00048828125)">
   <path d="M 0,-2 C -7,14 -16,27 -25,37 L 356,567 C 262,823 215,952 215,954 215,979 228,992 255,992 264,992 276,990 289,987 310,991 331,999 354,1012 L 381,999 492,748 772,1049 836,1024 860,1049 C 881,1039 901,1025 922,1006 886,937 835,863 770,784 769,783 710,716 594,584 L 774,223 C 774,196 753,168 711,139 L 727,119 C 717,90 699,76 672,76 641,76 570,178 457,381 L 164,-76 C 142,-110 111,-127 72,-127 30,-127 9,-110 8,-76 1,-67 -2,-52 -2,-32 -2,-23 -1,-13 0,-2 Z"/>
  </g>
  <g id="bullet-char-template-10004" transform="scale(0.00048828125,-0.00048828125)">
   <path d="M 285,-33 C 182,-33 111,30 74,156 52,228 41,333 41,471 41,549 55,616 82,672 116,743 169,778 240,778 293,778 328,747 346,684 L 369,508 C 377,444 397,411 428,410 L 1163,1116 C 1174,1127 1196,1133 1229,1133 1271,1133 1292,1118 1292,1087 L 1292,965 C 1292,929 1282,901 1262,881 L 442,47 C 390,-6 338,-33 285,-33 Z"/>
  </g>
  <g id="bullet-char-template-9679" transform="scale(0.00048828125,-0.00048828125)">
   <path d="M 813,0 C 632,0 489,54 383,161 276,268 223,411 223,592 223,773 276,916 383,1023 489,1130 632,1184 813,1184 992,1184 1136,1130 1245,1023 1353,916 1407,772 1407,592 1407,412 1353,268 1245,161 1136,54 992,0 813,0 Z"/>
  </g>
  <g id="bullet-char-template-8226" transform="scale(0.00048828125,-0.00048828125)">
   <path d="M 346,457 C 273,457 209,483 155,535 101,586 74,649 74,723 74,796 101,859 155,911 209,963 273,989 346,989 419,989 480,963 531,910 582,859 608,796 608,723 608,648 583,586 532,535 482,483 420,457 346,457 Z"/>
  </g>
  <g id="bullet-char-template-8211" transform="scale(0.00048828125,-0.00048828125)">
   <path d="M -4,459 L 1135,459 1135,606 -4,606 -4,459 Z"/>
  </g>
  <g id="bullet-char-template-61548" transform="scale(0.00048828125,-0.00048828125)">
   <path d="M 173,740 C 173,903 231,1043 346,1159 462,1274 601,1332 765,1332 928,1332 1067,1274 1183,1159 1299,1043 1357,903 1357,740 1357,577 1299,437 1183,322 1067,206 928,148 765,148 601,148 462,206 346,322 231,437 173,577 173,740 Z"/>
  </g>
 </defs>
 <g>
  <g id="id2" class="Master_Slide">
   <g id="bg-id2" class="Background"/>
   <g id="bo-id2" class="BackgroundObjects"/>
  </g>
 </g>
 <g class="SlideGroup">
  <g>
   <g id="container-id1">
    <g id="id1" class="Slide" clip-path="url(#presentation_clip_path)">
     <g class="Page">
      <g class="Group">
       <g class="Group">
        <g class="Group">
         <g class="com.sun.star.drawing.CustomShape">
          <g id="id3">
           <rect class="BoundingBox" stroke="none" fill="none" x="15322" y="13718" width="3118" height="2733"/>
           <path fill="rgb(255,255,0)" stroke="none" d="M 15703,15633 L 15323,14817 17677,13719 18438,15350 16084,16449 15703,15633 Z"/>
           <path fill="none" stroke="rgb(52,101,164)" d="M 15703,15633 L 15323,14817 17677,13719 18438,15350 16084,16449 15703,15633 Z"/>
          </g>
         </g>
         <g class="com.sun.star.drawing.CustomShape">
          <g id="id4">
           <rect class="BoundingBox" stroke="none" fill="none" x="17271" y="13936" width="923" height="2098"/>
           <path fill="rgb(0,0,0)" stroke="none" d="M 17539,14933 L 17806,13937 18192,14041 17658,16032 17272,15928 17539,14933 Z"/>
           <path fill="none" stroke="rgb(52,101,164)" d="M 17539,14933 L 17806,13937 18192,14041 17658,16032 17272,15928 17539,14933 Z"/>
          </g>
         </g>
         <g class="com.sun.star.drawing.CustomShape">
          <g id="id5">
           <rect class="BoundingBox" stroke="none" fill="none" x="17676" y="13549" width="1126" height="1803"/>
           <path fill="rgb(255,255,255)" stroke="none" d="M 18057,14535 L 17677,13719 18039,13550 18800,15181 18438,15350 18057,14535 Z"/>
           <path fill="none" stroke="rgb(255,255,255)" d="M 18057,14535 L 17677,13719 18039,13550 18800,15181 18438,15350 18057,14535 Z"/>
          </g>
         </g>
        </g>
        <g class="com.sun.star.drawing.CustomShape">
         <g id="id6">
          <rect class="BoundingBox" stroke="none" fill="none" x="15846" y="14011" width="1004" height="2401"/>
          <path fill="rgb(0,0,0)" stroke="none" d="M 16154,15159 L 16462,14012 16848,14116 16233,16410 15847,16306 16154,15159 Z"/>
          <path fill="none" stroke="rgb(52,101,164)" d="M 16154,15159 L 16462,14012 16848,14116 16233,16410 15847,16306 16154,15159 Z"/>
         </g>
        </g>
        <g class="com.sun.star.drawing.CustomShape">
         <g id="id7">
          <rect class="BoundingBox" stroke="none" fill="none" x="15138" y="14732" width="1126" height="1803"/>
          <path fill="rgb(255,255,255)" stroke="none" d="M 15519,15718 L 15139,14902 15501,14733 16262,16364 15900,16533 15519,15718 Z"/>
          <path fill="none" stroke="rgb(255,255,255)" d="M 15519,15718 L 15139,14902 15501,14733 16262,16364 15900,16533 15519,15718 Z"/>
         </g>
        </g>
        <g class="com.sun.star.drawing.CustomShape">
         <g id="id8">
          <rect class="BoundingBox" stroke="none" fill="none" x="16168" y="15306" width="2531" height="1458"/>
          <path fill="rgb(255,255,255)" stroke="none" d="M 17517,16216 L 16337,16762 16169,16399 18529,15307 18697,15670 17517,16216 Z"/>
          <path fill="none" stroke="rgb(255,255,255)" d="M 17517,16216 L 16337,16762 16169,16399 18529,15307 18697,15670 17517,16216 Z"/>
         </g>
        </g>
        <g class="com.sun.star.drawing.CustomShape">
         <g id="id9">
          <rect class="BoundingBox" stroke="none" fill="none" x="15238" y="13312" width="2531" height="1458"/>
          <path fill="rgb(255,255,255)" stroke="none" d="M 16587,14222 L 15407,14768 15239,14405 17599,13313 17767,13676 16587,14222 Z"/>
          <path fill="none" stroke="rgb(255,255,255)" d="M 16587,14222 L 15407,14768 15239,14405 17599,13313 17767,13676 16587,14222 Z"/>
         </g>
        </g>
       </g>
       <g class="Group">
        <g class="Group">
         <g class="com.sun.star.drawing.CustomShape">
          <g id="id10">
           <rect class="BoundingBox" stroke="none" fill="none" x="11334" y="3099" width="6289" height="12967"/>
           <path fill="rgb(17,17,17)" stroke="none" d="M 11516,3184 L 11698,3100 17621,15896 17258,16064 11335,3269 11516,3184 Z"/>
           <path fill="none" stroke="rgb(52,101,164)" d="M 11516,3184 L 11698,3100 17621,15896 17258,16064 11335,3269 11516,3184 Z"/>
          </g>
         </g>
         <g class="com.sun.star.drawing.CustomShape">
          <g id="id11">
           <rect class="BoundingBox" stroke="none" fill="none" x="14443" y="9815" width="786" height="1078"/>
           <path fill="rgb(248,248,0)" stroke="none" d="M 14625,9900 L 14807,9816 15227,10723 14864,10891 14444,9984 14625,9900 Z"/>
           <path fill="none" stroke="rgb(52,101,164)" d="M 14625,9900 L 14807,9816 15227,10723 14864,10891 14444,9984 14625,9900 Z"/>
          </g>
         </g>
         <g class="com.sun.star.drawing.CustomShape">
          <g id="id12">
           <rect class="BoundingBox" stroke="none" fill="none" x="14443" y="9815" width="786" height="1078"/>
           <path fill="rgb(248,248,0)" stroke="none" d="M 14625,9900 L 14807,9816 15227,10723 14864,10891 14444,9984 14625,9900 Z"/>
           <path fill="none" stroke="rgb(52,101,164)" d="M 14625,9900 L 14807,9816 15227,10723 14864,10891 14444,9984 14625,9900 Z"/>
          </g>
         </g>
         <g class="com.sun.star.drawing.CustomShape">
          <g id="id13">
           <rect class="BoundingBox" stroke="none" fill="none" x="12806" y="6275" width="786" height="1078"/>
           <path fill="rgb(248,248,0)" stroke="none" d="M 12988,6360 L 13170,6276 13590,7183 13227,7351 12807,6444 12988,6360 Z"/>
           <path fill="none" stroke="rgb(52,101,164)" d="M 12988,6360 L 13170,6276 13590,7183 13227,7351 12807,6444 12988,6360 Z"/>
          </g>
         </g>
         <g class="com.sun.star.drawing.CustomShape">
          <g id="id14">
           <rect class="BoundingBox" stroke="none" fill="none" x="13645" y="8090" width="786" height="1078"/>
           <path fill="rgb(248,248,0)" stroke="none" d="M 13827,8175 L 14009,8091 14429,8998 14066,9166 13646,8259 13827,8175 Z"/>
           <path fill="none" stroke="rgb(52,101,164)" d="M 13827,8175 L 14009,8091 14429,8998 14066,9166 13646,8259 13827,8175 Z"/>
          </g>
         </g>
         <g class="com.sun.star.drawing.CustomShape">
          <g id="id15">
           <rect class="BoundingBox" stroke="none" fill="none" x="16123" y="13445" width="786" height="1078"/>
           <path fill="rgb(248,248,0)" stroke="none" d="M 16305,13530 L 16487,13446 16907,14353 16544,14521 16124,13614 16305,13530 Z"/>
           <path fill="none" stroke="rgb(52,101,164)" d="M 16305,13530 L 16487,13446 16907,14353 16544,14521 16124,13614 16305,13530 Z"/>
          </g>
         </g>
         <g class="com.sun.star.drawing.CustomShape">
          <g id="id16">
           <rect class="BoundingBox" stroke="none" fill="none" x="15283" y="11630" width="786" height="1078"/>
           <path fill="rgb(248,248,0)" stroke="none" d="M 15465,11715 L 15647,11631 16067,12538 15704,12706 15284,11799 15465,11715 Z"/>
           <path fill="none" stroke="rgb(52,101,164)" d="M 15465,11715 L 15647,11631 16067,12538 15704,12706 15284,11799 15465,11715 Z"/>
          </g>
         </g>
         <g class="com.sun.star.drawing.CustomShape">
          <g id="id17">
           <rect class="BoundingBox" stroke="none" fill="none" x="11924" y="4370" width="786" height="1078"/>
           <path fill="rgb(248,248,0)" stroke="none" d="M 12106,4455 L 12288,4371 12708,5278 12345,5446 11925,4539 12106,4455 Z"/>
           <path fill="none" stroke="rgb(52,101,164)" d="M 12106,4455 L 12288,4371 12708,5278 12345,5446 11925,4539 12106,4455 Z"/>
          </g>
         </g>
        </g>
        <g class="com.sun.star.drawing.CustomShape">
         <g id="id18">
          <rect class="BoundingBox" stroke="none" fill="none" x="16102" y="13399" width="705" height="897"/>
          <path fill="rgb(248,248,0)" stroke="none" d="M 16284,13485 L 16465,13400 16805,14124 16443,14294 16103,13570 16284,13485 Z"/>
          <path fill="none" stroke="rgb(52,101,164)" d="M 16284,13485 L 16465,13400 16805,14124 16443,14294 16103,13570 16284,13485 Z"/>
         </g>
        </g>
        <g class="com.sun.star.drawing.CustomShape">
         <g id="id19">
          <rect class="BoundingBox" stroke="none" fill="none" x="17197" y="15748" width="705" height="897"/>
          <path fill="rgb(248,248,0)" stroke="none" d="M 17379,15834 L 17560,15749 17900,16473 17538,16643 17198,15919 17379,15834 Z"/>
          <path fill="none" stroke="rgb(52,101,164)" d="M 17379,15834 L 17560,15749 17900,16473 17538,16643 17198,15919 17379,15834 Z"/>
         </g>
        </g>
       </g>
      </g>
     </g>
    </g>
   </g>
  </g>
 </g>
</svg>