<?xml version="1.0" encoding="UTF-8"?>
<!DOCTYPE svg PUBLIC "-//W3C//DTD SVG 1.1//EN" "http://www.w3.org/Graphics/SVG/1.1/DTD/svg11.dtd">
<svg version="1.2" width="297mm" height="210mm" viewBox="0 0 29700 21000" preserveAspectRatio="xMidYMid" fill-rule="evenodd" stroke-width="28.222" stroke-linejoin="round" xmlns="http://www.w3.org/2000/svg" xmlns:ooo="http://xml.openoffice.org/svg/export" xmlns:xlink="http://www.w3.org/1999/xlink" xmlns:presentation="http://sun.com/xmlns/staroffice/presentation" xmlns:smil="http://www.w3.org/2001/SMIL20/" xmlns:anim="urn:oasis:names:tc:opendocument:xmlns:animation:1.0" xml:space="preserve">
 <defs class="ClipPathGroup">
  <clipPath id="presentation_clip_path" clipPathUnits="userSpaceOnUse">
   <rect x="0" y="0" width="29700" height="21000"/>
  </clipPath>
  <clipPath id="presentation_clip_path_shrink" clipPathUnits="userSpaceOnUse">
   <rect x="29" y="21" width="29641" height="20958"/>
  </clipPath>
 </defs>
 <defs class="TextShapeIndex">
  <g ooo:slide="id1" ooo:id-list="id3 id4 id5 id6 id7 id8 id9 id10 id11 id12 id13 id14 id15 id16 id17 id18 id19"/>
 </defs>
 <defs class="EmbeddedBulletChars">
  <g id="bullet-char-template-57356" transform="scale(0.00048828125,-0.00048828125)">
   <path d="M 580,1141 L 1163,571 580,0 -4,571 580,1141 Z"/>
  </g>
  <g id="bullet-char-template-57354" transform="scale(0.00048828125,-0.00048828125)">
   <path d="M 8,1128 L 1137,1128 1137,0 8,0 8,1128 Z"/>
  </g>
  <g id="bullet-char-template-10146" transform="scale(0.00048828125,-0.00048828125)">
   <path d="M 174,0 L 602,739 174,1481 1456,739 174,0 Z M 1358,739 L 309,1346 659,739 1358,739 Z"/>
  </g>
  <g id="bullet-char-template-10132" transform="scale(0.00048828125,-0.00048828125)">
   <path d="M 2015,739 L 1276,0 717,0 1260,543 174,543 174,936 1260,936 717,1481 1274,1481 2015,739 Z"/>
  </g>
  <g id="bullet-char-template-10007" transform="scale(0.00048828125,-0.00048828125)">
   <path d="M 0,-2 C -7,14 -16,27 -25,37 L 356,567 C 262,823 215,952 215,954 215,979 228,992 255,992 264,992 276,990 289,987 310,991 331,999 354,1012 L 381,999 492,748 772,1049 836,1024 860,1049 C 881,1039 901,1025 922,1006 886,937 835,863 770,784 769,783 710,716 594,584 L 774,223 C 774,196 753,168 711,139 L 727,119 C 717,90 699,76 672,76 641,76 570,178 457,381 L 164,-76 C 142,-110 111,-127 72,-127 30,-127 9,-110 8,-76 1,-67 -2,-52 -2,-32 -2,-23 -1,-13 0,-2 Z"/>
  </g>
  <g id="bullet-char-template-10004" transform="scale(0.00048828125,-0.00048828125)">
   <path d="M 285,-33 C 182,-33 111,30 74,156 52,228 41,333 41,471 41,549 55,616 82,672 116,743 169,778 240,778 293,778 328,747 346,684 L 369,508 C 377,444 397,411 428,410 L 1163,1116 C 1174,1127 1196,1133 1229,1133 1271,1133 1292,1118 1292,1087 L 1292,965 C 1292,929 1282,901 1262,881 L 442,47 C 390,-6 338,-33 285,-33 Z"/>
  </g>
  <g id="bullet-char-template-9679" transform="scale(0.00048828125,-0.00048828125)">
   <path d="M 813,0 C 632,0 489,54 383,161 276,268 223,411 223,592 223,773 276,916 383,1023 489,1130 632,1184 813,1184 992,1184 1136,1130 1245,1023 1353,916 1407,772 1407,592 1407,412 1353,268 1245,161 1136,54 992,0 813,0 Z"/>
  </g>
  <g id="bullet-char-template-8226" transform="scale(0.00048828125,-0.00048828125)">
   <path d="M 346,457 C 273,457 209,483 155,535 101,586 74,649 74,723 74,796 101,859 155,911 209,963 273,989 346,989 419,989 480,963 531,910 582,859 608,796 608,723 608,648 583,586 532,535 482,483 420,457 346,457 Z"/>
  </g>
  <g id="bullet-char-template-8211" transform="scale(0.00048828125,-0.00048828125)">
   <path d="M -4,459 L 1135,459 1135,606 -4,606 -4,459 Z"/>
  </g>
  <g id="bullet-char-template-61548" transform="scale(0.00048828125,-0.00048828125)">
   <path d="M 173,740 C 173,903 231,1043 346,1159 462,1274 601,1332 765,1332 928,1332 1067,1274 1183,1159 1299,1043 1357,903 1357,740 1357,577 1299,437 1183,322 1067,206 928,148 765,148 601,148 462,206 346,322 231,437 173,577 173,740 Z"/>
  </g>
 </defs>
 <g>
  <g id="id2" class="Master_Slide">
   <g id="bg-id2" class="Background"/>
   <g id="bo-id2" class="BackgroundObjects"/>
  </g>
 </g>
 <g class="SlideGroup">
  <g>
   <g id="container-id1">
    <g id="id1" class="Slide" clip-path="url(#presentation_clip_path)">
     <g class="Page">
      <g class="Group">
       <g class="Group">
        <g class="Group">
         <g class="com.sun.star.drawing.CustomShape">
          <g id="id3">
           <rect class="BoundingBox" stroke="none" fill="none" x="15349" y="13707" width="3155" height="2862"/>
           <path fill="rgb(255,255,0)" stroke="none" d="M 15800,15787 L 15350,15008 17602,13708 18502,15267 16250,16567 15800,15787 Z"/>
           <path fill="none" stroke="rgb(52,101,164)" d="M 15800,15787 L 15350,15008 17602,13708 18502,15267 16250,16567 15800,15787 Z"/>
          </g>
         </g>
         <g class="com.sun.star.drawing.CustomShape">
          <g id="id4">
           <rect class="BoundingBox" stroke="none" fill="none" x="17391" y="13915" width="756" height="2103"/>
           <path fill="rgb(0,0,0)" stroke="none" d="M 17572,14931 L 17751,13916 18145,13986 17786,16016 17392,15946 17572,14931 Z"/>
           <path fill="none" stroke="rgb(52,101,164)" d="M 17572,14931 L 17751,13916 18145,13986 17786,16016 17392,15946 17572,14931 Z"/>
          </g>
         </g>
         <g class="com.sun.star.drawing.CustomShape">
          <g id="id5">
           <rect class="BoundingBox" stroke="none" fill="none" x="17602" y="13507" width="1249" height="1762"/>
           <path fill="rgb(255,255,255)" stroke="none" d="M 18053,14487 L 17603,13708 17949,13508 18849,15067 18503,15267 18053,14487 Z"/>
           <path fill="none" stroke="rgb(255,255,255)" d="M 18053,14487 L 17603,13708 17949,13508 18849,15067 18503,15267 18053,14487 Z"/>
          </g>
         </g>
        </g>
        <g class="com.sun.star.drawing.CustomShape">
         <g id="id6">
          <rect class="BoundingBox" stroke="none" fill="none" x="16004" y="14107" width="810" height="2412"/>
          <path fill="rgb(0,0,0)" stroke="none" d="M 16212,15278 L 16418,14108 16812,14178 16399,16517 16005,16447 16212,15278 Z"/>
          <path fill="none" stroke="rgb(52,101,164)" d="M 16212,15278 L 16418,14108 16812,14178 16399,16517 16005,16447 16212,15278 Z"/>
         </g>
        </g>
        <g class="com.sun.star.drawing.CustomShape">
         <g id="id7">
          <rect class="BoundingBox" stroke="none" fill="none" x="15177" y="14907" width="1249" height="1762"/>
          <path fill="rgb(255,255,255)" stroke="none" d="M 15628,15887 L 15178,15108 15524,14908 16424,16467 16078,16667 15628,15887 Z"/>
          <path fill="none" stroke="rgb(255,255,255)" d="M 15628,15887 L 15178,15108 15524,14908 16424,16467 16078,16667 15628,15887 Z"/>
         </g>
        </g>
        <g class="com.sun.star.drawing.CustomShape">
         <g id="id8">
          <rect class="BoundingBox" stroke="none" fill="none" x="16332" y="15217" width="2458" height="1643"/>
          <path fill="rgb(255,255,255)" stroke="none" d="M 17660,16212 L 16532,16858 16333,16511 18589,15218 18788,15565 17660,16212 Z"/>
          <path fill="none" stroke="rgb(255,255,255)" d="M 17660,16212 L 16532,16858 16333,16511 18589,15218 18788,15565 17660,16212 Z"/>
         </g>
        </g>
        <g class="com.sun.star.drawing.CustomShape">
         <g id="id9">
          <rect class="BoundingBox" stroke="none" fill="none" x="15232" y="13312" width="2458" height="1643"/>
          <path fill="rgb(255,255,255)" stroke="none" d="M 16560,14307 L 15432,14953 15233,14606 17489,13313 17688,13660 16560,14307 Z"/>
          <path fill="none" stroke="rgb(255,255,255)" d="M 16560,14307 L 15432,14953 15233,14606 17489,13313 17688,13660 16560,14307 Z"/>
         </g>
        </g>
       </g>
       <g class="Group">
        <g class="Group">
         <g class="com.sun.star.drawing.CustomShape">
          <g id="id10">
           <rect class="BoundingBox" stroke="none" fill="none" x="10375" y="3650" width="7364" height="12434"/>
           <path fill="rgb(17,17,17)" stroke="none" d="M 10550,3751 L 10723,3651 17737,15883 17390,16082 10376,3850 10550,3751 Z"/>
           <path fill="none" stroke="rgb(52,101,164)" d="M 10550,3751 L 10723,3651 17737,15883 17390,16082 10376,3850 10550,3751 Z"/>
          </g>
         </g>
         <g class="com.sun.star.drawing.CustomShape">
          <g id="id11">
           <rect class="BoundingBox" stroke="none" fill="none" x="14056" y="10071" width="847" height="1069"/>
           <path fill="rgb(248,248,0)" stroke="none" d="M 14231,10172 L 14404,10072 14901,10939 14554,11138 14057,10271 14231,10172 Z"/>
           <path fill="none" stroke="rgb(52,101,164)" d="M 14231,10172 L 14404,10072 14901,10939 14554,11138 14057,10271 14231,10172 Z"/>
          </g>
         </g>
         <g class="com.sun.star.drawing.CustomShape">
          <g id="id12">
           <rect class="BoundingBox" stroke="none" fill="none" x="14056" y="10071" width="847" height="1069"/>
           <path fill="rgb(248,248,0)" stroke="none" d="M 14231,10172 L 14404,10072 14901,10939 14554,11138 14057,10271 14231,10172 Z"/>
           <path fill="none" stroke="rgb(52,101,164)" d="M 14231,10172 L 14404,10072 14901,10939 14554,11138 14057,10271 14231,10172 Z"/>
          </g>
         </g>
         <g class="com.sun.star.drawing.CustomShape">
          <g id="id13">
           <rect class="BoundingBox" stroke="none" fill="none" x="12117" y="6688" width="847" height="1069"/>
           <path fill="rgb(248,248,0)" stroke="none" d="M 12292,6789 L 12465,6689 12962,7556 12615,7755 12118,6888 12292,6789 Z"/>
           <path fill="none" stroke="rgb(52,101,164)" d="M 12292,6789 L 12465,6689 12962,7556 12615,7755 12118,6888 12292,6789 Z"/>
          </g>
         </g>
         <g class="com.sun.star.drawing.CustomShape">
          <g id="id14">
           <rect class="BoundingBox" stroke="none" fill="none" x="13111" y="8423" width="847" height="1069"/>
           <path fill="rgb(248,248,0)" stroke="none" d="M 13286,8524 L 13459,8424 13956,9291 13609,9490 13112,8623 13286,8524 Z"/>
           <path fill="none" stroke="rgb(52,101,164)" d="M 13286,8524 L 13459,8424 13956,9291 13609,9490 13112,8623 13286,8524 Z"/>
          </g>
         </g>
         <g class="com.sun.star.drawing.CustomShape">
          <g id="id15">
           <rect class="BoundingBox" stroke="none" fill="none" x="16046" y="13541" width="847" height="1069"/>
           <path fill="rgb(248,248,0)" stroke="none" d="M 16221,13642 L 16394,13542 16891,14409 16544,14608 16047,13741 16221,13642 Z"/>
           <path fill="none" stroke="rgb(52,101,164)" d="M 16221,13642 L 16394,13542 16891,14409 16544,14608 16047,13741 16221,13642 Z"/>
          </g>
         </g>
         <g class="com.sun.star.drawing.CustomShape">
          <g id="id16">
           <rect class="BoundingBox" stroke="none" fill="none" x="15051" y="11806" width="847" height="1069"/>
           <path fill="rgb(248,248,0)" stroke="none" d="M 15226,11907 L 15399,11807 15896,12674 15549,12873 15052,12006 15226,11907 Z"/>
           <path fill="none" stroke="rgb(52,101,164)" d="M 15226,11907 L 15399,11807 15896,12674 15549,12873 15052,12006 15226,11907 Z"/>
          </g>
         </g>
         <g class="com.sun.star.drawing.CustomShape">
          <g id="id17">
           <rect class="BoundingBox" stroke="none" fill="none" x="11072" y="4866" width="847" height="1069"/>
           <path fill="rgb(248,248,0)" stroke="none" d="M 11247,4967 L 11420,4867 11917,5734 11570,5933 11073,5066 11247,4967 Z"/>
           <path fill="none" stroke="rgb(52,101,164)" d="M 11247,4967 L 11420,4867 11917,5734 11570,5933 11073,5066 11247,4967 Z"/>
          </g>
         </g>
        </g>
        <g class="com.sun.star.drawing.CustomShape">
         <g id="id18">
          <rect class="BoundingBox" stroke="none" fill="none" x="16021" y="13495" width="751" height="896"/>
          <path fill="rgb(248,248,0)" stroke="none" d="M 16195,13597 L 16368,13496 16770,14188 16424,14389 16022,13697 16195,13597 Z"/>
          <path fill="none" stroke="rgb(52,101,164)" d="M 16195,13597 L 16368,13496 16770,14188 16424,14389 16022,13697 16195,13597 Z"/>
         </g>
        </g>
        <g class="com.sun.star.drawing.CustomShape">
         <g id="id19">
          <rect class="BoundingBox" stroke="none" fill="none" x="17317" y="15740" width="751" height="896"/>
          <path fill="rgb(248,248,0)" stroke="none" d="M 17491,15842 L 17664,15741 18066,16433 17720,16634 17318,15942 17491,15842 Z"/>
          <path fill="none" stroke="rgb(52,101,164)" d="M 17491,15842 L 17664,15741 18066,16433 17720,16634 17318,15942 17491,15842 Z"/>
         </g>
        </g>
       </g>
      </g>
     </g>
    </g>
   </g>
  </g>
 </g>
</svg>