<?xml version="1.0" encoding="UTF-8"?>
<!DOCTYPE svg PUBLIC "-//W3C//DTD SVG 1.1//EN" "http://www.w3.org/Graphics/SVG/1.1/DTD/svg11.dtd">
<svg version="1.2" width="297mm" height="210mm" viewBox="0 0 29700 21000" preserveAspectRatio="xMidYMid" fill-rule="evenodd" stroke-width="28.222" stroke-linejoin="round" xmlns="http://www.w3.org/2000/svg" xmlns:ooo="http://xml.openoffice.org/svg/export" xmlns:xlink="http://www.w3.org/1999/xlink" xmlns:presentation="http://sun.com/xmlns/staroffice/presentation" xmlns:smil="http://www.w3.org/2001/SMIL20/" xmlns:anim="urn:oasis:names:tc:opendocument:xmlns:animation:1.0" xml:space="preserve">
 <defs class="ClipPathGroup">
  <clipPath id="presentation_clip_path" clipPathUnits="userSpaceOnUse">
   <rect x="0" y="0" width="29700" height="21000"/>
  </clipPath>
  <clipPath id="presentation_clip_path_shrink" clipPathUnits="userSpaceOnUse">
   <rect x="29" y="21" width="29641" height="20958"/>
  </clipPath>
 </defs>
 <defs class="TextShapeIndex">
  <g ooo:slide="id1" ooo:id-list="id3 id4 id5 id6 id7 id8 id9 id10 id11 id12 id13 id14 id15 id16 id17 id18 id19"/>
 </defs>
 <defs class="EmbeddedBulletChars">
  <g id="bullet-char-template-57356" transform="scale(0.00048828125,-0.00048828125)">
   <path d="M 580,1141 L 1163,571 580,0 -4,571 580,1141 Z"/>
  </g>
  <g id="bullet-char-template-57354" transform="scale(0.00048828125,-0.00048828125)">
   <path d="M 8,1128 L 1137,1128 1137,0 8,0 8,1128 Z"/>
  </g>
  <g id="bullet-char-template-10146" transform="scale(0.00048828125,-0.00048828125)">
   <path d="M 174,0 L 602,739 174,1481 1456,739 174,0 Z M 1358,739 L 309,1346 659,739 1358,739 Z"/>
  </g>
  <g id="bullet-char-template-10132" transform="scale(0.00048828125,-0.00048828125)">
   <path d="M 2015,739 L 1276,0 717,0 1260,543 174,543 174,936 1260,936 717,1481 1274,1481 2015,739 Z"/>
  </g>
  <g id="bullet-char-template-10007" transform="scale(0.00048828125,-0.00048828125)">
   <path d="M 0,-2 C -7,14 -16,27 -25,37 L 356,567 C 262,823 215,952 215,954 215,979 228,992 255,992 264,992 276,990 289,987 310,991 331,999 354,1012 L 381,999 492,748 772,1049 836,1024 860,1049 C 881,1039 901,1025 922,1006 886,937 835,863 770,784 769,783 710,716 594,584 L 774,223 C 774,196 753,168 711,139 L 727,119 C 717,90 699,76 672,76 641,76 570,178 457,381 L 164,-76 C 142,-110 111,-127 72,-127 30,-127 9,-110 8,-76 1,-67 -2,-52 -2,-32 -2,-23 -1,-13 0,-2 Z"/>
  </g>
  <g id="bullet-char-template-10004" transform="scale(0.00048828125,-0.00048828125)">
   <path d="M 285,-33 C 182,-33 111,30 74,156 52,228 41,333 41,471 41,549 55,616 82,672 116,743 169,778 240,778 293,778 328,747 346,684 L 369,508 C 377,444 397,411 428,410 L 1163,1116 C 1174,1127 1196,1133 1229,1133 1271,1133 1292,1118 1292,1087 L 1292,965 C 1292,929 1282,901 1262,881 L 442,47 C 390,-6 338,-33 285,-33 Z"/>
  </g>
  <g id="bullet-char-template-9679" transform="scale(0.00048828125,-0.00048828125)">
   <path d="M 813,0 C 632,0 489,54 383,161 276,268 223,411 223,592 223,773 276,916 383,1023 489,1130 632,1184 813,1184 992,1184 1136,1130 1245,1023 1353,916 1407,772 1407,592 1407,412 1353,268 1245,161 1136,54 992,0 813,0 Z"/>
  </g>
  <g id="bullet-char-template-8226" transform="scale(0.00048828125,-0.00048828125)">
   <path d="M 346,457 C 273,457 209,483 155,535 101,586 74,649 74,723 74,796 101,859 155,911 209,963 273,989 346,989 419,989 480,963 531,910 582,859 608,796 608,723 608,648 583,586 532,535 482,483 420,457 346,457 Z"/>
  </g>
  <g id="bullet-char-template-8211" transform="scale(0.00048828125,-0.00048828125)">
   <path d="M -4,459 L 1135,459 1135,606 -4,606 -4,459 Z"/>
  </g>
  <g id="bullet-char-template-61548" transform="scale(0.00048828125,-0.00048828125)">
   <path d="M 173,740 C 173,903 231,1043 346,1159 462,1274 601,1332 765,1332 928,1332 1067,1274 1183,1159 1299,1043 1357,903 1357,740 1357,577 1299,437 1183,322 1067,206 928,148 765,148 601,148 462,206 346,322 231,437 173,577 173,740 Z"/>
  </g>
 </defs>
 <g>
  <g id="id2" class="Master_Slide">
   <g id="bg-id2" class="Background"/>
   <g id="bo-id2" class="BackgroundObjects"/>
  </g>
 </g>
 <g class="SlideGroup">
  <g>
   <g id="container-id1">
    <g id="id1" class="Slide" clip-path="url(#presentation_clip_path)">
     <g class="Page">
      <g class="Group">
       <g class="Group">
        <g class="Group">
         <g class="com.sun.star.drawing.CustomShape">
          <g id="id3">
           <rect class="BoundingBox" stroke="none" fill="none" x="8735" y="13825" width="2980" height="2415"/>
           <path fill="rgb(255,255,0)" stroke="none" d="M 11480,15369 L 11247,16238 8736,15565 9202,13826 11713,14499 11480,15369 Z"/>
           <path fill="none" stroke="rgb(52,101,164)" d="M 11480,15369 L 11247,16238 8736,15565 9202,13826 11713,14499 11480,15369 Z"/>
          </g>
         </g>
         <g class="com.sun.star.drawing.CustomShape">
          <g id="id4">
           <rect class="BoundingBox" stroke="none" fill="none" x="8750" y="14063" width="1237" height="2040"/>
           <path fill="rgb(0,0,0)" stroke="none" d="M 9550,14998 L 9985,15932 9623,16101 8751,14233 9114,14064 9550,14998 Z"/>
           <path fill="none" stroke="rgb(52,101,164)" d="M 9550,14998 L 9985,15932 9623,16101 8751,14233 9114,14064 9550,14998 Z"/>
          </g>
         </g>
         <g class="com.sun.star.drawing.CustomShape">
          <g id="id5">
           <rect class="BoundingBox" stroke="none" fill="none" x="8350" y="13721" width="855" height="1846"/>
           <path fill="rgb(255,255,255)" stroke="none" d="M 8970,14695 L 8737,15565 8351,15461 8817,13722 9203,13826 8970,14695 Z"/>
           <path fill="none" stroke="rgb(255,255,255)" d="M 8970,14695 L 8737,15565 8351,15461 8817,13722 9203,13826 8970,14695 Z"/>
          </g>
         </g>
        </g>
        <g class="com.sun.star.drawing.CustomShape">
         <g id="id6">
          <rect class="BoundingBox" stroke="none" fill="none" x="10086" y="13905" width="1369" height="2324"/>
          <path fill="rgb(0,0,0)" stroke="none" d="M 10951,14982 L 11453,16058 11091,16227 10087,14075 10449,13906 10951,14982 Z"/>
          <path fill="none" stroke="rgb(52,101,164)" d="M 10951,14982 L 11453,16058 11091,16227 10087,14075 10449,13906 10951,14982 Z"/>
         </g>
        </g>
        <g class="com.sun.star.drawing.CustomShape">
         <g id="id7">
          <rect class="BoundingBox" stroke="none" fill="none" x="11055" y="14446" width="855" height="1846"/>
          <path fill="rgb(255,255,255)" stroke="none" d="M 11675,15420 L 11442,16290 11056,16186 11522,14447 11908,14551 11675,15420 Z"/>
          <path fill="none" stroke="rgb(255,255,255)" d="M 11675,15420 L 11442,16290 11056,16186 11522,14447 11908,14551 11675,15420 Z"/>
         </g>
        </g>
        <g class="com.sun.star.drawing.CustomShape">
         <g id="id8">
          <rect class="BoundingBox" stroke="none" fill="none" x="8536" y="15538" width="2618" height="1055"/>
          <path fill="rgb(255,255,255)" stroke="none" d="M 9793,16258 L 8537,15926 8639,15539 11152,16204 11050,16591 9793,16258 Z"/>
          <path fill="none" stroke="rgb(255,255,255)" d="M 9793,16258 L 8537,15926 8639,15539 11152,16204 11050,16591 9793,16258 Z"/>
         </g>
        </g>
        <g class="com.sun.star.drawing.CustomShape">
         <g id="id9">
          <rect class="BoundingBox" stroke="none" fill="none" x="9105" y="13413" width="2618" height="1055"/>
          <path fill="rgb(255,255,255)" stroke="none" d="M 10362,14133 L 9106,13801 9208,13414 11721,14079 11619,14466 10362,14133 Z"/>
          <path fill="none" stroke="rgb(255,255,255)" d="M 10362,14133 L 9106,13801 9208,13414 11721,14079 11619,14466 10362,14133 Z"/>
         </g>
        </g>
       </g>
       <g class="Group">
        <g class="Group">
         <g class="com.sun.star.drawing.CustomShape">
          <g id="id10">
           <rect class="BoundingBox" stroke="none" fill="none" x="9635" y="2329" width="3999" height="13736"/>
           <path fill="rgb(17,17,17)" stroke="none" d="M 13439,2381 L 13632,2433 10023,16063 9636,15961 13245,2330 13439,2381 Z"/>
           <path fill="none" stroke="rgb(52,101,164)" d="M 13439,2381 L 13632,2433 10023,16063 9636,15961 13245,2330 13439,2381 Z"/>
          </g>
         </g>
         <g class="com.sun.star.drawing.CustomShape">
          <g id="id11">
           <rect class="BoundingBox" stroke="none" fill="none" x="11093" y="9483" width="646" height="1072"/>
           <path fill="rgb(248,248,0)" stroke="none" d="M 11544,9535 L 11737,9586 11481,10553 11094,10451 11350,9484 11544,9535 Z"/>
           <path fill="none" stroke="rgb(52,101,164)" d="M 11544,9535 L 11737,9586 11481,10553 11094,10451 11350,9484 11544,9535 Z"/>
          </g>
         </g>
         <g class="com.sun.star.drawing.CustomShape">
          <g id="id12">
           <rect class="BoundingBox" stroke="none" fill="none" x="11093" y="9483" width="646" height="1072"/>
           <path fill="rgb(248,248,0)" stroke="none" d="M 11544,9535 L 11737,9586 11481,10553 11094,10451 11350,9484 11544,9535 Z"/>
           <path fill="none" stroke="rgb(52,101,164)" d="M 11544,9535 L 11737,9586 11481,10553 11094,10451 11350,9484 11544,9535 Z"/>
          </g>
         </g>
         <g class="com.sun.star.drawing.CustomShape">
          <g id="id13">
           <rect class="BoundingBox" stroke="none" fill="none" x="12091" y="5713" width="646" height="1072"/>
           <path fill="rgb(248,248,0)" stroke="none" d="M 12542,5765 L 12735,5816 12479,6783 12092,6681 12348,5714 12542,5765 Z"/>
           <path fill="none" stroke="rgb(52,101,164)" d="M 12542,5765 L 12735,5816 12479,6783 12092,6681 12348,5714 12542,5765 Z"/>
          </g>
         </g>
         <g class="com.sun.star.drawing.CustomShape">
          <g id="id14">
           <rect class="BoundingBox" stroke="none" fill="none" x="11579" y="7647" width="646" height="1072"/>
           <path fill="rgb(248,248,0)" stroke="none" d="M 12030,7699 L 12223,7750 11967,8717 11580,8615 11836,7648 12030,7699 Z"/>
           <path fill="none" stroke="rgb(52,101,164)" d="M 12030,7699 L 12223,7750 11967,8717 11580,8615 11836,7648 12030,7699 Z"/>
          </g>
         </g>
         <g class="com.sun.star.drawing.CustomShape">
          <g id="id15">
           <rect class="BoundingBox" stroke="none" fill="none" x="10069" y="13350" width="646" height="1072"/>
           <path fill="rgb(248,248,0)" stroke="none" d="M 10520,13402 L 10713,13453 10457,14420 10070,14318 10326,13351 10520,13402 Z"/>
           <path fill="none" stroke="rgb(52,101,164)" d="M 10520,13402 L 10713,13453 10457,14420 10070,14318 10326,13351 10520,13402 Z"/>
          </g>
         </g>
         <g class="com.sun.star.drawing.CustomShape">
          <g id="id16">
           <rect class="BoundingBox" stroke="none" fill="none" x="10581" y="11417" width="646" height="1072"/>
           <path fill="rgb(248,248,0)" stroke="none" d="M 11032,11469 L 11225,11520 10969,12487 10582,12385 10838,11418 11032,11469 Z"/>
           <path fill="none" stroke="rgb(52,101,164)" d="M 11032,11469 L 11225,11520 10969,12487 10582,12385 10838,11418 11032,11469 Z"/>
          </g>
         </g>
         <g class="com.sun.star.drawing.CustomShape">
          <g id="id17">
           <rect class="BoundingBox" stroke="none" fill="none" x="12629" y="3683" width="646" height="1072"/>
           <path fill="rgb(248,248,0)" stroke="none" d="M 13080,3735 L 13273,3786 13017,4753 12630,4651 12886,3684 13080,3735 Z"/>
           <path fill="none" stroke="rgb(52,101,164)" d="M 13080,3735 L 13273,3786 13017,4753 12630,4651 12886,3684 13080,3735 Z"/>
          </g>
         </g>
        </g>
        <g class="com.sun.star.drawing.CustomShape">
         <g id="id18">
          <rect class="BoundingBox" stroke="none" fill="none" x="10130" y="13299" width="598" height="880"/>
          <path fill="rgb(248,248,0)" stroke="none" d="M 10533,13353 L 10726,13405 10517,14177 10131,14072 10340,13300 10533,13353 Z"/>
          <path fill="none" stroke="rgb(52,101,164)" d="M 10533,13353 L 10726,13405 10517,14177 10131,14072 10340,13300 10533,13353 Z"/>
         </g>
        </g>
        <g class="com.sun.star.drawing.CustomShape">
         <g id="id19">
          <rect class="BoundingBox" stroke="none" fill="none" x="9459" y="15803" width="598" height="880"/>
          <path fill="rgb(248,248,0)" stroke="none" d="M 9862,15857 L 10055,15909 9846,16681 9460,16576 9669,15804 9862,15857 Z"/>
          <path fill="none" stroke="rgb(52,101,164)" d="M 9862,15857 L 10055,15909 9846,16681 9460,16576 9669,15804 9862,15857 Z"/>
         </g>
        </g>
       </g>
      </g>
     </g>
    </g>
   </g>
  </g>
 </g>
</svg>