<?xml version="1.0" encoding="UTF-8"?>
<!DOCTYPE svg PUBLIC "-//W3C//DTD SVG 1.1//EN" "http://www.w3.org/Graphics/SVG/1.1/DTD/svg11.dtd">
<svg version="1.2" width="297mm" height="210mm" viewBox="0 0 29700 21000" preserveAspectRatio="xMidYMid" fill-rule="evenodd" stroke-width="28.222" stroke-linejoin="round" xmlns="http://www.w3.org/2000/svg" xmlns:ooo="http://xml.openoffice.org/svg/export" xmlns:xlink="http://www.w3.org/1999/xlink" xmlns:presentation="http://sun.com/xmlns/staroffice/presentation" xmlns:smil="http://www.w3.org/2001/SMIL20/" xmlns:anim="urn:oasis:names:tc:opendocument:xmlns:animation:1.0" xml:space="preserve">
 <defs class="ClipPathGroup">
  <clipPath id="presentation_clip_path" clipPathUnits="userSpaceOnUse">
   <rect x="0" y="0" width="29700" height="21000"/>
  </clipPath>
  <clipPath id="presentation_clip_path_shrink" clipPathUnits="userSpaceOnUse">
   <rect x="29" y="21" width="29641" height="20958"/>
  </clipPath>
 </defs>
 <defs class="TextShapeIndex">
  <g ooo:slide="id1" ooo:id-list="id3 id4 id5 id6 id7 id8 id9 id10 id11 id12 id13 id14 id15 id16 id17 id18 id19"/>
 </defs>
 <defs class="EmbeddedBulletChars">
  <g id="bullet-char-template-57356" transform="scale(0.00048828125,-0.00048828125)">
   <path d="M 580,1141 L 1163,571 580,0 -4,571 580,1141 Z"/>
  </g>
  <g id="bullet-char-template-57354" transform="scale(0.00048828125,-0.00048828125)">
   <path d="M 8,1128 L 1137,1128 1137,0 8,0 8,1128 Z"/>
  </g>
  <g id="bullet-char-template-10146" transform="scale(0.00048828125,-0.00048828125)">
   <path d="M 174,0 L 602,739 174,1481 1456,739 174,0 Z M 1358,739 L 309,1346 659,739 1358,739 Z"/>
  </g>
  <g id="bullet-char-template-10132" transform="scale(0.00048828125,-0.00048828125)">
   <path d="M 2015,739 L 1276,0 717,0 1260,543 174,543 174,936 1260,936 717,1481 1274,1481 2015,739 Z"/>
  </g>
  <g id="bullet-char-template-10007" transform="scale(0.00048828125,-0.00048828125)">
   <path d="M 0,-2 C -7,14 -16,27 -25,37 L 356,567 C 262,823 215,952 215,954 215,979 228,992 255,992 264,992 276,990 289,987 310,991 331,999 354,1012 L 381,999 492,748 772,1049 836,1024 860,1049 C 881,1039 901,1025 922,1006 886,937 835,863 770,784 769,783 710,716 594,584 L 774,223 C 774,196 753,168 711,139 L 727,119 C 717,90 699,76 672,76 641,76 570,178 457,381 L 164,-76 C 142,-110 111,-127 72,-127 30,-127 9,-110 8,-76 1,-67 -2,-52 -2,-32 -2,-23 -1,-13 0,-2 Z"/>
  </g>
  <g id="bullet-char-template-10004" transform="scale(0.00048828125,-0.00048828125)">
   <path d="M 285,-33 C 182,-33 111,30 74,156 52,228 41,333 41,471 41,549 55,616 82,672 116,743 169,778 240,778 293,778 328,747 346,684 L 369,508 C 377,444 397,411 428,410 L 1163,1116 C 1174,1127 1196,1133 1229,1133 1271,1133 1292,1118 1292,1087 L 1292,965 C 1292,929 1282,901 1262,881 L 442,47 C 390,-6 338,-33 285,-33 Z"/>
  </g>
  <g id="bullet-char-template-9679" transform="scale(0.00048828125,-0.00048828125)">
   <path d="M 813,0 C 632,0 489,54 383,161 276,268 223,411 223,592 223,773 276,916 383,1023 489,1130 632,1184 813,1184 992,1184 1136,1130 1245,1023 1353,916 1407,772 1407,592 1407,412 1353,268 1245,161 1136,54 992,0 813,0 Z"/>
  </g>
  <g id="bullet-char-template-8226" transform="scale(0.00048828125,-0.00048828125)">
   <path d="M 346,457 C 273,457 209,483 155,535 101,586 74,649 74,723 74,796 101,859 155,911 209,963 273,989 346,989 419,989 480,963 531,910 582,859 608,796 608,723 608,648 583,586 532,535 482,483 420,457 346,457 Z"/>
  </g>
  <g id="bullet-char-template-8211" transform="scale(0.00048828125,-0.00048828125)">
   <path d="M -4,459 L 1135,459 1135,606 -4,606 -4,459 Z"/>
  </g>
  <g id="bullet-char-template-61548" transform="scale(0.00048828125,-0.00048828125)">
   <path d="M 173,740 C 173,903 231,1043 346,1159 462,1274 601,1332 765,1332 928,1332 1067,1274 1183,1159 1299,1043 1357,903 1357,740 1357,577 1299,437 1183,322 1067,206 928,148 765,148 601,148 462,206 346,322 231,437 173,577 173,740 Z"/>
  </g>
 </defs>
 <g>
  <g id="id2" class="Master_Slide">
   <g id="bg-id2" class="Background"/>
   <g id="bo-id2" class="BackgroundObjects"/>
  </g>
 </g>
 <g class="SlideGroup">
  <g>
   <g id="container-id1">
    <g id="id1" class="Slide" clip-path="url(#presentation_clip_path)">
     <g class="Page">
      <g class="Group">
       <g class="Group">
        <g class="Group">
         <g class="com.sun.star.drawing.CustomShape">
          <g id="id3">
           <rect class="BoundingBox" stroke="none" fill="none" x="15436" y="13843" width="2980" height="2415"/>
           <path fill="rgb(255,255,0)" stroke="none" d="M 15670,15386 L 15437,14517 17948,13844 18414,15583 15902,16256 15670,15386 Z"/>
           <path fill="none" stroke="rgb(52,101,164)" d="M 15670,15386 L 15437,14517 17948,13844 18414,15583 15902,16256 15670,15386 Z"/>
          </g>
         </g>
         <g class="com.sun.star.drawing.CustomShape">
          <g id="id4">
           <rect class="BoundingBox" stroke="none" fill="none" x="17164" y="14081" width="1237" height="2041"/>
           <path fill="rgb(0,0,0)" stroke="none" d="M 17601,15016 L 18037,14082 18399,14251 17527,16120 17165,15951 17601,15016 Z"/>
           <path fill="none" stroke="rgb(52,101,164)" d="M 17601,15016 L 18037,14082 18399,14251 17527,16120 17165,15951 17601,15016 Z"/>
          </g>
         </g>
         <g class="com.sun.star.drawing.CustomShape">
          <g id="id5">
           <rect class="BoundingBox" stroke="none" fill="none" x="17947" y="13739" width="855" height="1845"/>
           <path fill="rgb(255,255,255)" stroke="none" d="M 18181,14713 L 17948,13844 18334,13740 18800,15479 18414,15582 18181,14713 Z"/>
           <path fill="none" stroke="rgb(255,255,255)" d="M 18181,14713 L 17948,13844 18334,13740 18800,15479 18414,15582 18181,14713 Z"/>
          </g>
         </g>
        </g>
        <g class="com.sun.star.drawing.CustomShape">
         <g id="id6">
          <rect class="BoundingBox" stroke="none" fill="none" x="15695" y="13923" width="1370" height="2324"/>
          <path fill="rgb(0,0,0)" stroke="none" d="M 16198,15000 L 16701,13924 17063,14093 16059,16245 15696,16076 16198,15000 Z"/>
          <path fill="none" stroke="rgb(52,101,164)" d="M 16198,15000 L 16701,13924 17063,14093 16059,16245 15696,16076 16198,15000 Z"/>
         </g>
        </g>
        <g class="com.sun.star.drawing.CustomShape">
         <g id="id7">
          <rect class="BoundingBox" stroke="none" fill="none" x="15242" y="14464" width="855" height="1845"/>
          <path fill="rgb(255,255,255)" stroke="none" d="M 15476,15438 L 15243,14569 15629,14465 16095,16204 15709,16307 15476,15438 Z"/>
          <path fill="none" stroke="rgb(255,255,255)" d="M 15476,15438 L 15243,14569 15629,14465 16095,16204 15709,16307 15476,15438 Z"/>
         </g>
        </g>
        <g class="com.sun.star.drawing.CustomShape">
         <g id="id8">
          <rect class="BoundingBox" stroke="none" fill="none" x="15998" y="15556" width="2618" height="1055"/>
          <path fill="rgb(255,255,255)" stroke="none" d="M 17358,16276 L 16101,16609 15999,16222 18511,15557 18614,15943 17358,16276 Z"/>
          <path fill="none" stroke="rgb(255,255,255)" d="M 17358,16276 L 16101,16609 15999,16222 18511,15557 18614,15943 17358,16276 Z"/>
         </g>
        </g>
        <g class="com.sun.star.drawing.CustomShape">
         <g id="id9">
          <rect class="BoundingBox" stroke="none" fill="none" x="15429" y="13431" width="2618" height="1055"/>
          <path fill="rgb(255,255,255)" stroke="none" d="M 16789,14151 L 15532,14484 15430,14097 17942,13432 18045,13818 16789,14151 Z"/>
          <path fill="none" stroke="rgb(255,255,255)" d="M 16789,14151 L 15532,14484 15430,14097 17942,13432 18045,13818 16789,14151 Z"/>
         </g>
        </g>
       </g>
       <g class="Group">
        <g class="Group">
         <g class="com.sun.star.drawing.CustomShape">
          <g id="id10">
           <rect class="BoundingBox" stroke="none" fill="none" x="13539" y="2341" width="3985" height="13741"/>
           <path fill="rgb(17,17,17)" stroke="none" d="M 13733,2393 L 13927,2342 17522,15978 17135,16080 13540,2444 13733,2393 Z"/>
           <path fill="none" stroke="rgb(52,101,164)" d="M 13733,2393 L 13927,2342 17522,15978 17135,16080 13540,2444 13733,2393 Z"/>
          </g>
         </g>
         <g class="com.sun.star.drawing.CustomShape">
          <g id="id11">
           <rect class="BoundingBox" stroke="none" fill="none" x="15414" y="9501" width="645" height="1072"/>
           <path fill="rgb(248,248,0)" stroke="none" d="M 15609,9553 L 15802,9502 16057,10469 15670,10571 15415,9604 15609,9553 Z"/>
           <path fill="none" stroke="rgb(52,101,164)" d="M 15609,9553 L 15802,9502 16057,10469 15670,10571 15415,9604 15609,9553 Z"/>
          </g>
         </g>
         <g class="com.sun.star.drawing.CustomShape">
          <g id="id12">
           <rect class="BoundingBox" stroke="none" fill="none" x="15414" y="9501" width="645" height="1072"/>
           <path fill="rgb(248,248,0)" stroke="none" d="M 15609,9553 L 15802,9502 16057,10469 15670,10571 15415,9604 15609,9553 Z"/>
           <path fill="none" stroke="rgb(52,101,164)" d="M 15609,9553 L 15802,9502 16057,10469 15670,10571 15415,9604 15609,9553 Z"/>
          </g>
         </g>
         <g class="com.sun.star.drawing.CustomShape">
          <g id="id13">
           <rect class="BoundingBox" stroke="none" fill="none" x="14416" y="5731" width="645" height="1072"/>
           <path fill="rgb(248,248,0)" stroke="none" d="M 14611,5783 L 14804,5732 15059,6699 14672,6801 14417,5834 14611,5783 Z"/>
           <path fill="none" stroke="rgb(52,101,164)" d="M 14611,5783 L 14804,5732 15059,6699 14672,6801 14417,5834 14611,5783 Z"/>
          </g>
         </g>
         <g class="com.sun.star.drawing.CustomShape">
          <g id="id14">
           <rect class="BoundingBox" stroke="none" fill="none" x="14928" y="7665" width="645" height="1072"/>
           <path fill="rgb(248,248,0)" stroke="none" d="M 15123,7717 L 15316,7666 15571,8633 15184,8735 14929,7768 15123,7717 Z"/>
           <path fill="none" stroke="rgb(52,101,164)" d="M 15123,7717 L 15316,7666 15571,8633 15184,8735 14929,7768 15123,7717 Z"/>
          </g>
         </g>
         <g class="com.sun.star.drawing.CustomShape">
          <g id="id15">
           <rect class="BoundingBox" stroke="none" fill="none" x="16438" y="13368" width="645" height="1072"/>
           <path fill="rgb(248,248,0)" stroke="none" d="M 16633,13420 L 16826,13369 17081,14336 16694,14438 16439,13471 16633,13420 Z"/>
           <path fill="none" stroke="rgb(52,101,164)" d="M 16633,13420 L 16826,13369 17081,14336 16694,14438 16439,13471 16633,13420 Z"/>
          </g>
         </g>
         <g class="com.sun.star.drawing.CustomShape">
          <g id="id16">
           <rect class="BoundingBox" stroke="none" fill="none" x="15926" y="11435" width="645" height="1072"/>
           <path fill="rgb(248,248,0)" stroke="none" d="M 16121,11487 L 16314,11436 16569,12403 16182,12505 15927,11538 16121,11487 Z"/>
           <path fill="none" stroke="rgb(52,101,164)" d="M 16121,11487 L 16314,11436 16569,12403 16182,12505 15927,11538 16121,11487 Z"/>
          </g>
         </g>
         <g class="com.sun.star.drawing.CustomShape">
          <g id="id17">
           <rect class="BoundingBox" stroke="none" fill="none" x="13878" y="3701" width="645" height="1072"/>
           <path fill="rgb(248,248,0)" stroke="none" d="M 14073,3753 L 14266,3702 14521,4669 14134,4771 13879,3804 14073,3753 Z"/>
           <path fill="none" stroke="rgb(52,101,164)" d="M 14073,3753 L 14266,3702 14521,4669 14134,4771 13879,3804 14073,3753 Z"/>
          </g>
         </g>
        </g>
        <g class="com.sun.star.drawing.CustomShape">
         <g id="id18">
          <rect class="BoundingBox" stroke="none" fill="none" x="16422" y="13317" width="599" height="880"/>
          <path fill="rgb(248,248,0)" stroke="none" d="M 16616,13371 L 16809,13318 17019,14090 16633,14195 16423,13423 16616,13371 Z"/>
          <path fill="none" stroke="rgb(52,101,164)" d="M 16616,13371 L 16809,13318 17019,14090 16633,14195 16423,13423 16616,13371 Z"/>
         </g>
        </g>
        <g class="com.sun.star.drawing.CustomShape">
         <g id="id19">
          <rect class="BoundingBox" stroke="none" fill="none" x="17093" y="15821" width="599" height="880"/>
          <path fill="rgb(248,248,0)" stroke="none" d="M 17287,15875 L 17480,15822 17690,16594 17304,16699 17094,15927 17287,15875 Z"/>
          <path fill="none" stroke="rgb(52,101,164)" d="M 17287,15875 L 17480,15822 17690,16594 17304,16699 17094,15927 17287,15875 Z"/>
         </g>
        </g>
       </g>
      </g>
     </g>
    </g>
   </g>
  </g>
 </g>
</svg>