<?xml version="1.0" encoding="UTF-8"?>
<!DOCTYPE svg PUBLIC "-//W3C//DTD SVG 1.1//EN" "http://www.w3.org/Graphics/SVG/1.1/DTD/svg11.dtd">
<svg version="1.2" width="297mm" height="210mm" viewBox="0 0 29700 21000" preserveAspectRatio="xMidYMid" fill-rule="evenodd" stroke-width="28.222" stroke-linejoin="round" xmlns="http://www.w3.org/2000/svg" xmlns:ooo="http://xml.openoffice.org/svg/export" xmlns:xlink="http://www.w3.org/1999/xlink" xmlns:presentation="http://sun.com/xmlns/staroffice/presentation" xmlns:smil="http://www.w3.org/2001/SMIL20/" xmlns:anim="urn:oasis:names:tc:opendocument:xmlns:animation:1.0" xml:space="preserve">
 <defs class="ClipPathGroup">
  <clipPath id="presentation_clip_path" clipPathUnits="userSpaceOnUse">
   <rect x="0" y="0" width="29700" height="21000"/>
  </clipPath>
  <clipPath id="presentation_clip_path_shrink" clipPathUnits="userSpaceOnUse">
   <rect x="29" y="21" width="29641" height="20958"/>
  </clipPath>
 </defs>
 <defs class="TextShapeIndex">
  <g ooo:slide="id1" ooo:id-list="id3 id4 id5 id6 id7 id8 id9 id10 id11 id12 id13 id14 id15 id16 id17 id18 id19"/>
 </defs>
 <defs class="EmbeddedBulletChars">
  <g id="bullet-char-template-57356" transform="scale(0.00048828125,-0.00048828125)">
   <path d="M 580,1141 L 1163,571 580,0 -4,571 580,1141 Z"/>
  </g>
  <g id="bullet-char-template-57354" transform="scale(0.00048828125,-0.00048828125)">
   <path d="M 8,1128 L 1137,1128 1137,0 8,0 8,1128 Z"/>
  </g>
  <g id="bullet-char-template-10146" transform="scale(0.00048828125,-0.00048828125)">
   <path d="M 174,0 L 602,739 174,1481 1456,739 174,0 Z M 1358,739 L 309,1346 659,739 1358,739 Z"/>
  </g>
  <g id="bullet-char-template-10132" transform="scale(0.00048828125,-0.00048828125)">
   <path d="M 2015,739 L 1276,0 717,0 1260,543 174,543 174,936 1260,936 717,1481 1274,1481 2015,739 Z"/>
  </g>
  <g id="bullet-char-template-10007" transform="scale(0.00048828125,-0.00048828125)">
   <path d="M 0,-2 C -7,14 -16,27 -25,37 L 356,567 C 262,823 215,952 215,954 215,979 228,992 255,992 264,992 276,990 289,987 310,991 331,999 354,1012 L 381,999 492,748 772,1049 836,1024 860,1049 C 881,1039 901,1025 922,1006 886,937 835,863 770,784 769,783 710,716 594,584 L 774,223 C 774,196 753,168 711,139 L 727,119 C 717,90 699,76 672,76 641,76 570,178 457,381 L 164,-76 C 142,-110 111,-127 72,-127 30,-127 9,-110 8,-76 1,-67 -2,-52 -2,-32 -2,-23 -1,-13 0,-2 Z"/>
  </g>
  <g id="bullet-char-template-10004" transform="scale(0.00048828125,-0.00048828125)">
   <path d="M 285,-33 C 182,-33 111,30 74,156 52,228 41,333 41,471 41,549 55,616 82,672 116,743 169,778 240,778 293,778 328,747 346,684 L 369,508 C 377,444 397,411 428,410 L 1163,1116 C 1174,1127 1196,1133 1229,1133 1271,1133 1292,1118 1292,1087 L 1292,965 C 1292,929 1282,901 1262,881 L 442,47 C 390,-6 338,-33 285,-33 Z"/>
  </g>
  <g id="bullet-char-template-9679" transform="scale(0.00048828125,-0.00048828125)">
   <path d="M 813,0 C 632,0 489,54 383,161 276,268 223,411 223,592 223,773 276,916 383,1023 489,1130 632,1184 813,1184 992,1184 1136,1130 1245,1023 1353,916 1407,772 1407,592 1407,412 1353,268 1245,161 1136,54 992,0 813,0 Z"/>
  </g>
  <g id="bullet-char-template-8226" transform="scale(0.00048828125,-0.00048828125)">
   <path d="M 346,457 C 273,457 209,483 155,535 101,586 74,649 74,723 74,796 101,859 155,911 209,963 273,989 346,989 419,989 480,963 531,910 582,859 608,796 608,723 608,648 583,586 532,535 482,483 420,457 346,457 Z"/>
  </g>
  <g id="bullet-char-template-8211" transform="scale(0.00048828125,-0.00048828125)">
   <path d="M -4,459 L 1135,459 1135,606 -4,606 -4,459 Z"/>
  </g>
  <g id="bullet-char-template-61548" transform="scale(0.00048828125,-0.00048828125)">
   <path d="M 173,740 C 173,903 231,1043 346,1159 462,1274 601,1332 765,1332 928,1332 1067,1274 1183,1159 1299,1043 1357,903 1357,740 1357,577 1299,437 1183,322 1067,206 928,148 765,148 601,148 462,206 346,322 231,437 173,577 173,740 Z"/>
  </g>
 </defs>
 <g>
  <g id="id2" class="Master_Slide">
   <g id="bg-id2" class="Background"/>
   <g id="bo-id2" class="BackgroundObjects"/>
  </g>
 </g>
 <g class="SlideGroup">
  <g>
   <g id="container-id1">
    <g id="id1" class="Slide" clip-path="url(#presentation_clip_path)">
     <g class="Page">
      <g class="Group">
       <g class="Group">
        <g class="Group">
         <g class="com.sun.star.drawing.CustomShape">
          <g id="id3">
           <rect class="BoundingBox" stroke="none" fill="none" x="15373" y="13756" width="3062" height="2584"/>
           <path fill="rgb(255,255,0)" stroke="none" d="M 15682,15493 L 15374,14647 17817,13757 18433,15448 15990,16338 15682,15493 Z"/>
           <path fill="none" stroke="rgb(52,101,164)" d="M 15682,15493 L 15374,14647 17817,13757 18433,15448 15990,16338 15682,15493 Z"/>
          </g>
         </g>
         <g class="com.sun.star.drawing.CustomShape">
          <g id="id4">
           <rect class="BoundingBox" stroke="none" fill="none" x="17222" y="13986" width="1085" height="2076"/>
           <path fill="rgb(0,0,0)" stroke="none" d="M 17576,14955 L 17929,13987 18305,14124 17599,16060 17223,15923 17576,14955 Z"/>
           <path fill="none" stroke="rgb(52,101,164)" d="M 17576,14955 L 17929,13987 18305,14124 17599,16060 17223,15923 17576,14955 Z"/>
          </g>
         </g>
         <g class="com.sun.star.drawing.CustomShape">
          <g id="id5">
           <rect class="BoundingBox" stroke="none" fill="none" x="17817" y="13619" width="995" height="1831"/>
           <path fill="rgb(255,255,255)" stroke="none" d="M 18126,14603 L 17818,13757 18194,13620 18810,15311 18434,15448 18126,14603 Z"/>
           <path fill="none" stroke="rgb(255,255,255)" d="M 18126,14603 L 17818,13757 18194,13620 18810,15311 18434,15448 18126,14603 Z"/>
          </g>
         </g>
        </g>
        <g class="com.sun.star.drawing.CustomShape">
         <g id="id6">
          <rect class="BoundingBox" stroke="none" fill="none" x="15769" y="13945" width="1192" height="2371"/>
          <path fill="rgb(0,0,0)" stroke="none" d="M 16177,15062 L 16583,13946 16959,14083 16146,16314 15770,16178 16177,15062 Z"/>
          <path fill="none" stroke="rgb(52,101,164)" d="M 16177,15062 L 16583,13946 16959,14083 16146,16314 15770,16178 16177,15062 Z"/>
         </g>
        </g>
        <g class="com.sun.star.drawing.CustomShape">
         <g id="id7">
          <rect class="BoundingBox" stroke="none" fill="none" x="15186" y="14577" width="995" height="1831"/>
          <path fill="rgb(255,255,255)" stroke="none" d="M 15495,15561 L 15187,14715 15563,14578 16179,16269 15803,16406 15495,15561 Z"/>
          <path fill="none" stroke="rgb(255,255,255)" d="M 15495,15561 L 15187,14715 15563,14578 16179,16269 15803,16406 15495,15561 Z"/>
         </g>
        </g>
        <g class="com.sun.star.drawing.CustomShape">
         <g id="id8">
          <rect class="BoundingBox" stroke="none" fill="none" x="16082" y="15413" width="2585" height="1261"/>
          <path fill="rgb(255,255,255)" stroke="none" d="M 17442,16231 L 16219,16672 16083,16296 18529,15414 18665,15790 17442,16231 Z"/>
          <path fill="none" stroke="rgb(255,255,255)" d="M 17442,16231 L 16219,16672 16083,16296 18529,15414 18665,15790 17442,16231 Z"/>
         </g>
        </g>
        <g class="com.sun.star.drawing.CustomShape">
         <g id="id9">
          <rect class="BoundingBox" stroke="none" fill="none" x="15330" y="13345" width="2585" height="1261"/>
          <path fill="rgb(255,255,255)" stroke="none" d="M 16690,14163 L 15467,14604 15331,14228 17777,13346 17913,13722 16690,14163 Z"/>
          <path fill="none" stroke="rgb(255,255,255)" d="M 16690,14163 L 15467,14604 15331,14228 17777,13346 17913,13722 16690,14163 Z"/>
         </g>
        </g>
       </g>
       <g class="Group">
        <g class="Group">
         <g class="com.sun.star.drawing.CustomShape">
          <g id="id10">
           <rect class="BoundingBox" stroke="none" fill="none" x="12393" y="2662" width="5176" height="13398"/>
           <path fill="rgb(17,17,17)" stroke="none" d="M 12582,2731 L 12770,2663 17567,15922 17191,16058 12394,2799 12582,2731 Z"/>
           <path fill="none" stroke="rgb(52,101,164)" d="M 12582,2731 L 12770,2663 17567,15922 17191,16058 12394,2799 12582,2731 Z"/>
          </g>
         </g>
         <g class="com.sun.star.drawing.CustomShape">
          <g id="id11">
           <rect class="BoundingBox" stroke="none" fill="none" x="14923" y="9620" width="719" height="1077"/>
           <path fill="rgb(248,248,0)" stroke="none" d="M 15112,9689 L 15300,9621 15640,10559 15264,10695 14924,9757 15112,9689 Z"/>
           <path fill="none" stroke="rgb(52,101,164)" d="M 15112,9689 L 15300,9621 15640,10559 15264,10695 14924,9757 15112,9689 Z"/>
          </g>
         </g>
         <g class="com.sun.star.drawing.CustomShape">
          <g id="id12">
           <rect class="BoundingBox" stroke="none" fill="none" x="14923" y="9620" width="719" height="1077"/>
           <path fill="rgb(248,248,0)" stroke="none" d="M 15112,9689 L 15300,9621 15640,10559 15264,10695 14924,9757 15112,9689 Z"/>
           <path fill="none" stroke="rgb(52,101,164)" d="M 15112,9689 L 15300,9621 15640,10559 15264,10695 14924,9757 15112,9689 Z"/>
          </g>
         </g>
         <g class="com.sun.star.drawing.CustomShape">
          <g id="id13">
           <rect class="BoundingBox" stroke="none" fill="none" x="13600" y="5951" width="719" height="1077"/>
           <path fill="rgb(248,248,0)" stroke="none" d="M 13789,6020 L 13977,5952 14317,6890 13941,7026 13601,6088 13789,6020 Z"/>
           <path fill="none" stroke="rgb(52,101,164)" d="M 13789,6020 L 13977,5952 14317,6890 13941,7026 13601,6088 13789,6020 Z"/>
          </g>
         </g>
         <g class="com.sun.star.drawing.CustomShape">
          <g id="id14">
           <rect class="BoundingBox" stroke="none" fill="none" x="14278" y="7833" width="719" height="1077"/>
           <path fill="rgb(248,248,0)" stroke="none" d="M 14467,7902 L 14655,7834 14995,8772 14619,8908 14279,7970 14467,7902 Z"/>
           <path fill="none" stroke="rgb(52,101,164)" d="M 14467,7902 L 14655,7834 14995,8772 14619,8908 14279,7970 14467,7902 Z"/>
          </g>
         </g>
         <g class="com.sun.star.drawing.CustomShape">
          <g id="id15">
           <rect class="BoundingBox" stroke="none" fill="none" x="16279" y="13383" width="719" height="1077"/>
           <path fill="rgb(248,248,0)" stroke="none" d="M 16468,13452 L 16656,13384 16996,14322 16620,14458 16280,13520 16468,13452 Z"/>
           <path fill="none" stroke="rgb(52,101,164)" d="M 16468,13452 L 16656,13384 16996,14322 16620,14458 16280,13520 16468,13452 Z"/>
          </g>
         </g>
         <g class="com.sun.star.drawing.CustomShape">
          <g id="id16">
           <rect class="BoundingBox" stroke="none" fill="none" x="15601" y="11502" width="719" height="1077"/>
           <path fill="rgb(248,248,0)" stroke="none" d="M 15790,11571 L 15978,11503 16318,12441 15942,12577 15602,11639 15790,11571 Z"/>
           <path fill="none" stroke="rgb(52,101,164)" d="M 15790,11571 L 15978,11503 16318,12441 15942,12577 15602,11639 15790,11571 Z"/>
          </g>
         </g>
         <g class="com.sun.star.drawing.CustomShape">
          <g id="id17">
           <rect class="BoundingBox" stroke="none" fill="none" x="12887" y="3976" width="719" height="1077"/>
           <path fill="rgb(248,248,0)" stroke="none" d="M 13076,4045 L 13264,3977 13604,4915 13228,5051 12888,4113 13076,4045 Z"/>
           <path fill="none" stroke="rgb(52,101,164)" d="M 13076,4045 L 13264,3977 13604,4915 13228,5051 12888,4113 13076,4045 Z"/>
          </g>
         </g>
        </g>
        <g class="com.sun.star.drawing.CustomShape">
         <g id="id18">
          <rect class="BoundingBox" stroke="none" fill="none" x="16261" y="13331" width="655" height="892"/>
          <path fill="rgb(248,248,0)" stroke="none" d="M 16450,13401 L 16638,13332 16914,14083 16539,14221 16262,13470 16450,13401 Z"/>
          <path fill="none" stroke="rgb(52,101,164)" d="M 16450,13401 L 16638,13332 16914,14083 16539,14221 16262,13470 16450,13401 Z"/>
         </g>
        </g>
        <g class="com.sun.star.drawing.CustomShape">
         <g id="id19">
          <rect class="BoundingBox" stroke="none" fill="none" x="17147" y="15767" width="655" height="892"/>
          <path fill="rgb(248,248,0)" stroke="none" d="M 17336,15837 L 17524,15768 17800,16519 17425,16657 17148,15906 17336,15837 Z"/>
          <path fill="none" stroke="rgb(52,101,164)" d="M 17336,15837 L 17524,15768 17800,16519 17425,16657 17148,15906 17336,15837 Z"/>
         </g>
        </g>
       </g>
      </g>
     </g>
    </g>
   </g>
  </g>
 </g>
</svg>