<?xml version="1.0" encoding="UTF-8"?>
<!DOCTYPE svg PUBLIC "-//W3C//DTD SVG 1.1//EN" "http://www.w3.org/Graphics/SVG/1.1/DTD/svg11.dtd">
<svg version="1.2" width="297mm" height="210mm" viewBox="0 0 29700 21000" preserveAspectRatio="xMidYMid" fill-rule="evenodd" stroke-width="28.222" stroke-linejoin="round" xmlns="http://www.w3.org/2000/svg" xmlns:ooo="http://xml.openoffice.org/svg/export" xmlns:xlink="http://www.w3.org/1999/xlink" xmlns:presentation="http://sun.com/xmlns/staroffice/presentation" xmlns:smil="http://www.w3.org/2001/SMIL20/" xmlns:anim="urn:oasis:names:tc:opendocument:xmlns:animation:1.0" xml:space="preserve">
 <defs class="ClipPathGroup">
  <clipPath id="presentation_clip_path" clipPathUnits="userSpaceOnUse">
   <rect x="0" y="0" width="29700" height="21000"/>
  </clipPath>
  <clipPath id="presentation_clip_path_shrink" clipPathUnits="userSpaceOnUse">
   <rect x="29" y="21" width="29641" height="20958"/>
  </clipPath>
 </defs>
 <defs class="TextShapeIndex">
  <g ooo:slide="id1" ooo:id-list="id3 id4 id5 id6 id7 id8 id9 id10 id11 id12 id13 id14 id15 id16 id17 id18 id19"/>
 </defs>
 <defs class="EmbeddedBulletChars">
  <g id="bullet-char-template-57356" transform="scale(0.00048828125,-0.00048828125)">
   <path d="M 580,1141 L 1163,571 580,0 -4,571 580,1141 Z"/>
  </g>
  <g id="bullet-char-template-57354" transform="scale(0.00048828125,-0.00048828125)">
   <path d="M 8,1128 L 1137,1128 1137,0 8,0 8,1128 Z"/>
  </g>
  <g id="bullet-char-template-10146" transform="scale(0.00048828125,-0.00048828125)">
   <path d="M 174,0 L 602,739 174,1481 1456,739 174,0 Z M 1358,739 L 309,1346 659,739 1358,739 Z"/>
  </g>
  <g id="bullet-char-template-10132" transform="scale(0.00048828125,-0.00048828125)">
   <path d="M 2015,739 L 1276,0 717,0 1260,543 174,543 174,936 1260,936 717,1481 1274,1481 2015,739 Z"/>
  </g>
  <g id="bullet-char-template-10007" transform="scale(0.00048828125,-0.00048828125)">
   <path d="M 0,-2 C -7,14 -16,27 -25,37 L 356,567 C 262,823 215,952 215,954 215,979 228,992 255,992 264,992 276,990 289,987 310,991 331,999 354,1012 L 381,999 492,748 772,1049 836,1024 860,1049 C 881,1039 901,1025 922,1006 886,937 835,863 770,784 769,783 710,716 594,584 L 774,223 C 774,196 753,168 711,139 L 727,119 C 717,90 699,76 672,76 641,76 570,178 457,381 L 164,-76 C 142,-110 111,-127 72,-127 30,-127 9,-110 8,-76 1,-67 -2,-52 -2,-32 -2,-23 -1,-13 0,-2 Z"/>
  </g>
  <g id="bullet-char-template-10004" transform="scale(0.00048828125,-0.00048828125)">
   <path d="M 285,-33 C 182,-33 111,30 74,156 52,228 41,333 41,471 41,549 55,616 82,672 116,743 169,778 240,778 293,778 328,747 346,684 L 369,508 C 377,444 397,411 428,410 L 1163,1116 C 1174,1127 1196,1133 1229,1133 1271,1133 1292,1118 1292,1087 L 1292,965 C 1292,929 1282,901 1262,881 L 442,47 C 390,-6 338,-33 285,-33 Z"/>
  </g>
  <g id="bullet-char-template-9679" transform="scale(0.00048828125,-0.00048828125)">
   <path d="M 813,0 C 632,0 489,54 383,161 276,268 223,411 223,592 223,773 276,916 383,1023 489,1130 632,1184 813,1184 992,1184 1136,1130 1245,1023 1353,916 1407,772 1407,592 1407,412 1353,268 1245,161 1136,54 992,0 813,0 Z"/>
  </g>
  <g id="bullet-char-template-8226" transform="scale(0.00048828125,-0.00048828125)">
   <path d="M 346,457 C 273,457 209,483 155,535 101,586 74,649 74,723 74,796 101,859 155,911 209,963 273,989 346,989 419,989 480,963 531,910 582,859 608,796 608,723 608,648 583,586 532,535 482,483 420,457 346,457 Z"/>
  </g>
  <g id="bullet-char-template-8211" transform="scale(0.00048828125,-0.00048828125)">
   <path d="M -4,459 L 1135,459 1135,606 -4,606 -4,459 Z"/>
  </g>
  <g id="bullet-char-template-61548" transform="scale(0.00048828125,-0.00048828125)">
   <path d="M 173,740 C 173,903 231,1043 346,1159 462,1274 601,1332 765,1332 928,1332 1067,1274 1183,1159 1299,1043 1357,903 1357,740 1357,577 1299,437 1183,322 1067,206 928,148 765,148 601,148 462,206 346,322 231,437 173,577 173,740 Z"/>
  </g>
 </defs>
 <g>
  <g id="id2" class="Master_Slide">
   <g id="bg-id2" class="Background"/>
   <g id="bo-id2" class="BackgroundObjects"/>
  </g>
 </g>
 <g class="SlideGroup">
  <g>
   <g id="container-id1">
    <g id="id1" class="Slide" clip-path="url(#presentation_clip_path)">
     <g class="Page">
      <g class="Group">
       <g class="Group">
        <g class="Group">
         <g class="com.sun.star.drawing.CustomShape">
          <g id="id3">
           <rect class="BoundingBox" stroke="none" fill="none" x="8782" y="13950" width="2750" height="2023"/>
           <path fill="rgb(255,255,0)" stroke="none" d="M 11452,15074 L 11373,15971 8783,15744 8940,13951 11530,14177 11452,15074 Z"/>
           <path fill="none" stroke="rgb(52,101,164)" d="M 11452,15074 L 11373,15971 8783,15744 8940,13951 11530,14177 11452,15074 Z"/>
          </g>
         </g>
         <g class="com.sun.star.drawing.CustomShape">
          <g id="id4">
           <rect class="BoundingBox" stroke="none" fill="none" x="8564" y="14200" width="1514" height="1920"/>
           <path fill="rgb(0,0,0)" stroke="none" d="M 9484,15045 L 10076,15888 9748,16118 8565,14430 8893,14201 9484,15045 Z"/>
           <path fill="none" stroke="rgb(52,101,164)" d="M 9484,15045 L 10076,15888 9748,16118 8565,14430 8893,14201 9484,15045 Z"/>
          </g>
         </g>
         <g class="com.sun.star.drawing.CustomShape">
          <g id="id5">
           <rect class="BoundingBox" stroke="none" fill="none" x="8383" y="13915" width="558" height="1831"/>
           <path fill="rgb(255,255,255)" stroke="none" d="M 8861,14847 L 8782,15744 8384,15709 8541,13916 8939,13951 8861,14847 Z"/>
           <path fill="none" stroke="rgb(255,255,255)" d="M 8861,14847 L 8782,15744 8384,15709 8541,13916 8939,13951 8861,14847 Z"/>
          </g>
         </g>
        </g>
        <g class="com.sun.star.drawing.CustomShape">
         <g id="id6">
          <rect class="BoundingBox" stroke="none" fill="none" x="9852" y="13811" width="1694" height="2178"/>
          <path fill="rgb(0,0,0)" stroke="none" d="M 10862,14785 L 11544,15757 11216,15987 9853,14042 10181,13812 10862,14785 Z"/>
          <path fill="none" stroke="rgb(52,101,164)" d="M 10862,14785 L 11544,15757 11216,15987 9853,14042 10181,13812 10862,14785 Z"/>
         </g>
        </g>
        <g class="com.sun.star.drawing.CustomShape">
         <g id="id7">
          <rect class="BoundingBox" stroke="none" fill="none" x="11172" y="14159" width="558" height="1831"/>
          <path fill="rgb(255,255,255)" stroke="none" d="M 11650,15091 L 11571,15988 11173,15953 11330,14160 11728,14195 11650,15091 Z"/>
          <path fill="none" stroke="rgb(255,255,255)" d="M 11650,15091 L 11571,15988 11173,15953 11330,14160 11728,14195 11650,15091 Z"/>
         </g>
        </g>
        <g class="com.sun.star.drawing.CustomShape">
         <g id="id8">
          <rect class="BoundingBox" stroke="none" fill="none" x="8646" y="15733" width="2628" height="620"/>
          <path fill="rgb(255,255,255)" stroke="none" d="M 9943,16242 L 8647,16133 8681,15734 11272,15953 11238,16351 9943,16242 Z"/>
          <path fill="none" stroke="rgb(255,255,255)" d="M 9943,16242 L 8647,16133 8681,15734 11272,15953 11238,16351 9943,16242 Z"/>
         </g>
        </g>
        <g class="com.sun.star.drawing.CustomShape">
         <g id="id9">
          <rect class="BoundingBox" stroke="none" fill="none" x="8838" y="13541" width="2628" height="620"/>
          <path fill="rgb(255,255,255)" stroke="none" d="M 10135,14050 L 8839,13941 8873,13542 11464,13761 11430,14159 10135,14050 Z"/>
          <path fill="none" stroke="rgb(255,255,255)" d="M 10135,14050 L 8839,13941 8873,13542 11464,13761 11430,14159 10135,14050 Z"/>
         </g>
        </g>
       </g>
       <g class="Group">
        <g class="Group">
         <g class="com.sun.star.drawing.CustomShape">
          <g id="id10">
           <rect class="BoundingBox" stroke="none" fill="none" x="9736" y="1927" width="1589" height="14087"/>
           <path fill="rgb(17,17,17)" stroke="none" d="M 11124,1945 L 11323,1962 10136,16012 9737,15978 10925,1928 11124,1945 Z"/>
           <path fill="none" stroke="rgb(52,101,164)" d="M 11124,1945 L 11323,1962 10136,16012 9737,15978 10925,1928 11124,1945 Z"/>
          </g>
         </g>
         <g class="com.sun.star.drawing.CustomShape">
          <g id="id11">
           <rect class="BoundingBox" stroke="none" fill="none" x="10215" y="9301" width="486" height="1033"/>
           <path fill="rgb(248,248,0)" stroke="none" d="M 10500,9319 L 10699,9336 10615,10332 10216,10298 10301,9302 10500,9319 Z"/>
           <path fill="none" stroke="rgb(52,101,164)" d="M 10500,9319 L 10699,9336 10615,10332 10216,10298 10301,9302 10500,9319 Z"/>
          </g>
         </g>
         <g class="com.sun.star.drawing.CustomShape">
          <g id="id12">
           <rect class="BoundingBox" stroke="none" fill="none" x="10215" y="9301" width="486" height="1033"/>
           <path fill="rgb(248,248,0)" stroke="none" d="M 10500,9319 L 10699,9336 10615,10332 10216,10298 10301,9302 10500,9319 Z"/>
           <path fill="none" stroke="rgb(52,101,164)" d="M 10500,9319 L 10699,9336 10615,10332 10216,10298 10301,9302 10500,9319 Z"/>
          </g>
         </g>
         <g class="com.sun.star.drawing.CustomShape">
          <g id="id13">
           <rect class="BoundingBox" stroke="none" fill="none" x="10543" y="5415" width="486" height="1033"/>
           <path fill="rgb(248,248,0)" stroke="none" d="M 10828,5433 L 11027,5450 10943,6446 10544,6412 10629,5416 10828,5433 Z"/>
           <path fill="none" stroke="rgb(52,101,164)" d="M 10828,5433 L 11027,5450 10943,6446 10544,6412 10629,5416 10828,5433 Z"/>
          </g>
         </g>
         <g class="com.sun.star.drawing.CustomShape">
          <g id="id14">
           <rect class="BoundingBox" stroke="none" fill="none" x="10374" y="7407" width="486" height="1033"/>
           <path fill="rgb(248,248,0)" stroke="none" d="M 10659,7425 L 10858,7442 10774,8438 10375,8404 10460,7408 10659,7425 Z"/>
           <path fill="none" stroke="rgb(52,101,164)" d="M 10659,7425 L 10858,7442 10774,8438 10375,8404 10460,7408 10659,7425 Z"/>
          </g>
         </g>
         <g class="com.sun.star.drawing.CustomShape">
          <g id="id15">
           <rect class="BoundingBox" stroke="none" fill="none" x="9878" y="13287" width="486" height="1033"/>
           <path fill="rgb(248,248,0)" stroke="none" d="M 10163,13305 L 10362,13322 10278,14318 9879,14284 9964,13288 10163,13305 Z"/>
           <path fill="none" stroke="rgb(52,101,164)" d="M 10163,13305 L 10362,13322 10278,14318 9879,14284 9964,13288 10163,13305 Z"/>
          </g>
         </g>
         <g class="com.sun.star.drawing.CustomShape">
          <g id="id16">
           <rect class="BoundingBox" stroke="none" fill="none" x="10046" y="11294" width="486" height="1033"/>
           <path fill="rgb(248,248,0)" stroke="none" d="M 10331,11312 L 10530,11329 10446,12325 10047,12291 10132,11295 10331,11312 Z"/>
           <path fill="none" stroke="rgb(52,101,164)" d="M 10331,11312 L 10530,11329 10446,12325 10047,12291 10132,11295 10331,11312 Z"/>
          </g>
         </g>
         <g class="com.sun.star.drawing.CustomShape">
          <g id="id17">
           <rect class="BoundingBox" stroke="none" fill="none" x="10720" y="3322" width="486" height="1033"/>
           <path fill="rgb(248,248,0)" stroke="none" d="M 11005,3340 L 11204,3357 11120,4353 10721,4319 10806,3323 11005,3340 Z"/>
           <path fill="none" stroke="rgb(52,101,164)" d="M 11005,3340 L 11204,3357 11120,4353 10721,4319 10806,3323 11005,3340 Z"/>
          </g>
         </g>
        </g>
        <g class="com.sun.star.drawing.CustomShape">
         <g id="id18">
          <rect class="BoundingBox" stroke="none" fill="none" x="9897" y="13234" width="473" height="836"/>
          <path fill="rgb(248,248,0)" stroke="none" d="M 10169,13253 L 10368,13271 10296,14068 9898,14032 9970,13235 10169,13253 Z"/>
          <path fill="none" stroke="rgb(52,101,164)" d="M 10169,13253 L 10368,13271 10296,14068 9898,14032 9970,13235 10169,13253 Z"/>
         </g>
        </g>
        <g class="com.sun.star.drawing.CustomShape">
         <g id="id19">
          <rect class="BoundingBox" stroke="none" fill="none" x="9671" y="15816" width="473" height="836"/>
          <path fill="rgb(248,248,0)" stroke="none" d="M 9943,15835 L 10142,15853 10070,16650 9672,16614 9744,15817 9943,15835 Z"/>
          <path fill="none" stroke="rgb(52,101,164)" d="M 9943,15835 L 10142,15853 10070,16650 9672,16614 9744,15817 9943,15835 Z"/>
         </g>
        </g>
       </g>
      </g>
     </g>
    </g>
   </g>
  </g>
 </g>
</svg>