<?xml version="1.0" encoding="UTF-8"?>
<!DOCTYPE svg PUBLIC "-//W3C//DTD SVG 1.1//EN" "http://www.w3.org/Graphics/SVG/1.1/DTD/svg11.dtd">
<svg version="1.2" width="297mm" height="210mm" viewBox="0 0 29700 21000" preserveAspectRatio="xMidYMid" fill-rule="evenodd" stroke-width="28.222" stroke-linejoin="round" xmlns="http://www.w3.org/2000/svg" xmlns:ooo="http://xml.openoffice.org/svg/export" xmlns:xlink="http://www.w3.org/1999/xlink" xmlns:presentation="http://sun.com/xmlns/staroffice/presentation" xmlns:smil="http://www.w3.org/2001/SMIL20/" xmlns:anim="urn:oasis:names:tc:opendocument:xmlns:animation:1.0" xml:space="preserve">
 <defs class="ClipPathGroup">
  <clipPath id="presentation_clip_path" clipPathUnits="userSpaceOnUse">
   <rect x="0" y="0" width="29700" height="21000"/>
  </clipPath>
  <clipPath id="presentation_clip_path_shrink" clipPathUnits="userSpaceOnUse">
   <rect x="29" y="21" width="29641" height="20958"/>
  </clipPath>
 </defs>
 <defs class="TextShapeIndex">
  <g ooo:slide="id1" ooo:id-list="id3 id4 id5 id6 id7 id8 id9 id10 id11 id12 id13 id14 id15 id16 id17 id18 id19"/>
 </defs>
 <defs class="EmbeddedBulletChars">
  <g id="bullet-char-template-57356" transform="scale(0.00048828125,-0.00048828125)">
   <path d="M 580,1141 L 1163,571 580,0 -4,571 580,1141 Z"/>
  </g>
  <g id="bullet-char-template-57354" transform="scale(0.00048828125,-0.00048828125)">
   <path d="M 8,1128 L 1137,1128 1137,0 8,0 8,1128 Z"/>
  </g>
  <g id="bullet-char-template-10146" transform="scale(0.00048828125,-0.00048828125)">
   <path d="M 174,0 L 602,739 174,1481 1456,739 174,0 Z M 1358,739 L 309,1346 659,739 1358,739 Z"/>
  </g>
  <g id="bullet-char-template-10132" transform="scale(0.00048828125,-0.00048828125)">
   <path d="M 2015,739 L 1276,0 717,0 1260,543 174,543 174,936 1260,936 717,1481 1274,1481 2015,739 Z"/>
  </g>
  <g id="bullet-char-template-10007" transform="scale(0.00048828125,-0.00048828125)">
   <path d="M 0,-2 C -7,14 -16,27 -25,37 L 356,567 C 262,823 215,952 215,954 215,979 228,992 255,992 264,992 276,990 289,987 310,991 331,999 354,1012 L 381,999 492,748 772,1049 836,1024 860,1049 C 881,1039 901,1025 922,1006 886,937 835,863 770,784 769,783 710,716 594,584 L 774,223 C 774,196 753,168 711,139 L 727,119 C 717,90 699,76 672,76 641,76 570,178 457,381 L 164,-76 C 142,-110 111,-127 72,-127 30,-127 9,-110 8,-76 1,-67 -2,-52 -2,-32 -2,-23 -1,-13 0,-2 Z"/>
  </g>
  <g id="bullet-char-template-10004" transform="scale(0.00048828125,-0.00048828125)">
   <path d="M 285,-33 C 182,-33 111,30 74,156 52,228 41,333 41,471 41,549 55,616 82,672 116,743 169,778 240,778 293,778 328,747 346,684 L 369,508 C 377,444 397,411 428,410 L 1163,1116 C 1174,1127 1196,1133 1229,1133 1271,1133 1292,1118 1292,1087 L 1292,965 C 1292,929 1282,901 1262,881 L 442,47 C 390,-6 338,-33 285,-33 Z"/>
  </g>
  <g id="bullet-char-template-9679" transform="scale(0.00048828125,-0.00048828125)">
   <path d="M 813,0 C 632,0 489,54 383,161 276,268 223,411 223,592 223,773 276,916 383,1023 489,1130 632,1184 813,1184 992,1184 1136,1130 1245,1023 1353,916 1407,772 1407,592 1407,412 1353,268 1245,161 1136,54 992,0 813,0 Z"/>
  </g>
  <g id="bullet-char-template-8226" transform="scale(0.00048828125,-0.00048828125)">
   <path d="M 346,457 C 273,457 209,483 155,535 101,586 74,649 74,723 74,796 101,859 155,911 209,963 273,989 346,989 419,989 480,963 531,910 582,859 608,796 608,723 608,648 583,586 532,535 482,483 420,457 346,457 Z"/>
  </g>
  <g id="bullet-char-template-8211" transform="scale(0.00048828125,-0.00048828125)">
   <path d="M -4,459 L 1135,459 1135,606 -4,606 -4,459 Z"/>
  </g>
  <g id="bullet-char-template-61548" transform="scale(0.00048828125,-0.00048828125)">
   <path d="M 173,740 C 173,903 231,1043 346,1159 462,1274 601,1332 765,1332 928,1332 1067,1274 1183,1159 1299,1043 1357,903 1357,740 1357,577 1299,437 1183,322 1067,206 928,148 765,148 601,148 462,206 346,322 231,437 173,577 173,740 Z"/>
  </g>
 </defs>
 <g>
  <g id="id2" class="Master_Slide">
   <g id="bg-id2" class="Background"/>
   <g id="bo-id2" class="BackgroundObjects"/>
  </g>
 </g>
 <g class="SlideGroup">
  <g>
   <g id="container-id1">
    <g id="id1" class="Slide" clip-path="url(#presentation_clip_path)">
     <g class="Page">
      <g class="Group">
       <g class="Group">
        <g class="Group">
         <g class="com.sun.star.drawing.CustomShape">
          <g id="id3">
           <rect class="BoundingBox" stroke="none" fill="none" x="8734" y="13828" width="2876" height="2227"/>
           <path fill="rgb(255,255,0)" stroke="none" d="M 11452,15167 L 11296,16053 8735,15602 9048,13829 11608,14281 11452,15167 Z"/>
           <path fill="none" stroke="rgb(52,101,164)" d="M 11452,15167 L 11296,16053 8735,15602 9048,13829 11608,14281 11452,15167 Z"/>
          </g>
         </g>
         <g class="com.sun.star.drawing.CustomShape">
          <g id="id4">
           <rect class="BoundingBox" stroke="none" fill="none" x="8632" y="14073" width="1380" height="1988"/>
           <path fill="rgb(0,0,0)" stroke="none" d="M 9495,14967 L 10010,15859 9664,16059 8633,14274 8979,14074 9495,14967 Z"/>
           <path fill="none" stroke="rgb(52,101,164)" d="M 9495,14967 L 10010,15859 9664,16059 8633,14274 8979,14074 9495,14967 Z"/>
          </g>
         </g>
         <g class="com.sun.star.drawing.CustomShape">
          <g id="id5">
           <rect class="BoundingBox" stroke="none" fill="none" x="8341" y="13758" width="709" height="1845"/>
           <path fill="rgb(255,255,255)" stroke="none" d="M 8892,14715 L 8736,15601 8342,15532 8655,13759 9048,13829 8892,14715 Z"/>
           <path fill="none" stroke="rgb(255,255,255)" d="M 8892,14715 L 8736,15601 8342,15532 8655,13759 9048,13829 8892,14715 Z"/>
          </g>
         </g>
        </g>
        <g class="com.sun.star.drawing.CustomShape">
         <g id="id6">
          <rect class="BoundingBox" stroke="none" fill="none" x="9949" y="13798" width="1537" height="2260"/>
          <path fill="rgb(0,0,0)" stroke="none" d="M 10890,14828 L 11484,15856 11138,16056 9950,14000 10296,13799 10890,14828 Z"/>
          <path fill="none" stroke="rgb(52,101,164)" d="M 10890,14828 L 11484,15856 11138,16056 9950,14000 10296,13799 10890,14828 Z"/>
         </g>
        </g>
        <g class="com.sun.star.drawing.CustomShape">
         <g id="id7">
          <rect class="BoundingBox" stroke="none" fill="none" x="11098" y="14244" width="709" height="1845"/>
          <path fill="rgb(255,255,255)" stroke="none" d="M 11649,15201 L 11493,16087 11099,16018 11412,14245 11805,14315 11649,15201 Z"/>
          <path fill="none" stroke="rgb(255,255,255)" d="M 11649,15201 L 11493,16087 11099,16018 11412,14245 11805,14315 11649,15201 Z"/>
         </g>
        </g>
        <g class="com.sun.star.drawing.CustomShape">
         <g id="id8">
          <rect class="BoundingBox" stroke="none" fill="none" x="8567" y="15583" width="2633" height="841"/>
          <path fill="rgb(255,255,255)" stroke="none" d="M 9849,16200 L 8568,15978 8636,15584 11198,16028 11130,16422 9849,16200 Z"/>
          <path fill="none" stroke="rgb(255,255,255)" d="M 9849,16200 L 8568,15978 8636,15584 11198,16028 11130,16422 9849,16200 Z"/>
         </g>
        </g>
        <g class="com.sun.star.drawing.CustomShape">
         <g id="id9">
          <rect class="BoundingBox" stroke="none" fill="none" x="8949" y="13417" width="2633" height="841"/>
          <path fill="rgb(255,255,255)" stroke="none" d="M 10231,14034 L 8950,13812 9018,13418 11580,13862 11512,14256 10231,14034 Z"/>
          <path fill="none" stroke="rgb(255,255,255)" d="M 10231,14034 L 8950,13812 9018,13418 11580,13862 11512,14256 10231,14034 Z"/>
         </g>
        </g>
       </g>
       <g class="Group">
        <g class="Group">
         <g class="com.sun.star.drawing.CustomShape">
          <g id="id10">
           <rect class="BoundingBox" stroke="none" fill="none" x="9664" y="2024" width="2804" height="13964"/>
           <path fill="rgb(17,17,17)" stroke="none" d="M 12269,2059 L 12466,2093 10059,15986 9665,15918 12072,2025 12269,2059 Z"/>
           <path fill="none" stroke="rgb(52,101,164)" d="M 12269,2059 L 12466,2093 10059,15986 9665,15918 12072,2025 12269,2059 Z"/>
          </g>
         </g>
         <g class="com.sun.star.drawing.CustomShape">
          <g id="id11">
           <rect class="BoundingBox" stroke="none" fill="none" x="10638" y="9315" width="568" height="1057"/>
           <path fill="rgb(248,248,0)" stroke="none" d="M 11007,9351 L 11204,9385 11033,10370 10639,10302 10810,9316 11007,9351 Z"/>
           <path fill="none" stroke="rgb(52,101,164)" d="M 11007,9351 L 11204,9385 11033,10370 10639,10302 10810,9316 11007,9351 Z"/>
          </g>
         </g>
         <g class="com.sun.star.drawing.CustomShape">
          <g id="id12">
           <rect class="BoundingBox" stroke="none" fill="none" x="10638" y="9315" width="568" height="1057"/>
           <path fill="rgb(248,248,0)" stroke="none" d="M 11007,9351 L 11204,9385 11033,10370 10639,10302 10810,9316 11007,9351 Z"/>
           <path fill="none" stroke="rgb(52,101,164)" d="M 11007,9351 L 11204,9385 11033,10370 10639,10302 10810,9316 11007,9351 Z"/>
          </g>
         </g>
         <g class="com.sun.star.drawing.CustomShape">
          <g id="id13">
           <rect class="BoundingBox" stroke="none" fill="none" x="11303" y="5472" width="568" height="1057"/>
           <path fill="rgb(248,248,0)" stroke="none" d="M 11672,5508 L 11869,5542 11698,6527 11304,6459 11475,5473 11672,5508 Z"/>
           <path fill="none" stroke="rgb(52,101,164)" d="M 11672,5508 L 11869,5542 11698,6527 11304,6459 11475,5473 11672,5508 Z"/>
          </g>
         </g>
         <g class="com.sun.star.drawing.CustomShape">
          <g id="id14">
           <rect class="BoundingBox" stroke="none" fill="none" x="10962" y="7443" width="568" height="1057"/>
           <path fill="rgb(248,248,0)" stroke="none" d="M 11331,7479 L 11528,7513 11357,8498 10963,8430 11134,7444 11331,7479 Z"/>
           <path fill="none" stroke="rgb(52,101,164)" d="M 11331,7479 L 11528,7513 11357,8498 10963,8430 11134,7444 11331,7479 Z"/>
          </g>
         </g>
         <g class="com.sun.star.drawing.CustomShape">
          <g id="id15">
           <rect class="BoundingBox" stroke="none" fill="none" x="9955" y="13256" width="568" height="1057"/>
           <path fill="rgb(248,248,0)" stroke="none" d="M 10324,13292 L 10521,13326 10350,14311 9956,14243 10127,13257 10324,13292 Z"/>
           <path fill="none" stroke="rgb(52,101,164)" d="M 10324,13292 L 10521,13326 10350,14311 9956,14243 10127,13257 10324,13292 Z"/>
          </g>
         </g>
         <g class="com.sun.star.drawing.CustomShape">
          <g id="id16">
           <rect class="BoundingBox" stroke="none" fill="none" x="10297" y="11286" width="568" height="1057"/>
           <path fill="rgb(248,248,0)" stroke="none" d="M 10666,11322 L 10863,11356 10692,12341 10298,12273 10469,11287 10666,11322 Z"/>
           <path fill="none" stroke="rgb(52,101,164)" d="M 10666,11322 L 10863,11356 10692,12341 10298,12273 10469,11287 10666,11322 Z"/>
          </g>
         </g>
         <g class="com.sun.star.drawing.CustomShape">
          <g id="id17">
           <rect class="BoundingBox" stroke="none" fill="none" x="11662" y="3403" width="568" height="1057"/>
           <path fill="rgb(248,248,0)" stroke="none" d="M 12031,3439 L 12228,3473 12057,4458 11663,4390 11834,3404 12031,3439 Z"/>
           <path fill="none" stroke="rgb(52,101,164)" d="M 12031,3439 L 12228,3473 12057,4458 11663,4390 11834,3404 12031,3439 Z"/>
          </g>
         </g>
        </g>
        <g class="com.sun.star.drawing.CustomShape">
         <g id="id18">
          <rect class="BoundingBox" stroke="none" fill="none" x="9993" y="13206" width="538" height="861"/>
          <path fill="rgb(248,248,0)" stroke="none" d="M 10332,13242 L 10529,13278 10388,14065 9994,13994 10136,13207 10332,13242 Z"/>
          <path fill="none" stroke="rgb(52,101,164)" d="M 10332,13242 L 10529,13278 10388,14065 9994,13994 10136,13207 10332,13242 Z"/>
         </g>
        </g>
        <g class="com.sun.star.drawing.CustomShape">
         <g id="id19">
          <rect class="BoundingBox" stroke="none" fill="none" x="9542" y="15759" width="538" height="861"/>
          <path fill="rgb(248,248,0)" stroke="none" d="M 9881,15795 L 10078,15831 9937,16618 9543,16547 9685,15760 9881,15795 Z"/>
          <path fill="none" stroke="rgb(52,101,164)" d="M 9881,15795 L 10078,15831 9937,16618 9543,16547 9685,15760 9881,15795 Z"/>
         </g>
        </g>
       </g>
      </g>
     </g>
    </g>
   </g>
  </g>
 </g>
</svg>