<?xml version="1.0" encoding="UTF-8"?>
<!DOCTYPE svg PUBLIC "-//W3C//DTD SVG 1.1//EN" "http://www.w3.org/Graphics/SVG/1.1/DTD/svg11.dtd">
<svg version="1.2" width="297mm" height="210mm" viewBox="0 0 29700 21000" preserveAspectRatio="xMidYMid" fill-rule="evenodd" stroke-width="28.222" stroke-linejoin="round" xmlns="http://www.w3.org/2000/svg" xmlns:ooo="http://xml.openoffice.org/svg/export" xmlns:xlink="http://www.w3.org/1999/xlink" xmlns:presentation="http://sun.com/xmlns/staroffice/presentation" xmlns:smil="http://www.w3.org/2001/SMIL20/" xmlns:anim="urn:oasis:names:tc:opendocument:xmlns:animation:1.0" xml:space="preserve">
 <defs class="ClipPathGroup">
  <clipPath id="presentation_clip_path" clipPathUnits="userSpaceOnUse">
   <rect x="0" y="0" width="29700" height="21000"/>
  </clipPath>
  <clipPath id="presentation_clip_path_shrink" clipPathUnits="userSpaceOnUse">
   <rect x="29" y="21" width="29641" height="20958"/>
  </clipPath>
 </defs>
 <defs class="TextShapeIndex">
  <g ooo:slide="id1" ooo:id-list="id3 id4 id5 id6 id7 id8 id9 id10 id11 id12 id13 id14 id15 id16 id17 id18 id19"/>
 </defs>
 <defs class="EmbeddedBulletChars">
  <g id="bullet-char-template-57356" transform="scale(0.00048828125,-0.00048828125)">
   <path d="M 580,1141 L 1163,571 580,0 -4,571 580,1141 Z"/>
  </g>
  <g id="bullet-char-template-57354" transform="scale(0.00048828125,-0.00048828125)">
   <path d="M 8,1128 L 1137,1128 1137,0 8,0 8,1128 Z"/>
  </g>
  <g id="bullet-char-template-10146" transform="scale(0.00048828125,-0.00048828125)">
   <path d="M 174,0 L 602,739 174,1481 1456,739 174,0 Z M 1358,739 L 309,1346 659,739 1358,739 Z"/>
  </g>
  <g id="bullet-char-template-10132" transform="scale(0.00048828125,-0.00048828125)">
   <path d="M 2015,739 L 1276,0 717,0 1260,543 174,543 174,936 1260,936 717,1481 1274,1481 2015,739 Z"/>
  </g>
  <g id="bullet-char-template-10007" transform="scale(0.00048828125,-0.00048828125)">
   <path d="M 0,-2 C -7,14 -16,27 -25,37 L 356,567 C 262,823 215,952 215,954 215,979 228,992 255,992 264,992 276,990 289,987 310,991 331,999 354,1012 L 381,999 492,748 772,1049 836,1024 860,1049 C 881,1039 901,1025 922,1006 886,937 835,863 770,784 769,783 710,716 594,584 L 774,223 C 774,196 753,168 711,139 L 727,119 C 717,90 699,76 672,76 641,76 570,178 457,381 L 164,-76 C 142,-110 111,-127 72,-127 30,-127 9,-110 8,-76 1,-67 -2,-52 -2,-32 -2,-23 -1,-13 0,-2 Z"/>
  </g>
  <g id="bullet-char-template-10004" transform="scale(0.00048828125,-0.00048828125)">
   <path d="M 285,-33 C 182,-33 111,30 74,156 52,228 41,333 41,471 41,549 55,616 82,672 116,743 169,778 240,778 293,778 328,747 346,684 L 369,508 C 377,444 397,411 428,410 L 1163,1116 C 1174,1127 1196,1133 1229,1133 1271,1133 1292,1118 1292,1087 L 1292,965 C 1292,929 1282,901 1262,881 L 442,47 C 390,-6 338,-33 285,-33 Z"/>
  </g>
  <g id="bullet-char-template-9679" transform="scale(0.00048828125,-0.00048828125)">
   <path d="M 813,0 C 632,0 489,54 383,161 276,268 223,411 223,592 223,773 276,916 383,1023 489,1130 632,1184 813,1184 992,1184 1136,1130 1245,1023 1353,916 1407,772 1407,592 1407,412 1353,268 1245,161 1136,54 992,0 813,0 Z"/>
  </g>
  <g id="bullet-char-template-8226" transform="scale(0.00048828125,-0.00048828125)">
   <path d="M 346,457 C 273,457 209,483 155,535 101,586 74,649 74,723 74,796 101,859 155,911 209,963 273,989 346,989 419,989 480,963 531,910 582,859 608,796 608,723 608,648 583,586 532,535 482,483 420,457 346,457 Z"/>
  </g>
  <g id="bullet-char-template-8211" transform="scale(0.00048828125,-0.00048828125)">
   <path d="M -4,459 L 1135,459 1135,606 -4,606 -4,459 Z"/>
  </g>
  <g id="bullet-char-template-61548" transform="scale(0.00048828125,-0.00048828125)">
   <path d="M 173,740 C 173,903 231,1043 346,1159 462,1274 601,1332 765,1332 928,1332 1067,1274 1183,1159 1299,1043 1357,903 1357,740 1357,577 1299,437 1183,322 1067,206 928,148 765,148 601,148 462,206 346,322 231,437 173,577 173,740 Z"/>
  </g>
 </defs>
 <g>
  <g id="id2" class="Master_Slide">
   <g id="bg-id2" class="Background"/>
   <g id="bo-id2" class="BackgroundObjects"/>
  </g>
 </g>
 <g class="SlideGroup">
  <g>
   <g id="container-id1">
    <g id="id1" class="Slide" clip-path="url(#presentation_clip_path)">
     <g class="Page">
      <g class="Group">
       <g class="Group">
        <g class="Group">
         <g class="com.sun.star.drawing.CustomShape">
          <g id="id3">
           <rect class="BoundingBox" stroke="none" fill="none" x="15481" y="13999" width="2750" height="2023"/>
           <path fill="rgb(255,255,0)" stroke="none" d="M 15560,15123 L 15482,14227 18072,14000 18229,15793 15639,16020 15560,15123 Z"/>
           <path fill="none" stroke="rgb(52,101,164)" d="M 15560,15123 L 15482,14227 18072,14000 18229,15793 15639,16020 15560,15123 Z"/>
          </g>
         </g>
         <g class="com.sun.star.drawing.CustomShape">
          <g id="id4">
           <rect class="BoundingBox" stroke="none" fill="none" x="16937" y="14248" width="1513" height="1921"/>
           <path fill="rgb(0,0,0)" stroke="none" d="M 17529,15093 L 18120,14249 18448,14479 17265,16167 16938,15937 17529,15093 Z"/>
           <path fill="none" stroke="rgb(52,101,164)" d="M 17529,15093 L 18120,14249 18448,14479 17265,16167 16938,15937 17529,15093 Z"/>
          </g>
         </g>
         <g class="com.sun.star.drawing.CustomShape">
          <g id="id5">
           <rect class="BoundingBox" stroke="none" fill="none" x="18072" y="13964" width="558" height="1831"/>
           <path fill="rgb(255,255,255)" stroke="none" d="M 18151,14896 L 18073,14000 18471,13965 18628,15758 18229,15793 18151,14896 Z"/>
           <path fill="none" stroke="rgb(255,255,255)" d="M 18151,14896 L 18073,14000 18471,13965 18628,15758 18229,15793 18151,14896 Z"/>
          </g>
         </g>
        </g>
        <g class="com.sun.star.drawing.CustomShape">
         <g id="id6">
          <rect class="BoundingBox" stroke="none" fill="none" x="15468" y="13860" width="1694" height="2178"/>
          <path fill="rgb(0,0,0)" stroke="none" d="M 16150,14833 L 16832,13861 17160,14091 15797,16036 15469,15806 16150,14833 Z"/>
          <path fill="none" stroke="rgb(52,101,164)" d="M 16150,14833 L 16832,13861 17160,14091 15797,16036 15469,15806 16150,14833 Z"/>
         </g>
        </g>
        <g class="com.sun.star.drawing.CustomShape">
         <g id="id7">
          <rect class="BoundingBox" stroke="none" fill="none" x="15283" y="14208" width="558" height="1831"/>
          <path fill="rgb(255,255,255)" stroke="none" d="M 15362,15140 L 15284,14244 15682,14209 15839,16002 15440,16037 15362,15140 Z"/>
          <path fill="none" stroke="rgb(255,255,255)" d="M 15362,15140 L 15284,14244 15682,14209 15839,16002 15440,16037 15362,15140 Z"/>
         </g>
        </g>
        <g class="com.sun.star.drawing.CustomShape">
         <g id="id8">
          <rect class="BoundingBox" stroke="none" fill="none" x="15739" y="15782" width="2627" height="620"/>
          <path fill="rgb(255,255,255)" stroke="none" d="M 17069,16290 L 15774,16400 15740,16002 18331,15783 18364,16181 17069,16290 Z"/>
          <path fill="none" stroke="rgb(255,255,255)" d="M 17069,16290 L 15774,16400 15740,16002 18331,15783 18364,16181 17069,16290 Z"/>
         </g>
        </g>
        <g class="com.sun.star.drawing.CustomShape">
         <g id="id9">
          <rect class="BoundingBox" stroke="none" fill="none" x="15547" y="13590" width="2627" height="620"/>
          <path fill="rgb(255,255,255)" stroke="none" d="M 16877,14098 L 15582,14208 15548,13810 18139,13591 18172,13989 16877,14098 Z"/>
          <path fill="none" stroke="rgb(255,255,255)" d="M 16877,14098 L 15582,14208 15548,13810 18139,13591 18172,13989 16877,14098 Z"/>
         </g>
        </g>
       </g>
       <g class="Group">
        <g class="Group">
         <g class="com.sun.star.drawing.CustomShape">
          <g id="id10">
           <rect class="BoundingBox" stroke="none" fill="none" x="15674" y="1977" width="1599" height="14086"/>
           <path fill="rgb(17,17,17)" stroke="none" d="M 15875,1995 L 16074,1978 17271,16027 16872,16061 15675,2012 15875,1995 Z"/>
           <path fill="none" stroke="rgb(52,101,164)" d="M 15875,1995 L 16074,1978 17271,16027 16872,16061 15675,2012 15875,1995 Z"/>
          </g>
         </g>
         <g class="com.sun.star.drawing.CustomShape">
          <g id="id11">
           <rect class="BoundingBox" stroke="none" fill="none" x="16312" y="9350" width="486" height="1033"/>
           <path fill="rgb(248,248,0)" stroke="none" d="M 16512,9368 L 16711,9351 16796,10347 16397,10381 16313,9385 16512,9368 Z"/>
           <path fill="none" stroke="rgb(52,101,164)" d="M 16512,9368 L 16711,9351 16796,10347 16397,10381 16313,9385 16512,9368 Z"/>
          </g>
         </g>
         <g class="com.sun.star.drawing.CustomShape">
          <g id="id12">
           <rect class="BoundingBox" stroke="none" fill="none" x="16312" y="9350" width="486" height="1033"/>
           <path fill="rgb(248,248,0)" stroke="none" d="M 16512,9368 L 16711,9351 16796,10347 16397,10381 16313,9385 16512,9368 Z"/>
           <path fill="none" stroke="rgb(52,101,164)" d="M 16512,9368 L 16711,9351 16796,10347 16397,10381 16313,9385 16512,9368 Z"/>
          </g>
         </g>
         <g class="com.sun.star.drawing.CustomShape">
          <g id="id13">
           <rect class="BoundingBox" stroke="none" fill="none" x="15984" y="5464" width="486" height="1033"/>
           <path fill="rgb(248,248,0)" stroke="none" d="M 16184,5482 L 16383,5465 16468,6461 16069,6495 15985,5499 16184,5482 Z"/>
           <path fill="none" stroke="rgb(52,101,164)" d="M 16184,5482 L 16383,5465 16468,6461 16069,6495 15985,5499 16184,5482 Z"/>
          </g>
         </g>
         <g class="com.sun.star.drawing.CustomShape">
          <g id="id14">
           <rect class="BoundingBox" stroke="none" fill="none" x="16153" y="7456" width="486" height="1033"/>
           <path fill="rgb(248,248,0)" stroke="none" d="M 16353,7474 L 16552,7457 16637,8453 16238,8487 16154,7491 16353,7474 Z"/>
           <path fill="none" stroke="rgb(52,101,164)" d="M 16353,7474 L 16552,7457 16637,8453 16238,8487 16154,7491 16353,7474 Z"/>
          </g>
         </g>
         <g class="com.sun.star.drawing.CustomShape">
          <g id="id15">
           <rect class="BoundingBox" stroke="none" fill="none" x="16649" y="13336" width="486" height="1033"/>
           <path fill="rgb(248,248,0)" stroke="none" d="M 16849,13354 L 17048,13337 17133,14333 16734,14367 16650,13371 16849,13354 Z"/>
           <path fill="none" stroke="rgb(52,101,164)" d="M 16849,13354 L 17048,13337 17133,14333 16734,14367 16650,13371 16849,13354 Z"/>
          </g>
         </g>
         <g class="com.sun.star.drawing.CustomShape">
          <g id="id16">
           <rect class="BoundingBox" stroke="none" fill="none" x="16481" y="11343" width="486" height="1033"/>
           <path fill="rgb(248,248,0)" stroke="none" d="M 16681,11361 L 16880,11344 16965,12340 16566,12374 16482,11378 16681,11361 Z"/>
           <path fill="none" stroke="rgb(52,101,164)" d="M 16681,11361 L 16880,11344 16965,12340 16566,12374 16482,11378 16681,11361 Z"/>
          </g>
         </g>
         <g class="com.sun.star.drawing.CustomShape">
          <g id="id17">
           <rect class="BoundingBox" stroke="none" fill="none" x="15807" y="3371" width="486" height="1033"/>
           <path fill="rgb(248,248,0)" stroke="none" d="M 16007,3389 L 16206,3372 16291,4368 15892,4402 15808,3406 16007,3389 Z"/>
           <path fill="none" stroke="rgb(52,101,164)" d="M 16007,3389 L 16206,3372 16291,4368 15892,4402 15808,3406 16007,3389 Z"/>
          </g>
         </g>
        </g>
        <g class="com.sun.star.drawing.CustomShape">
         <g id="id18">
          <rect class="BoundingBox" stroke="none" fill="none" x="16644" y="13283" width="473" height="836"/>
          <path fill="rgb(248,248,0)" stroke="none" d="M 16844,13302 L 17043,13284 17115,14081 16717,14117 16645,13320 16844,13302 Z"/>
          <path fill="none" stroke="rgb(52,101,164)" d="M 16844,13302 L 17043,13284 17115,14081 16717,14117 16645,13320 16844,13302 Z"/>
         </g>
        </g>
        <g class="com.sun.star.drawing.CustomShape">
         <g id="id19">
          <rect class="BoundingBox" stroke="none" fill="none" x="16870" y="15865" width="473" height="836"/>
          <path fill="rgb(248,248,0)" stroke="none" d="M 17070,15884 L 17269,15866 17341,16663 16943,16699 16871,15902 17070,15884 Z"/>
          <path fill="none" stroke="rgb(52,101,164)" d="M 17070,15884 L 17269,15866 17341,16663 16943,16699 16871,15902 17070,15884 Z"/>
         </g>
        </g>
       </g>
      </g>
     </g>
    </g>
   </g>
  </g>
 </g>
</svg>