<?xml version="1.0" encoding="UTF-8"?>
<!DOCTYPE svg PUBLIC "-//W3C//DTD SVG 1.1//EN" "http://www.w3.org/Graphics/SVG/1.1/DTD/svg11.dtd">
<svg version="1.2" width="297mm" height="210mm" viewBox="0 0 29700 21000" preserveAspectRatio="xMidYMid" fill-rule="evenodd" stroke-width="28.222" stroke-linejoin="round" xmlns="http://www.w3.org/2000/svg" xmlns:ooo="http://xml.openoffice.org/svg/export" xmlns:xlink="http://www.w3.org/1999/xlink" xmlns:presentation="http://sun.com/xmlns/staroffice/presentation" xmlns:smil="http://www.w3.org/2001/SMIL20/" xmlns:anim="urn:oasis:names:tc:opendocument:xmlns:animation:1.0" xml:space="preserve">
 <defs class="ClipPathGroup">
  <clipPath id="presentation_clip_path" clipPathUnits="userSpaceOnUse">
   <rect x="0" y="0" width="29700" height="21000"/>
  </clipPath>
  <clipPath id="presentation_clip_path_shrink" clipPathUnits="userSpaceOnUse">
   <rect x="29" y="21" width="29641" height="20958"/>
  </clipPath>
 </defs>
 <defs class="TextShapeIndex">
  <g ooo:slide="id1" ooo:id-list="id3 id4 id5 id6 id7 id8 id9 id10 id11 id12 id13 id14 id15 id16 id17 id18 id19"/>
 </defs>
 <defs class="EmbeddedBulletChars">
  <g id="bullet-char-template-57356" transform="scale(0.00048828125,-0.00048828125)">
   <path d="M 580,1141 L 1163,571 580,0 -4,571 580,1141 Z"/>
  </g>
  <g id="bullet-char-template-57354" transform="scale(0.00048828125,-0.00048828125)">
   <path d="M 8,1128 L 1137,1128 1137,0 8,0 8,1128 Z"/>
  </g>
  <g id="bullet-char-template-10146" transform="scale(0.00048828125,-0.00048828125)">
   <path d="M 174,0 L 602,739 174,1481 1456,739 174,0 Z M 1358,739 L 309,1346 659,739 1358,739 Z"/>
  </g>
  <g id="bullet-char-template-10132" transform="scale(0.00048828125,-0.00048828125)">
   <path d="M 2015,739 L 1276,0 717,0 1260,543 174,543 174,936 1260,936 717,1481 1274,1481 2015,739 Z"/>
  </g>
  <g id="bullet-char-template-10007" transform="scale(0.00048828125,-0.00048828125)">
   <path d="M 0,-2 C -7,14 -16,27 -25,37 L 356,567 C 262,823 215,952 215,954 215,979 228,992 255,992 264,992 276,990 289,987 310,991 331,999 354,1012 L 381,999 492,748 772,1049 836,1024 860,1049 C 881,1039 901,1025 922,1006 886,937 835,863 770,784 769,783 710,716 594,584 L 774,223 C 774,196 753,168 711,139 L 727,119 C 717,90 699,76 672,76 641,76 570,178 457,381 L 164,-76 C 142,-110 111,-127 72,-127 30,-127 9,-110 8,-76 1,-67 -2,-52 -2,-32 -2,-23 -1,-13 0,-2 Z"/>
  </g>
  <g id="bullet-char-template-10004" transform="scale(0.00048828125,-0.00048828125)">
   <path d="M 285,-33 C 182,-33 111,30 74,156 52,228 41,333 41,471 41,549 55,616 82,672 116,743 169,778 240,778 293,778 328,747 346,684 L 369,508 C 377,444 397,411 428,410 L 1163,1116 C 1174,1127 1196,1133 1229,1133 1271,1133 1292,1118 1292,1087 L 1292,965 C 1292,929 1282,901 1262,881 L 442,47 C 390,-6 338,-33 285,-33 Z"/>
  </g>
  <g id="bullet-char-template-9679" transform="scale(0.00048828125,-0.00048828125)">
   <path d="M 813,0 C 632,0 489,54 383,161 276,268 223,411 223,592 223,773 276,916 383,1023 489,1130 632,1184 813,1184 992,1184 1136,1130 1245,1023 1353,916 1407,772 1407,592 1407,412 1353,268 1245,161 1136,54 992,0 813,0 Z"/>
  </g>
  <g id="bullet-char-template-8226" transform="scale(0.00048828125,-0.00048828125)">
   <path d="M 346,457 C 273,457 209,483 155,535 101,586 74,649 74,723 74,796 101,859 155,911 209,963 273,989 346,989 419,989 480,963 531,910 582,859 608,796 608,723 608,648 583,586 532,535 482,483 420,457 346,457 Z"/>
  </g>
  <g id="bullet-char-template-8211" transform="scale(0.00048828125,-0.00048828125)">
   <path d="M -4,459 L 1135,459 1135,606 -4,606 -4,459 Z"/>
  </g>
  <g id="bullet-char-template-61548" transform="scale(0.00048828125,-0.00048828125)">
   <path d="M 173,740 C 173,903 231,1043 346,1159 462,1274 601,1332 765,1332 928,1332 1067,1274 1183,1159 1299,1043 1357,903 1357,740 1357,577 1299,437 1183,322 1067,206 928,148 765,148 601,148 462,206 346,322 231,437 173,577 173,740 Z"/>
  </g>
 </defs>
 <g>
  <g id="id2" class="Master_Slide">
   <g id="bg-id2" class="Background"/>
   <g id="bo-id2" class="BackgroundObjects"/>
  </g>
 </g>
 <g class="SlideGroup">
  <g>
   <g id="container-id1">
    <g id="id1" class="Slide" clip-path="url(#presentation_clip_path)">
     <g class="Page">
      <g class="Group">
       <g class="Group">
        <g class="Group">
         <g class="com.sun.star.drawing.CustomShape">
          <g id="id3">
           <rect class="BoundingBox" stroke="none" fill="none" x="15448" y="13905" width="2876" height="2228"/>
           <path fill="rgb(255,255,0)" stroke="none" d="M 15605,15244 L 15449,14358 18009,13906 18322,15679 15761,16131 15605,15244 Z"/>
           <path fill="none" stroke="rgb(52,101,164)" d="M 15605,15244 L 15449,14358 18009,13906 18322,15679 15761,16131 15605,15244 Z"/>
          </g>
         </g>
         <g class="com.sun.star.drawing.CustomShape">
          <g id="id4">
           <rect class="BoundingBox" stroke="none" fill="none" x="17046" y="14150" width="1380" height="1988"/>
           <path fill="rgb(0,0,0)" stroke="none" d="M 17562,15043 L 18078,14151 18424,14351 17393,16136 17047,15936 17562,15043 Z"/>
           <path fill="none" stroke="rgb(52,101,164)" d="M 17562,15043 L 18078,14151 18424,14351 17393,16136 17047,15936 17562,15043 Z"/>
          </g>
         </g>
         <g class="com.sun.star.drawing.CustomShape">
          <g id="id5">
           <rect class="BoundingBox" stroke="none" fill="none" x="18009" y="13835" width="709" height="1845"/>
           <path fill="rgb(255,255,255)" stroke="none" d="M 18167,14792 L 18010,13905 18403,13836 18716,15609 18323,15678 18167,14792 Z"/>
           <path fill="none" stroke="rgb(255,255,255)" d="M 18167,14792 L 18010,13905 18403,13836 18716,15609 18323,15678 18167,14792 Z"/>
          </g>
         </g>
        </g>
        <g class="com.sun.star.drawing.CustomShape">
         <g id="id6">
          <rect class="BoundingBox" stroke="none" fill="none" x="15571" y="13877" width="1538" height="2259"/>
          <path fill="rgb(0,0,0)" stroke="none" d="M 16167,14906 L 16761,13878 17107,14078 15919,16134 15572,15934 16167,14906 Z"/>
          <path fill="none" stroke="rgb(52,101,164)" d="M 16167,14906 L 16761,13878 17107,14078 15919,16134 15572,15934 16167,14906 Z"/>
         </g>
        </g>
        <g class="com.sun.star.drawing.CustomShape">
         <g id="id7">
          <rect class="BoundingBox" stroke="none" fill="none" x="15252" y="14321" width="709" height="1845"/>
          <path fill="rgb(255,255,255)" stroke="none" d="M 15410,15278 L 15253,14391 15646,14322 15959,16095 15566,16164 15410,15278 Z"/>
          <path fill="none" stroke="rgb(255,255,255)" d="M 15410,15278 L 15253,14391 15646,14322 15959,16095 15566,16164 15410,15278 Z"/>
         </g>
        </g>
        <g class="com.sun.star.drawing.CustomShape">
         <g id="id8">
          <rect class="BoundingBox" stroke="none" fill="none" x="15859" y="15660" width="2633" height="841"/>
          <path fill="rgb(255,255,255)" stroke="none" d="M 17209,16277 L 15928,16499 15860,16105 18422,15661 18490,16055 17209,16277 Z"/>
          <path fill="none" stroke="rgb(255,255,255)" d="M 17209,16277 L 15928,16499 15860,16105 18422,15661 18490,16055 17209,16277 Z"/>
         </g>
        </g>
        <g class="com.sun.star.drawing.CustomShape">
         <g id="id9">
          <rect class="BoundingBox" stroke="none" fill="none" x="15477" y="13494" width="2633" height="841"/>
          <path fill="rgb(255,255,255)" stroke="none" d="M 16827,14111 L 15546,14333 15478,13939 18040,13495 18108,13889 16827,14111 Z"/>
          <path fill="none" stroke="rgb(255,255,255)" d="M 16827,14111 L 15546,14333 15478,13939 18040,13495 18108,13889 16827,14111 Z"/>
         </g>
        </g>
       </g>
       <g class="Group">
        <g class="Group">
         <g class="com.sun.star.drawing.CustomShape">
          <g id="id10">
           <rect class="BoundingBox" stroke="none" fill="none" x="14604" y="2098" width="2795" height="13966"/>
           <path fill="rgb(17,17,17)" stroke="none" d="M 14802,2133 L 14999,2099 17397,15994 17003,16062 14605,2167 14802,2133 Z"/>
           <path fill="none" stroke="rgb(52,101,164)" d="M 14802,2133 L 14999,2099 17397,15994 17003,16062 14605,2167 14802,2133 Z"/>
          </g>
         </g>
         <g class="com.sun.star.drawing.CustomShape">
          <g id="id11">
           <rect class="BoundingBox" stroke="none" fill="none" x="15853" y="9392" width="568" height="1058"/>
           <path fill="rgb(248,248,0)" stroke="none" d="M 16052,9427 L 16249,9393 16419,10380 16025,10448 15854,9461 16052,9427 Z"/>
           <path fill="none" stroke="rgb(52,101,164)" d="M 16052,9427 L 16249,9393 16419,10380 16025,10448 15854,9461 16052,9427 Z"/>
          </g>
         </g>
         <g class="com.sun.star.drawing.CustomShape">
          <g id="id12">
           <rect class="BoundingBox" stroke="none" fill="none" x="15853" y="9392" width="568" height="1058"/>
           <path fill="rgb(248,248,0)" stroke="none" d="M 16052,9427 L 16249,9393 16419,10380 16025,10448 15854,9461 16052,9427 Z"/>
           <path fill="none" stroke="rgb(52,101,164)" d="M 16052,9427 L 16249,9393 16419,10380 16025,10448 15854,9461 16052,9427 Z"/>
          </g>
         </g>
         <g class="com.sun.star.drawing.CustomShape">
          <g id="id13">
           <rect class="BoundingBox" stroke="none" fill="none" x="15188" y="5549" width="568" height="1058"/>
           <path fill="rgb(248,248,0)" stroke="none" d="M 15387,5584 L 15584,5550 15754,6537 15360,6605 15189,5618 15387,5584 Z"/>
           <path fill="none" stroke="rgb(52,101,164)" d="M 15387,5584 L 15584,5550 15754,6537 15360,6605 15189,5618 15387,5584 Z"/>
          </g>
         </g>
         <g class="com.sun.star.drawing.CustomShape">
          <g id="id14">
           <rect class="BoundingBox" stroke="none" fill="none" x="15529" y="7520" width="568" height="1058"/>
           <path fill="rgb(248,248,0)" stroke="none" d="M 15728,7555 L 15925,7521 16095,8508 15701,8576 15530,7589 15728,7555 Z"/>
           <path fill="none" stroke="rgb(52,101,164)" d="M 15728,7555 L 15925,7521 16095,8508 15701,8576 15530,7589 15728,7555 Z"/>
          </g>
         </g>
         <g class="com.sun.star.drawing.CustomShape">
          <g id="id15">
           <rect class="BoundingBox" stroke="none" fill="none" x="16536" y="13333" width="568" height="1058"/>
           <path fill="rgb(248,248,0)" stroke="none" d="M 16735,13368 L 16932,13334 17102,14321 16708,14389 16537,13402 16735,13368 Z"/>
           <path fill="none" stroke="rgb(52,101,164)" d="M 16735,13368 L 16932,13334 17102,14321 16708,14389 16537,13402 16735,13368 Z"/>
          </g>
         </g>
         <g class="com.sun.star.drawing.CustomShape">
          <g id="id16">
           <rect class="BoundingBox" stroke="none" fill="none" x="16194" y="11363" width="568" height="1058"/>
           <path fill="rgb(248,248,0)" stroke="none" d="M 16393,11398 L 16590,11364 16760,12351 16366,12419 16195,11432 16393,11398 Z"/>
           <path fill="none" stroke="rgb(52,101,164)" d="M 16393,11398 L 16590,11364 16760,12351 16366,12419 16195,11432 16393,11398 Z"/>
          </g>
         </g>
         <g class="com.sun.star.drawing.CustomShape">
          <g id="id17">
           <rect class="BoundingBox" stroke="none" fill="none" x="14829" y="3480" width="568" height="1058"/>
           <path fill="rgb(248,248,0)" stroke="none" d="M 15028,3515 L 15225,3481 15395,4468 15001,4536 14830,3549 15028,3515 Z"/>
           <path fill="none" stroke="rgb(52,101,164)" d="M 15028,3515 L 15225,3481 15395,4468 15001,4536 14830,3549 15028,3515 Z"/>
          </g>
         </g>
        </g>
        <g class="com.sun.star.drawing.CustomShape">
         <g id="id18">
          <rect class="BoundingBox" stroke="none" fill="none" x="16526" y="13283" width="539" height="861"/>
          <path fill="rgb(248,248,0)" stroke="none" d="M 16724,13319 L 16921,13284 17063,14071 16669,14142 16527,13355 16724,13319 Z"/>
          <path fill="none" stroke="rgb(52,101,164)" d="M 16724,13319 L 16921,13284 17063,14071 16669,14142 16527,13355 16724,13319 Z"/>
         </g>
        </g>
        <g class="com.sun.star.drawing.CustomShape">
         <g id="id19">
          <rect class="BoundingBox" stroke="none" fill="none" x="16977" y="15836" width="539" height="861"/>
          <path fill="rgb(248,248,0)" stroke="none" d="M 17175,15872 L 17372,15837 17514,16624 17120,16695 16978,15908 17175,15872 Z"/>
          <path fill="none" stroke="rgb(52,101,164)" d="M 17175,15872 L 17372,15837 17514,16624 17120,16695 16978,15908 17175,15872 Z"/>
         </g>
        </g>
       </g>
      </g>
     </g>
    </g>
   </g>
  </g>
 </g>
</svg>