<?xml version="1.0" encoding="UTF-8"?>
<!DOCTYPE svg PUBLIC "-//W3C//DTD SVG 1.1//EN" "http://www.w3.org/Graphics/SVG/1.1/DTD/svg11.dtd">
<svg version="1.2" width="297mm" height="210mm" viewBox="0 0 29700 21000" preserveAspectRatio="xMidYMid" fill-rule="evenodd" stroke-width="28.222" stroke-linejoin="round" xmlns="http://www.w3.org/2000/svg" xmlns:ooo="http://xml.openoffice.org/svg/export" xmlns:xlink="http://www.w3.org/1999/xlink" xmlns:presentation="http://sun.com/xmlns/staroffice/presentation" xmlns:smil="http://www.w3.org/2001/SMIL20/" xmlns:anim="urn:oasis:names:tc:opendocument:xmlns:animation:1.0" xml:space="preserve">
 <defs class="ClipPathGroup">
  <clipPath id="presentation_clip_path" clipPathUnits="userSpaceOnUse">
   <rect x="0" y="0" width="29700" height="21000"/>
  </clipPath>
  <clipPath id="presentation_clip_path_shrink" clipPathUnits="userSpaceOnUse">
   <rect x="29" y="21" width="29641" height="20958"/>
  </clipPath>
 </defs>
 <defs class="TextShapeIndex">
  <g ooo:slide="id1" ooo:id-list="id3 id4 id5 id6 id7 id8 id9 id10 id11 id12 id13 id14 id15 id16 id17 id18 id19"/>
 </defs>
 <defs class="EmbeddedBulletChars">
  <g id="bullet-char-template-57356" transform="scale(0.00048828125,-0.00048828125)">
   <path d="M 580,1141 L 1163,571 580,0 -4,571 580,1141 Z"/>
  </g>
  <g id="bullet-char-template-57354" transform="scale(0.00048828125,-0.00048828125)">
   <path d="M 8,1128 L 1137,1128 1137,0 8,0 8,1128 Z"/>
  </g>
  <g id="bullet-char-template-10146" transform="scale(0.00048828125,-0.00048828125)">
   <path d="M 174,0 L 602,739 174,1481 1456,739 174,0 Z M 1358,739 L 309,1346 659,739 1358,739 Z"/>
  </g>
  <g id="bullet-char-template-10132" transform="scale(0.00048828125,-0.00048828125)">
   <path d="M 2015,739 L 1276,0 717,0 1260,543 174,543 174,936 1260,936 717,1481 1274,1481 2015,739 Z"/>
  </g>
  <g id="bullet-char-template-10007" transform="scale(0.00048828125,-0.00048828125)">
   <path d="M 0,-2 C -7,14 -16,27 -25,37 L 356,567 C 262,823 215,952 215,954 215,979 228,992 255,992 264,992 276,990 289,987 310,991 331,999 354,1012 L 381,999 492,748 772,1049 836,1024 860,1049 C 881,1039 901,1025 922,1006 886,937 835,863 770,784 769,783 710,716 594,584 L 774,223 C 774,196 753,168 711,139 L 727,119 C 717,90 699,76 672,76 641,76 570,178 457,381 L 164,-76 C 142,-110 111,-127 72,-127 30,-127 9,-110 8,-76 1,-67 -2,-52 -2,-32 -2,-23 -1,-13 0,-2 Z"/>
  </g>
  <g id="bullet-char-template-10004" transform="scale(0.00048828125,-0.00048828125)">
   <path d="M 285,-33 C 182,-33 111,30 74,156 52,228 41,333 41,471 41,549 55,616 82,672 116,743 169,778 240,778 293,778 328,747 346,684 L 369,508 C 377,444 397,411 428,410 L 1163,1116 C 1174,1127 1196,1133 1229,1133 1271,1133 1292,1118 1292,1087 L 1292,965 C 1292,929 1282,901 1262,881 L 442,47 C 390,-6 338,-33 285,-33 Z"/>
  </g>
  <g id="bullet-char-template-9679" transform="scale(0.00048828125,-0.00048828125)">
   <path d="M 813,0 C 632,0 489,54 383,161 276,268 223,411 223,592 223,773 276,916 383,1023 489,1130 632,1184 813,1184 992,1184 1136,1130 1245,1023 1353,916 1407,772 1407,592 1407,412 1353,268 1245,161 1136,54 992,0 813,0 Z"/>
  </g>
  <g id="bullet-char-template-8226" transform="scale(0.00048828125,-0.00048828125)">
   <path d="M 346,457 C 273,457 209,483 155,535 101,586 74,649 74,723 74,796 101,859 155,911 209,963 273,989 346,989 419,989 480,963 531,910 582,859 608,796 608,723 608,648 583,586 532,535 482,483 420,457 346,457 Z"/>
  </g>
  <g id="bullet-char-template-8211" transform="scale(0.00048828125,-0.00048828125)">
   <path d="M -4,459 L 1135,459 1135,606 -4,606 -4,459 Z"/>
  </g>
  <g id="bullet-char-template-61548" transform="scale(0.00048828125,-0.00048828125)">
   <path d="M 173,740 C 173,903 231,1043 346,1159 462,1274 601,1332 765,1332 928,1332 1067,1274 1183,1159 1299,1043 1357,903 1357,740 1357,577 1299,437 1183,322 1067,206 928,148 765,148 601,148 462,206 346,322 231,437 173,577 173,740 Z"/>
  </g>
 </defs>
 <g>
  <g id="id2" class="Master_Slide">
   <g id="bg-id2" class="Background"/>
   <g id="bo-id2" class="BackgroundObjects"/>
  </g>
 </g>
 <g class="SlideGroup">
  <g>
   <g id="container-id1">
    <g id="id1" class="Slide" clip-path="url(#presentation_clip_path)">
     <g class="Page">
      <g class="Group">
       <g class="Group">
        <g class="Group">
         <g class="com.sun.star.drawing.CustomShape">
          <g id="id3">
           <rect class="BoundingBox" stroke="none" fill="none" x="15581" y="14109" width="2603" height="1803"/>
           <path fill="rgb(255,255,0)" stroke="none" d="M 15582,15010 L 15582,14110 18182,14110 18182,15910 15582,15910 15582,15010 Z"/>
           <path fill="none" stroke="rgb(52,101,164)" d="M 15582,15010 L 15582,14110 18182,14110 18182,15910 15582,15910 15582,15010 Z"/>
          </g>
         </g>
         <g class="com.sun.star.drawing.CustomShape">
          <g id="id4">
           <rect class="BoundingBox" stroke="none" fill="none" x="16879" y="14363" width="1635" height="1838"/>
           <path fill="rgb(0,0,0)" stroke="none" d="M 17543,15153 L 18206,14364 18512,14621 17187,16199 16880,15942 17543,15153 Z"/>
           <path fill="none" stroke="rgb(52,101,164)" d="M 17543,15153 L 18206,14364 18512,14621 17187,16199 16880,15942 17543,15153 Z"/>
          </g>
         </g>
         <g class="com.sun.star.drawing.CustomShape">
          <g id="id5">
           <rect class="BoundingBox" stroke="none" fill="none" x="18181" y="14109" width="403" height="1803"/>
           <path fill="rgb(255,255,255)" stroke="none" d="M 18182,15010 L 18182,14110 18582,14110 18582,15910 18182,15910 18182,15010 Z"/>
           <path fill="none" stroke="rgb(255,255,255)" d="M 18182,15010 L 18182,14110 18582,14110 18582,15910 18182,15910 18182,15010 Z"/>
          </g>
         </g>
        </g>
        <g class="com.sun.star.drawing.CustomShape">
         <g id="id6">
          <rect class="BoundingBox" stroke="none" fill="none" x="15429" y="13863" width="1836" height="2079"/>
          <path fill="rgb(0,0,0)" stroke="none" d="M 16193,14773 L 16957,13864 17263,14121 15736,15940 15430,15683 16193,14773 Z"/>
          <path fill="none" stroke="rgb(52,101,164)" d="M 16193,14773 L 16957,13864 17263,14121 15736,15940 15430,15683 16193,14773 Z"/>
         </g>
        </g>
        <g class="com.sun.star.drawing.CustomShape">
         <g id="id7">
          <rect class="BoundingBox" stroke="none" fill="none" x="15381" y="14109" width="403" height="1803"/>
          <path fill="rgb(255,255,255)" stroke="none" d="M 15382,15010 L 15382,14110 15782,14110 15782,15910 15382,15910 15382,15010 Z"/>
          <path fill="none" stroke="rgb(255,255,255)" d="M 15382,15010 L 15382,14110 15782,14110 15782,15910 15382,15910 15382,15010 Z"/>
         </g>
        </g>
        <g class="com.sun.star.drawing.CustomShape">
         <g id="id8">
          <rect class="BoundingBox" stroke="none" fill="none" x="15681" y="15901" width="2604" height="411"/>
          <path fill="rgb(255,255,255)" stroke="none" d="M 16982,16306 L 15682,16302 15683,15902 18283,15910 18282,16310 16982,16306 Z"/>
          <path fill="none" stroke="rgb(255,255,255)" d="M 16982,16306 L 15682,16302 15683,15902 18283,15910 18282,16310 16982,16306 Z"/>
         </g>
        </g>
        <g class="com.sun.star.drawing.CustomShape">
         <g id="id9">
          <rect class="BoundingBox" stroke="none" fill="none" x="15681" y="13701" width="2604" height="411"/>
          <path fill="rgb(255,255,255)" stroke="none" d="M 16982,14106 L 15682,14102 15683,13702 18283,13710 18282,14110 16982,14106 Z"/>
          <path fill="none" stroke="rgb(255,255,255)" d="M 16982,14106 L 15682,14102 15683,13702 18283,13710 18282,14110 16982,14106 Z"/>
         </g>
        </g>
       </g>
       <g class="Group">
        <g class="Group">
         <g class="com.sun.star.drawing.CustomShape">
          <g id="id10">
           <rect class="BoundingBox" stroke="none" fill="none" x="16806" y="1957" width="437" height="14104"/>
           <path fill="rgb(17,17,17)" stroke="none" d="M 17041,1959 L 17241,1959 17207,16059 16807,16058 16841,1958 17041,1959 Z"/>
           <path fill="none" stroke="rgb(52,101,164)" d="M 17041,1959 L 17241,1959 17207,16059 16807,16058 16841,1958 17041,1959 Z"/>
          </g>
         </g>
         <g class="com.sun.star.drawing.CustomShape">
          <g id="id11">
           <rect class="BoundingBox" stroke="none" fill="none" x="16827" y="9357" width="405" height="1004"/>
           <path fill="rgb(248,248,0)" stroke="none" d="M 17030,9359 L 17230,9359 17228,10359 16828,10358 16830,9358 17030,9359 Z"/>
           <path fill="none" stroke="rgb(52,101,164)" d="M 17030,9359 L 17230,9359 17228,10359 16828,10358 16830,9358 17030,9359 Z"/>
          </g>
         </g>
         <g class="com.sun.star.drawing.CustomShape">
          <g id="id12">
           <rect class="BoundingBox" stroke="none" fill="none" x="16827" y="9357" width="405" height="1004"/>
           <path fill="rgb(248,248,0)" stroke="none" d="M 17030,9359 L 17230,9359 17228,10359 16828,10358 16830,9358 17030,9359 Z"/>
           <path fill="none" stroke="rgb(52,101,164)" d="M 17030,9359 L 17230,9359 17228,10359 16828,10358 16830,9358 17030,9359 Z"/>
          </g>
         </g>
         <g class="com.sun.star.drawing.CustomShape">
          <g id="id13">
           <rect class="BoundingBox" stroke="none" fill="none" x="16839" y="5457" width="405" height="1004"/>
           <path fill="rgb(248,248,0)" stroke="none" d="M 17042,5459 L 17242,5459 17240,6459 16840,6458 16842,5458 17042,5459 Z"/>
           <path fill="none" stroke="rgb(52,101,164)" d="M 17042,5459 L 17242,5459 17240,6459 16840,6458 16842,5458 17042,5459 Z"/>
          </g>
         </g>
         <g class="com.sun.star.drawing.CustomShape">
          <g id="id14">
           <rect class="BoundingBox" stroke="none" fill="none" x="16833" y="7457" width="405" height="1004"/>
           <path fill="rgb(248,248,0)" stroke="none" d="M 17036,7459 L 17236,7459 17234,8459 16834,8458 16836,7458 17036,7459 Z"/>
           <path fill="none" stroke="rgb(52,101,164)" d="M 17036,7459 L 17236,7459 17234,8459 16834,8458 16836,7458 17036,7459 Z"/>
          </g>
         </g>
         <g class="com.sun.star.drawing.CustomShape">
          <g id="id15">
           <rect class="BoundingBox" stroke="none" fill="none" x="16815" y="13357" width="405" height="1004"/>
           <path fill="rgb(248,248,0)" stroke="none" d="M 17018,13359 L 17218,13359 17216,14359 16816,14358 16818,13358 17018,13359 Z"/>
           <path fill="none" stroke="rgb(52,101,164)" d="M 17018,13359 L 17218,13359 17216,14359 16816,14358 16818,13358 17018,13359 Z"/>
          </g>
         </g>
         <g class="com.sun.star.drawing.CustomShape">
          <g id="id16">
           <rect class="BoundingBox" stroke="none" fill="none" x="16821" y="11357" width="405" height="1004"/>
           <path fill="rgb(248,248,0)" stroke="none" d="M 17024,11359 L 17224,11359 17222,12359 16822,12358 16824,11358 17024,11359 Z"/>
           <path fill="none" stroke="rgb(52,101,164)" d="M 17024,11359 L 17224,11359 17222,12359 16822,12358 16824,11358 17024,11359 Z"/>
          </g>
         </g>
         <g class="com.sun.star.drawing.CustomShape">
          <g id="id17">
           <rect class="BoundingBox" stroke="none" fill="none" x="16845" y="3357" width="405" height="1004"/>
           <path fill="rgb(248,248,0)" stroke="none" d="M 17048,3359 L 17248,3359 17246,4359 16846,4358 16848,3358 17048,3359 Z"/>
           <path fill="none" stroke="rgb(52,101,164)" d="M 17048,3359 L 17248,3359 17246,4359 16846,4358 16848,3358 17048,3359 Z"/>
          </g>
         </g>
        </g>
        <g class="com.sun.star.drawing.CustomShape">
         <g id="id18">
          <rect class="BoundingBox" stroke="none" fill="none" x="16818" y="13308" width="405" height="804"/>
          <path fill="rgb(248,248,0)" stroke="none" d="M 17019,13309 L 17219,13309 17221,14109 16821,14110 16819,13310 17019,13309 Z"/>
          <path fill="none" stroke="rgb(52,101,164)" d="M 17019,13309 L 17219,13309 17221,14109 16821,14110 16819,13310 17019,13309 Z"/>
         </g>
        </g>
        <g class="com.sun.star.drawing.CustomShape">
         <g id="id19">
          <rect class="BoundingBox" stroke="none" fill="none" x="16818" y="15900" width="405" height="804"/>
          <path fill="rgb(248,248,0)" stroke="none" d="M 17019,15901 L 17219,15901 17221,16701 16821,16702 16819,15902 17019,15901 Z"/>
          <path fill="none" stroke="rgb(52,101,164)" d="M 17019,15901 L 17219,15901 17221,16701 16821,16702 16819,15902 17019,15901 Z"/>
         </g>
        </g>
       </g>
      </g>
     </g>
    </g>
   </g>
  </g>
 </g>
</svg>