<?xml version="1.0" encoding="UTF-8"?>
<!DOCTYPE svg PUBLIC "-//W3C//DTD SVG 1.1//EN" "http://www.w3.org/Graphics/SVG/1.1/DTD/svg11.dtd">
<svg version="1.2" width="297mm" height="210mm" viewBox="0 0 29700 21000" preserveAspectRatio="xMidYMid" fill-rule="evenodd" stroke-width="28.222" stroke-linejoin="round" xmlns="http://www.w3.org/2000/svg" xmlns:ooo="http://xml.openoffice.org/svg/export" xmlns:xlink="http://www.w3.org/1999/xlink" xmlns:presentation="http://sun.com/xmlns/staroffice/presentation" xmlns:smil="http://www.w3.org/2001/SMIL20/" xmlns:anim="urn:oasis:names:tc:opendocument:xmlns:animation:1.0" xml:space="preserve">
 <defs class="ClipPathGroup">
  <clipPath id="presentation_clip_path" clipPathUnits="userSpaceOnUse">
   <rect x="0" y="0" width="29700" height="21000"/>
  </clipPath>
  <clipPath id="presentation_clip_path_shrink" clipPathUnits="userSpaceOnUse">
   <rect x="29" y="21" width="29641" height="20958"/>
  </clipPath>
 </defs>
 <defs class="TextShapeIndex">
  <g ooo:slide="id1" ooo:id-list="id3 id4 id5 id6 id7 id8 id9 id10 id11 id12 id13 id14 id15 id16 id17 id18 id19 id20 id21 id22 id23"/>
 </defs>
 <defs class="EmbeddedBulletChars">
  <g id="bullet-char-template-57356" transform="scale(0.00048828125,-0.00048828125)">
   <path d="M 580,1141 L 1163,571 580,0 -4,571 580,1141 Z"/>
  </g>
  <g id="bullet-char-template-57354" transform="scale(0.00048828125,-0.00048828125)">
   <path d="M 8,1128 L 1137,1128 1137,0 8,0 8,1128 Z"/>
  </g>
  <g id="bullet-char-template-10146" transform="scale(0.00048828125,-0.00048828125)">
   <path d="M 174,0 L 602,739 174,1481 1456,739 174,0 Z M 1358,739 L 309,1346 659,739 1358,739 Z"/>
  </g>
  <g id="bullet-char-template-10132" transform="scale(0.00048828125,-0.00048828125)">
   <path d="M 2015,739 L 1276,0 717,0 1260,543 174,543 174,936 1260,936 717,1481 1274,1481 2015,739 Z"/>
  </g>
  <g id="bullet-char-template-10007" transform="scale(0.00048828125,-0.00048828125)">
   <path d="M 0,-2 C -7,14 -16,27 -25,37 L 356,567 C 262,823 215,952 215,954 215,979 228,992 255,992 264,992 276,990 289,987 310,991 331,999 354,1012 L 381,999 492,748 772,1049 836,1024 860,1049 C 881,1039 901,1025 922,1006 886,937 835,863 770,784 769,783 710,716 594,584 L 774,223 C 774,196 753,168 711,139 L 727,119 C 717,90 699,76 672,76 641,76 570,178 457,381 L 164,-76 C 142,-110 111,-127 72,-127 30,-127 9,-110 8,-76 1,-67 -2,-52 -2,-32 -2,-23 -1,-13 0,-2 Z"/>
  </g>
  <g id="bullet-char-template-10004" transform="scale(0.00048828125,-0.00048828125)">
   <path d="M 285,-33 C 182,-33 111,30 74,156 52,228 41,333 41,471 41,549 55,616 82,672 116,743 169,778 240,778 293,778 328,747 346,684 L 369,508 C 377,444 397,411 428,410 L 1163,1116 C 1174,1127 1196,1133 1229,1133 1271,1133 1292,1118 1292,1087 L 1292,965 C 1292,929 1282,901 1262,881 L 442,47 C 390,-6 338,-33 285,-33 Z"/>
  </g>
  <g id="bullet-char-template-9679" transform="scale(0.00048828125,-0.00048828125)">
   <path d="M 813,0 C 632,0 489,54 383,161 276,268 223,411 223,592 223,773 276,916 383,1023 489,1130 632,1184 813,1184 992,1184 1136,1130 1245,1023 1353,916 1407,772 1407,592 1407,412 1353,268 1245,161 1136,54 992,0 813,0 Z"/>
  </g>
  <g id="bullet-char-template-8226" transform="scale(0.00048828125,-0.00048828125)">
   <path d="M 346,457 C 273,457 209,483 155,535 101,586 74,649 74,723 74,796 101,859 155,911 209,963 273,989 346,989 419,989 480,963 531,910 582,859 608,796 608,723 608,648 583,586 532,535 482,483 420,457 346,457 Z"/>
  </g>
  <g id="bullet-char-template-8211" transform="scale(0.00048828125,-0.00048828125)">
   <path d="M -4,459 L 1135,459 1135,606 -4,606 -4,459 Z"/>
  </g>
  <g id="bullet-char-template-61548" transform="scale(0.00048828125,-0.00048828125)">
   <path d="M 173,740 C 173,903 231,1043 346,1159 462,1274 601,1332 765,1332 928,1332 1067,1274 1183,1159 1299,1043 1357,903 1357,740 1357,577 1299,437 1183,322 1067,206 928,148 765,148 601,148 462,206 346,322 231,437 173,577 173,740 Z"/>
  </g>
 </defs>
 <g>
  <g id="id2" class="Master_Slide">
   <g id="bg-id2" class="Background"/>
   <g id="bo-id2" class="BackgroundObjects"/>
  </g>
 </g>
 <g class="SlideGroup">
  <g>
   <g id="container-id1">
    <g id="id1" class="Slide" clip-path="url(#presentation_clip_path)">
     <g class="Page">
      <g class="Group">
       <g class="com.sun.star.drawing.CustomShape">
        <g id="id3">
         <rect class="BoundingBox" stroke="none" fill="none" x="8006" y="5999" width="4503" height="349"/>
         <path fill="rgb(17,17,17)" stroke="none" d="M 10257,6346 L 8007,6346 8007,6000 12507,6000 12507,6346 10257,6346 Z"/>
         <path fill="none" stroke="rgb(52,101,164)" d="M 10257,6346 L 8007,6346 8007,6000 12507,6000 12507,6346 10257,6346 Z"/>
        </g>
       </g>
       <g class="Group">
        <g class="com.sun.star.drawing.CustomShape">
         <g id="id4">
          <rect class="BoundingBox" stroke="none" fill="none" x="7599" y="6199" width="1703" height="1703"/>
          <path fill="rgb(17,17,17)" stroke="none" d="M 9300,7050 C 9300,7199 9261,7346 9186,7475 9112,7604 9004,7712 8875,7786 8746,7861 8599,7900 8450,7900 8301,7900 8154,7861 8025,7786 7896,7712 7788,7604 7714,7475 7639,7346 7600,7199 7600,7050 7600,6901 7639,6754 7714,6625 7788,6496 7896,6388 8025,6314 8154,6239 8301,6200 8450,6200 8599,6200 8746,6239 8875,6314 9004,6388 9112,6496 9186,6625 9261,6754 9300,6901 9300,7050 L 9300,7050 Z"/>
          <path fill="none" stroke="rgb(52,101,164)" d="M 9300,7050 C 9300,7199 9261,7346 9186,7475 9112,7604 9004,7712 8875,7786 8746,7861 8599,7900 8450,7900 8301,7900 8154,7861 8025,7786 7896,7712 7788,7604 7714,7475 7639,7346 7600,7199 7600,7050 7600,6901 7639,6754 7714,6625 7788,6496 7896,6388 8025,6314 8154,6239 8301,6200 8450,6200 8599,6200 8746,6239 8875,6314 9004,6388 9112,6496 9186,6625 9261,6754 9300,6901 9300,7050 Z"/>
         </g>
        </g>
        <g class="com.sun.star.drawing.CustomShape">
         <g id="id5">
          <rect class="BoundingBox" stroke="none" fill="none" x="7799" y="6399" width="1304" height="1304"/>
          <path fill="rgb(255,64,0)" stroke="none" d="M 9101,7051 C 9101,7165 9071,7277 9014,7376 8957,7475 8875,7557 8776,7614 8677,7671 8565,7701 8451,7701 8336,7701 8224,7671 8125,7614 8026,7557 7944,7475 7887,7376 7830,7277 7800,7165 7800,7051 7800,6936 7830,6824 7887,6725 7944,6626 8026,6544 8125,6487 8224,6430 8336,6400 8451,6400 8565,6400 8677,6430 8776,6487 8875,6544 8957,6626 9014,6725 9071,6824 9101,6936 9101,7051 L 9101,7051 Z"/>
          <path fill="none" stroke="rgb(52,101,164)" d="M 9101,7051 C 9101,7165 9071,7277 9014,7376 8957,7475 8875,7557 8776,7614 8677,7671 8565,7701 8451,7701 8336,7701 8224,7671 8125,7614 8026,7557 7944,7475 7887,7376 7830,7277 7800,7165 7800,7051 7800,6936 7830,6824 7887,6725 7944,6626 8026,6544 8125,6487 8224,6430 8336,6400 8451,6400 8565,6400 8677,6430 8776,6487 8875,6544 8957,6626 9014,6725 9071,6824 9101,6936 9101,7051 Z"/>
         </g>
        </g>
       </g>
       <g class="Group">
        <g class="com.sun.star.drawing.CustomShape">
         <g id="id6">
          <rect class="BoundingBox" stroke="none" fill="none" x="11098" y="6198" width="1703" height="1703"/>
          <path fill="rgb(17,17,17)" stroke="none" d="M 12799,7049 C 12799,7198 12760,7345 12685,7474 12611,7603 12503,7711 12374,7785 12245,7860 12098,7899 11949,7899 11800,7899 11653,7860 11524,7785 11395,7711 11287,7603 11213,7474 11138,7345 11099,7198 11099,7049 11099,6900 11138,6753 11213,6624 11287,6495 11395,6387 11524,6313 11653,6238 11800,6199 11949,6199 12098,6199 12245,6238 12374,6313 12503,6387 12611,6495 12685,6624 12760,6753 12799,6900 12799,7049 L 12799,7049 Z"/>
          <path fill="none" stroke="rgb(52,101,164)" d="M 12799,7049 C 12799,7198 12760,7345 12685,7474 12611,7603 12503,7711 12374,7785 12245,7860 12098,7899 11949,7899 11800,7899 11653,7860 11524,7785 11395,7711 11287,7603 11213,7474 11138,7345 11099,7198 11099,7049 11099,6900 11138,6753 11213,6624 11287,6495 11395,6387 11524,6313 11653,6238 11800,6199 11949,6199 12098,6199 12245,6238 12374,6313 12503,6387 12611,6495 12685,6624 12760,6753 12799,6900 12799,7049 L 12799,7049 Z"/>
         </g>
        </g>
        <g class="com.sun.star.drawing.CustomShape">
         <g id="id7">
          <rect class="BoundingBox" stroke="none" fill="none" x="11299" y="6399" width="1304" height="1304"/>
          <path fill="rgb(167,7,75)" stroke="none" d="M 12601,7051 C 12601,7165 12571,7277 12514,7376 12457,7475 12375,7557 12276,7614 12177,7671 12065,7701 11951,7701 11836,7701 11724,7671 11625,7614 11526,7557 11444,7475 11387,7376 11330,7277 11300,7165 11300,7051 11300,6936 11330,6824 11387,6725 11444,6626 11526,6544 11625,6487 11724,6430 11836,6400 11951,6400 12065,6400 12177,6430 12276,6487 12375,6544 12457,6626 12514,6725 12571,6824 12601,6936 12601,7051 L 12601,7051 Z"/>
          <path fill="none" stroke="rgb(52,101,164)" d="M 12601,7051 C 12601,7165 12571,7277 12514,7376 12457,7475 12375,7557 12276,7614 12177,7671 12065,7701 11951,7701 11836,7701 11724,7671 11625,7614 11526,7557 11444,7475 11387,7376 11330,7277 11300,7165 11300,7051 11300,6936 11330,6824 11387,6725 11444,6626 11526,6544 11625,6487 11724,6430 11836,6400 11951,6400 12065,6400 12177,6430 12276,6487 12375,6544 12457,6626 12514,6725 12571,6824 12601,6936 12601,7051 Z"/>
         </g>
        </g>
       </g>
       <g class="com.sun.star.drawing.CustomShape">
        <g id="id8">
         <rect class="BoundingBox" stroke="none" fill="none" x="10099" y="3799" width="403" height="14103"/>
         <path fill="rgb(17,17,17)" stroke="none" d="M 10300,17900 L 10100,17900 10100,3800 10500,3800 10500,17900 10300,17900 Z"/>
         <path fill="none" stroke="rgb(52,101,164)" d="M 10300,17900 L 10100,17900 10100,3800 10500,3800 10500,17900 10300,17900 Z"/>
        </g>
       </g>
       <g class="com.sun.star.drawing.CustomShape">
        <g id="id9">
         <rect class="BoundingBox" stroke="none" fill="none" x="10099" y="9499" width="403" height="1003"/>
         <path fill="rgb(248,248,0)" stroke="none" d="M 10300,10500 L 10100,10500 10100,9500 10500,9500 10500,10500 10300,10500 Z"/>
         <path fill="none" stroke="rgb(52,101,164)" d="M 10300,10500 L 10100,10500 10100,9500 10500,9500 10500,10500 10300,10500 Z"/>
        </g>
       </g>
       <g class="com.sun.star.drawing.CustomShape">
        <g id="id10">
         <rect class="BoundingBox" stroke="none" fill="none" x="10099" y="9499" width="403" height="1003"/>
         <path fill="rgb(248,248,0)" stroke="none" d="M 10300,10500 L 10100,10500 10100,9500 10500,9500 10500,10500 10300,10500 Z"/>
         <path fill="none" stroke="rgb(52,101,164)" d="M 10300,10500 L 10100,10500 10100,9500 10500,9500 10500,10500 10300,10500 Z"/>
        </g>
       </g>
       <g class="com.sun.star.drawing.CustomShape">
        <g id="id11">
         <rect class="BoundingBox" stroke="none" fill="none" x="10099" y="13399" width="403" height="1003"/>
         <path fill="rgb(248,248,0)" stroke="none" d="M 10300,14400 L 10100,14400 10100,13400 10500,13400 10500,14400 10300,14400 Z"/>
         <path fill="none" stroke="rgb(52,101,164)" d="M 10300,14400 L 10100,14400 10100,13400 10500,13400 10500,14400 10300,14400 Z"/>
        </g>
       </g>
       <g class="com.sun.star.drawing.CustomShape">
        <g id="id12">
         <rect class="BoundingBox" stroke="none" fill="none" x="10099" y="11399" width="403" height="1003"/>
         <path fill="rgb(248,248,0)" stroke="none" d="M 10300,12400 L 10100,12400 10100,11400 10500,11400 10500,12400 10300,12400 Z"/>
         <path fill="none" stroke="rgb(52,101,164)" d="M 10300,12400 L 10100,12400 10100,11400 10500,11400 10500,12400 10300,12400 Z"/>
        </g>
       </g>
       <g class="com.sun.star.drawing.CustomShape">
        <g id="id13">
         <rect class="BoundingBox" stroke="none" fill="none" x="10099" y="5499" width="403" height="1003"/>
         <path fill="rgb(248,248,0)" stroke="none" d="M 10300,6500 L 10100,6500 10100,5500 10500,5500 10500,6500 10300,6500 Z"/>
         <path fill="none" stroke="rgb(52,101,164)" d="M 10300,6500 L 10100,6500 10100,5500 10500,5500 10500,6500 10300,6500 Z"/>
        </g>
       </g>
       <g class="com.sun.star.drawing.CustomShape">
        <g id="id14">
         <rect class="BoundingBox" stroke="none" fill="none" x="10099" y="7499" width="403" height="1003"/>
         <path fill="rgb(248,248,0)" stroke="none" d="M 10300,8500 L 10100,8500 10100,7500 10500,7500 10500,8500 10300,8500 Z"/>
         <path fill="none" stroke="rgb(52,101,164)" d="M 10300,8500 L 10100,8500 10100,7500 10500,7500 10500,8500 10300,8500 Z"/>
        </g>
       </g>
       <g class="com.sun.star.drawing.CustomShape">
        <g id="id15">
         <rect class="BoundingBox" stroke="none" fill="none" x="10099" y="15499" width="403" height="1003"/>
         <path fill="rgb(248,248,0)" stroke="none" d="M 10300,16500 L 10100,16500 10100,15500 10500,15500 10500,16500 10300,16500 Z"/>
         <path fill="none" stroke="rgb(52,101,164)" d="M 10300,16500 L 10100,16500 10100,15500 10500,15500 10500,16500 10300,16500 Z"/>
        </g>
       </g>
       <g class="Group">
        <g class="Group">
         <g class="com.sun.star.drawing.CustomShape">
          <g id="id16">
           <rect class="BoundingBox" stroke="none" fill="none" x="7822" y="2424" width="4958" height="3450"/>
           <path fill="rgb(255,255,0)" stroke="none" d="M 10485,4446 L 8193,5872 7823,5278 12408,2425 12778,3020 10485,4446 Z"/>
           <path fill="none" stroke="rgb(52,101,164)" d="M 10485,4446 L 8193,5872 7823,5278 12408,2425 12778,3020 10485,4446 Z"/>
          </g>
         </g>
         <g class="com.sun.star.drawing.CustomShape">
          <g id="id17">
           <rect class="BoundingBox" stroke="none" fill="none" x="11143" y="2810" width="1032" height="988"/>
           <path fill="rgb(0,0,0)" stroke="none" d="M 11833,3585 L 11494,3796 11144,3234 11823,2811 12173,3373 11833,3585 Z"/>
           <path fill="none" stroke="rgb(52,101,164)" d="M 11833,3585 L 11494,3796 11144,3234 11823,2811 12173,3373 11833,3585 Z"/>
          </g>
         </g>
         <g class="com.sun.star.drawing.CustomShape">
          <g id="id18">
           <rect class="BoundingBox" stroke="none" fill="none" x="8426" y="4501" width="1032" height="988"/>
           <path fill="rgb(0,0,0)" stroke="none" d="M 9116,5276 L 8777,5487 8427,4925 9106,4502 9456,5064 9116,5276 Z"/>
           <path fill="none" stroke="rgb(52,101,164)" d="M 9116,5276 L 8777,5487 8427,4925 9106,4502 9456,5064 9116,5276 Z"/>
          </g>
         </g>
         <g class="com.sun.star.drawing.CustomShape">
          <g id="id19">
           <rect class="BoundingBox" stroke="none" fill="none" x="9785" y="3655" width="1032" height="988"/>
           <path fill="rgb(0,0,0)" stroke="none" d="M 10475,4430 L 10136,4641 9786,4079 10465,3656 10815,4218 10475,4430 Z"/>
           <path fill="none" stroke="rgb(52,101,164)" d="M 10475,4430 L 10136,4641 9786,4079 10465,3656 10815,4218 10475,4430 Z"/>
          </g>
         </g>
        </g>
        <g class="Group">
         <g class="com.sun.star.drawing.CustomShape">
          <g id="id20">
           <rect class="BoundingBox" stroke="none" fill="none" x="7889" y="2309" width="4824" height="3680"/>
           <path fill="rgb(255,255,0)" stroke="none" d="M 10099,4435 L 7890,2883 8292,2310 12711,5414 12308,5987 10099,4435 Z"/>
           <path fill="none" stroke="rgb(52,101,164)" d="M 10099,4435 L 7890,2883 8292,2310 12711,5414 12308,5987 10099,4435 Z"/>
          </g>
         </g>
         <g class="com.sun.star.drawing.CustomShape">
          <g id="id21">
           <rect class="BoundingBox" stroke="none" fill="none" x="11090" y="4568" width="1039" height="1005"/>
           <path fill="rgb(0,0,0)" stroke="none" d="M 11419,5341 L 11091,5111 11472,4569 12127,5029 11746,5571 11419,5341 Z"/>
           <path fill="none" stroke="rgb(52,101,164)" d="M 11419,5341 L 11091,5111 11472,4569 12127,5029 11746,5571 11419,5341 Z"/>
          </g>
         </g>
         <g class="com.sun.star.drawing.CustomShape">
          <g id="id22">
           <rect class="BoundingBox" stroke="none" fill="none" x="8472" y="2728" width="1039" height="1005"/>
           <path fill="rgb(0,0,0)" stroke="none" d="M 8801,3501 L 8473,3271 8854,2729 9509,3189 9128,3731 8801,3501 Z"/>
           <path fill="none" stroke="rgb(52,101,164)" d="M 8801,3501 L 8473,3271 8854,2729 9509,3189 9128,3731 8801,3501 Z"/>
          </g>
         </g>
         <g class="com.sun.star.drawing.CustomShape">
          <g id="id23">
           <rect class="BoundingBox" stroke="none" fill="none" x="9781" y="3648" width="1039" height="1005"/>
           <path fill="rgb(0,0,0)" stroke="none" d="M 10110,4421 L 9782,4191 10163,3649 10818,4109 10437,4651 10110,4421 Z"/>
           <path fill="none" stroke="rgb(52,101,164)" d="M 10110,4421 L 9782,4191 10163,3649 10818,4109 10437,4651 10110,4421 Z"/>
          </g>
         </g>
        </g>
       </g>
      </g>
     </g>
    </g>
   </g>
  </g>
 </g>
</svg>